<svg xmlns="http://www.w3.org/2000/svg" xmlns:xlink="http://www.w3.org/1999/xlink" width="1030" height="498.265" viewBox="0 0 1030 498.265"><defs><linearGradient id="a" x1="0.961" y1="0.073" x2="0.02" y2="0.815" gradientUnits="objectBoundingBox"><stop offset="0" stop-color="#b2e6f9"/><stop offset="1" stop-color="#e4fbf3"/></linearGradient><clipPath id="b"><path d="M14.826,0H1015.174C1023.362,0,1030,7.942,1030,17.739V455.618c0,9.8-6.638,17.739-14.826,17.739H14.826C6.638,473.357,0,465.415,0,455.618V17.739C0,7.942,6.638,0,14.826,0Z" transform="translate(0 0)" fill="url(#a)"/></clipPath><linearGradient id="c" x1="0.863" y1="0.699" x2="-0.077" y2="1.041" gradientUnits="objectBoundingBox"><stop offset="0" stop-color="#eaf8fd"/><stop offset="1" stop-color="#e6edf1"/></linearGradient><clipPath id="d"><rect width="1604.639" height="495.859" fill="none" stroke="#41c0f0" stroke-width="1"/></clipPath><clipPath id="e"><rect width="595.516" height="67.275" fill="#fff"/></clipPath><linearGradient id="g" x1="0.5" x2="0.5" y2="1" gradientUnits="objectBoundingBox"><stop offset="0" stop-color="#41c0f0"/><stop offset="1" stop-color="#1f5f77"/></linearGradient><linearGradient id="h" x1="0.5" x2="0.5" y2="1" gradientUnits="objectBoundingBox"><stop offset="0" stop-color="#114d74"/><stop offset="1" stop-color="#08263a"/></linearGradient><linearGradient id="i" x1="0.5" x2="0.5" y2="1" gradientUnits="objectBoundingBox"><stop offset="0" stop-color="#08da95"/><stop offset="1" stop-color="#036c49"/></linearGradient><clipPath id="j"><rect width="14.828" height="13.065" fill="none" stroke="#34495d" stroke-width="1"/></clipPath><clipPath id="m"><rect width="108" height="156.924" fill="none" stroke="#114d74" stroke-width="2"/></clipPath><clipPath id="s"><rect width="118.74" height="172.53" fill="none" stroke="#114d74" stroke-width="2"/></clipPath><clipPath id="t"><rect width="16.303" height="14.364" fill="none" stroke="#34495d" stroke-width="1"/></clipPath></defs><g transform="translate(-285 -2187.274)"><g transform="translate(285 2212.182)" opacity="0.16" clip-path="url(#b)"><path d="M18.788,0H1146.061c10.376,0,18.788,7.255,18.788,16.2V356.537c0,8.949-8.412,16.2-18.788,16.2H18.788C8.412,372.741,0,365.486,0,356.537V16.2C0,7.255,8.412,0,18.788,0Z" transform="translate(37.576 26.699)" fill="#fff"/><path d="M17.848,0h1204.3C1232.009,0,1240,8.5,1240,18.978v468.45c0,10.481-7.991,18.978-17.848,18.978H17.848C7.991,506.406,0,497.909,0,487.428V18.978C0,8.5,7.991,0,17.848,0Z" transform="translate(0 0)" fill="url(#c)"/><path d="M3535.239,1056.236a.072.072,0,0,0,.01.017l.048-.036c-.011-.018-.02-.037-.029-.056a.059.059,0,0,0-.029.075" transform="translate(-2836.438 -613.274)" fill="#040504"/><path d="M3474.272,999.222a.111.111,0,0,0-.057-.141.1.1,0,0,0-.132.06c-.022.059-.081.072-.144.083-.135.023-.3.013-.421.046l.056.219c.142-.041.339-.021.479-.067a.327.327,0,0,0,.219-.2" transform="translate(-2781.154 -562.512)" fill="#040504"/><path d="M3472.761,1000.983a.107.107,0,0,0,.129.081l-.053-.219a.115.115,0,0,0-.076.139" transform="translate(-2780.474 -564.086)" fill="#040504"/><path d="M3536.094,1057.1h0Z" transform="translate(-2837.208 -614.108)" fill="#040504"/><path d="M3232.175,901.046c-.014-.026-.025-.054-.042-.079l-.211.148c.009.02.02.038.03.057.037-.023.074-.045.11-.065s.074-.04.113-.06" transform="translate(-2564.735 -475.277)" fill="#040504"/><path d="M3231.754,900.9c0,.01.006.019.01.029l0,.008.207-.149a.034.034,0,0,0-.006-.007c-.036.019-.073.038-.107.057s-.07.041-.106.062" transform="translate(-2564.585 -475.108)" fill="#040504"/><path d="M3279.074,1007.293c.092-.016.184-.032.277-.045,0-.007,0-.014,0-.021a.184.184,0,0,0-.055-.027.2.2,0,0,0-.224.093" transform="translate(-2606.974 -569.731)" fill="#040504"/><path d="M385.515,0C591.87.248,753.92,126.8,747.463,282.655S568.489,564.661,362.134,564.413-6.27,437.617.186,281.759,179.16-.247,385.515,0Z" transform="matrix(0.966, -0.259, 0.259, 0.966, 361.706, -133.03)" fill="#9bf0d4" opacity="0.27" style="mix-blend-mode:multiply;isolation:isolate"/><g transform="translate(823.584 10.547)" opacity="0.12"><g clip-path="url(#d)"><path d="M1531.942,491.357H297.417a360.726,360.726,0,0,1-59.905-4.985,343.133,343.133,0,0,1-55.8-14.3,321.6,321.6,0,0,1-50.508-22.63,294.886,294.886,0,0,1-44.019-29.979,264.878,264.878,0,0,1-36.332-36.349A236.171,236.171,0,0,1,23.4,341.376,214.642,214.642,0,0,1,6.052,295.232a205.9,205.9,0,0,1,0-99.1A214.651,214.651,0,0,1,23.4,149.983a236.169,236.169,0,0,1,27.446-41.74,264.87,264.87,0,0,1,36.332-36.35A294.886,294.886,0,0,1,131.2,41.914a321.611,321.611,0,0,1,50.508-22.63,343.16,343.16,0,0,1,55.8-14.3A360.726,360.726,0,0,1,297.417,0H1531.942ZM297.417,2a358.722,358.722,0,0,0-59.572,4.957,341.137,341.137,0,0,0-55.478,14.215A319.6,319.6,0,0,0,132.174,43.66,292.88,292.88,0,0,0,88.455,73.436,262.873,262.873,0,0,0,52.4,109.51a234.167,234.167,0,0,0-27.213,41.385A212.644,212.644,0,0,0,7.993,196.608a203.9,203.9,0,0,0,0,98.142,212.633,212.633,0,0,0,17.191,45.713A234.156,234.156,0,0,0,52.4,381.848a262.872,262.872,0,0,0,36.058,36.074A292.88,292.88,0,0,0,132.174,447.7a319.619,319.619,0,0,0,50.193,22.488A341.116,341.116,0,0,0,237.845,484.4a358.721,358.721,0,0,0,59.572,4.957H1529.942V2Z" transform="translate(2.939 2.251)" fill="#41c0f0"/><path d="M1465.345,381.549H241.479a265.338,265.338,0,0,1-44.064-3.667,252.421,252.421,0,0,1-41.049-10.518,236.621,236.621,0,0,1-37.157-16.648,216.959,216.959,0,0,1-32.386-22.057,194.9,194.9,0,0,1-26.735-26.747,173.8,173.8,0,0,1-20.2-30.718,158,158,0,0,1-12.773-33.965,151.562,151.562,0,0,1,0-72.952A157.992,157.992,0,0,1,39.89,130.312a173.792,173.792,0,0,1,20.2-30.718A194.9,194.9,0,0,1,86.823,72.847a216.946,216.946,0,0,1,32.386-22.057,236.6,236.6,0,0,1,37.157-16.648,252.421,252.421,0,0,1,41.049-10.519,265.317,265.317,0,0,1,44.064-3.667H1465.345ZM241.479,21.956a263.333,263.333,0,0,0-43.731,3.639A250.406,250.406,0,0,0,157.025,36.03a234.61,234.61,0,0,0-36.842,16.507A214.944,214.944,0,0,0,88.1,74.389a192.9,192.9,0,0,0-26.46,26.472,171.814,171.814,0,0,0-19.967,30.364,155.989,155.989,0,0,0-12.611,33.534,149.561,149.561,0,0,0,0,71.989,155.993,155.993,0,0,0,12.611,33.535,171.8,171.8,0,0,0,19.967,30.364A192.9,192.9,0,0,0,88.1,327.117a214.955,214.955,0,0,0,32.087,21.852,234.618,234.618,0,0,0,36.842,16.506,250.421,250.421,0,0,0,40.723,10.434,263.332,263.332,0,0,0,43.731,3.639H1463.345V21.956Z" transform="translate(69.535 47.176)" fill="#41c0f0"/><path d="M1362.189,299.014H197.4a192.916,192.916,0,0,1-32.118-2.681,184.016,184.016,0,0,1-29.941-7.688,172.886,172.886,0,0,1-27.119-12.166A158.775,158.775,0,0,1,84.57,260.364a142.689,142.689,0,0,1-19.535-19.537A127.14,127.14,0,0,1,50.266,218.4a115.329,115.329,0,0,1-9.344-24.8,110.446,110.446,0,0,1-3.26-26.615c0-72.8,71.658-132.029,159.737-132.029h1164.79ZM197.4,36.956a190.9,190.9,0,0,0-31.784,2.653A182.017,182.017,0,0,0,136,47.213a170.88,170.88,0,0,0-26.8,12.024A156.776,156.776,0,0,0,85.844,75.149,140.686,140.686,0,0,0,66.582,94.411a125.129,125.129,0,0,0-14.536,22.078,113.319,113.319,0,0,0-9.182,24.364,108.437,108.437,0,0,0-3.2,26.132c0,71.7,70.76,130.029,157.737,130.029h1162.79V36.956Z" transform="translate(113.615 80.943)" fill="#41c0f0"/><path d="M1407.776,216.478H153.319a121.5,121.5,0,0,1-20.227-1.688,115.914,115.914,0,0,1-18.858-4.842,108.909,108.909,0,0,1-17.084-7.664,100.044,100.044,0,0,1-14.9-10.155,89.949,89.949,0,0,1-12.316-12.316,80.195,80.195,0,0,1-9.315-14.149,72.781,72.781,0,0,1-5.9-15.647,69.718,69.718,0,0,1-2.058-16.8c0-45.91,45.154-83.261,100.657-83.261H1407.776ZM153.319,51.956a119.478,119.478,0,0,0-19.893,1.66,113.9,113.9,0,0,0-18.532,4.758A106.925,106.925,0,0,0,98.125,65.9,98.057,98.057,0,0,0,83.52,75.849,87.943,87.943,0,0,0,71.478,87.89,78.187,78.187,0,0,0,62.4,101.685,70.772,70.772,0,0,0,56.661,116.9a67.712,67.712,0,0,0-2,16.316c0,44.807,44.257,81.261,98.657,81.261H1405.776V51.956Z" transform="translate(157.696 114.711)" fill="#41c0f0"/><path d="M1399.924,133.943H109.238c-22.925,0-41.576-15.474-41.576-34.494s18.651-34.493,41.576-34.493H1399.924ZM109.238,66.956a46.674,46.674,0,0,0-15.45,2.58A40.872,40.872,0,0,0,81.2,76.549a32.916,32.916,0,0,0-8.451,10.333,27.155,27.155,0,0,0,0,25.135A32.916,32.916,0,0,0,81.2,122.35a40.872,40.872,0,0,0,12.593,7.013,46.675,46.675,0,0,0,15.45,2.58H1397.924V66.956Z" transform="translate(201.776 148.478)" fill="#41c0f0"/></g></g><g transform="translate(-246.106 70.602)"><g transform="translate(0 0)" clip-path="url(#e)"><path d="M576.465,67.28,544.42,41.786c-12.616-10.037-32.377-10.037-44.987,0-23.319,18.555-59.81,18.55-83.106.015-12.627-10.047-32.389-10.047-45-.01-23.319,18.55-59.816,18.545-83.106.01-12.616-10.047-32.383-10.047-45-.01-23.307,18.545-59.81,18.545-83.1,0-12.616-10.042-32.383-10.042-45,0-23.3,18.54-59.793,18.545-83.094,0L0,16.312,19.045,0,51.078,25.489c12.61,10.042,32.377,10.037,44.992,0,23.3-18.545,59.8-18.54,83.094,0,12.616,10.037,32.383,10.042,45,0,23.3-18.545,59.8-18.545,83.094,0,12.622,10.047,32.389,10.047,45,.01,23.307-18.55,59.8-18.55,83.1-.015,12.627,10.052,32.389,10.052,45,.015,23.313-18.55,59.81-18.55,83.1-.015L595.51,50.973Z" transform="translate(0 -0.002)" fill="#fff"/></g></g><g transform="translate(-246.106 124.393)"><g transform="translate(0 0)" clip-path="url(#e)"><path d="M576.465,67.28,544.42,41.786c-12.616-10.037-32.377-10.037-44.987,0-23.319,18.555-59.81,18.55-83.106.015-12.627-10.047-32.389-10.047-45-.01-23.319,18.55-59.816,18.545-83.106.01-12.616-10.047-32.383-10.047-45-.01-23.307,18.545-59.81,18.545-83.1,0-12.616-10.042-32.383-10.042-45,0-23.3,18.54-59.793,18.545-83.094,0L0,16.312,19.045,0,51.078,25.489c12.61,10.042,32.377,10.037,44.992,0,23.3-18.545,59.8-18.54,83.094,0,12.616,10.037,32.383,10.042,45,0,23.3-18.545,59.8-18.545,83.094,0,12.622,10.047,32.389,10.047,45,.01,23.307-18.55,59.8-18.55,83.1-.015,12.627,10.052,32.389,10.052,45,.015,23.313-18.55,59.81-18.55,83.1-.015L595.51,50.973Z" transform="translate(0 -0.002)" fill="#fff"/></g></g></g><circle cx="77" cy="77" r="77" transform="translate(702 2360.245)" fill="#eaf8fd"/><g transform="translate(-4.051 27.245)"><g transform="translate(-59 14)"><circle cx="54" cy="54" r="54" transform="translate(623.051 2260)" fill="url(#g)"/><circle cx="48" cy="48" r="48" transform="translate(629.051 2266)" fill="#fff"/><path d="M10.375,11.211A4.025,4.025,0,0,1,9.02,14.1,4.76,4.76,0,0,1,5.8,15.156a4.28,4.28,0,0,1-3.441-1.473A6.038,6.038,0,0,1,1.1,9.641v-.7A6.819,6.819,0,0,1,1.68,6.055,4.332,4.332,0,0,1,3.332,4.137a4.629,4.629,0,0,1,2.5-.668A4.637,4.637,0,0,1,9,4.523a4.326,4.326,0,0,1,1.391,2.961H8.047a2.376,2.376,0,0,0-.613-1.6,2.271,2.271,0,0,0-1.605-.5,1.991,1.991,0,0,0-1.754.84,4.707,4.707,0,0,0-.6,2.605V9.7a5.038,5.038,0,0,0,.559,2.7,1.954,1.954,0,0,0,1.762.852,2.314,2.314,0,0,0,1.621-.5,2.241,2.241,0,0,0,.613-1.535ZM16.664,15a2.507,2.507,0,0,1-.227-.758,2.732,2.732,0,0,1-2.133.914,3,3,0,0,1-2.059-.719,2.312,2.312,0,0,1-.816-1.812,2.389,2.389,0,0,1,1-2.062A4.915,4.915,0,0,1,15.3,9.836h1.039V9.352a1.393,1.393,0,0,0-.3-.937,1.183,1.183,0,0,0-.949-.352,1.345,1.345,0,0,0-.895.273.929.929,0,0,0-.324.75H11.617a2.268,2.268,0,0,1,.453-1.359,3,3,0,0,1,1.281-.98,4.669,4.669,0,0,1,1.859-.355,3.689,3.689,0,0,1,2.48.785,2.747,2.747,0,0,1,.918,2.207v3.664a4.041,4.041,0,0,0,.336,1.82V15ZM14.8,13.43a1.945,1.945,0,0,0,.922-.223,1.462,1.462,0,0,0,.625-.6V11.156H15.5q-1.7,0-1.8,1.172l-.008.133a.9.9,0,0,0,.3.7A1.153,1.153,0,0,0,14.8,13.43ZM22.727,15H20.461V3h2.266Zm4.242,0H24.7V6.547h2.266ZM24.57,4.359a1.112,1.112,0,0,1,.34-.836,1.465,1.465,0,0,1,1.848,0,1.105,1.105,0,0,1,.344.836,1.108,1.108,0,0,1-.348.844,1.448,1.448,0,0,1-1.836,0A1.108,1.108,0,0,1,24.57,4.359Zm3.906,6.352a5.094,5.094,0,0,1,.887-3.148,2.877,2.877,0,0,1,2.426-1.172,2.589,2.589,0,0,1,2.039.922V3h2.266V15H34.055l-.109-.9a2.657,2.657,0,0,1-2.172,1.055,2.869,2.869,0,0,1-2.395-1.176A5.258,5.258,0,0,1,28.477,10.711Zm2.258.164a3.328,3.328,0,0,0,.414,1.82,1.349,1.349,0,0,0,1.2.633,1.511,1.511,0,0,0,1.477-.883V9.109a1.489,1.489,0,0,0-1.461-.883Q30.734,8.227,30.734,10.875ZM42.742,15a2.507,2.507,0,0,1-.227-.758,2.732,2.732,0,0,1-2.133.914,3,3,0,0,1-2.059-.719,2.312,2.312,0,0,1-.816-1.812,2.389,2.389,0,0,1,1-2.062,4.915,4.915,0,0,1,2.879-.727h1.039V9.352a1.393,1.393,0,0,0-.3-.937,1.183,1.183,0,0,0-.949-.352,1.345,1.345,0,0,0-.895.273.929.929,0,0,0-.324.75H37.7a2.268,2.268,0,0,1,.453-1.359,3,3,0,0,1,1.281-.98,4.669,4.669,0,0,1,1.859-.355,3.689,3.689,0,0,1,2.48.785,2.747,2.747,0,0,1,.918,2.207v3.664a4.041,4.041,0,0,0,.336,1.82V15Zm-1.867-1.57a1.945,1.945,0,0,0,.922-.223,1.462,1.462,0,0,0,.625-.6V11.156h-.844q-1.7,0-1.8,1.172l-.008.133a.9.9,0,0,0,.3.7A1.153,1.153,0,0,0,40.875,13.43Zm5.2-2.719a5.094,5.094,0,0,1,.887-3.148,2.877,2.877,0,0,1,2.426-1.172,2.589,2.589,0,0,1,2.039.922V3h2.266V15H51.648l-.109-.9a2.657,2.657,0,0,1-2.172,1.055,2.869,2.869,0,0,1-2.395-1.176A5.258,5.258,0,0,1,46.07,10.711Zm2.258.164a3.328,3.328,0,0,0,.414,1.82,1.349,1.349,0,0,0,1.2.633,1.511,1.511,0,0,0,1.477-.883V9.109a1.489,1.489,0,0,0-1.461-.883Q48.328,8.227,48.328,10.875ZM5.434,33H3.168V24.547H5.434Zm-2.4-10.641a1.112,1.112,0,0,1,.34-.836A1.277,1.277,0,0,1,4.3,21.2a1.28,1.28,0,0,1,.922.328,1.193,1.193,0,0,1,0,1.68,1.283,1.283,0,0,1-.918.328,1.283,1.283,0,0,1-.918-.328A1.108,1.108,0,0,1,3.035,22.359Zm6.336,2.188.07.977a2.951,2.951,0,0,1,2.43-1.133,2.453,2.453,0,0,1,2,.789,3.682,3.682,0,0,1,.672,2.359V33H12.285V27.594a1.465,1.465,0,0,0-.312-1.043,1.4,1.4,0,0,0-1.039-.324,1.553,1.553,0,0,0-1.43.813V33H7.246V24.547Zm9.586-2.078v2.078H20.4V26.2H18.957v4.219a1.007,1.007,0,0,0,.18.672.9.9,0,0,0,.688.2,3.6,3.6,0,0,0,.664-.055v1.711a4.648,4.648,0,0,1-1.367.2,2.156,2.156,0,0,1-2.422-2.4V26.2H15.465V24.547H16.7V22.469Zm6.594,10.688a4.15,4.15,0,0,1-3.027-1.141,4.054,4.054,0,0,1-1.168-3.039v-.219a5.106,5.106,0,0,1,.492-2.277,3.612,3.612,0,0,1,1.395-1.547,3.914,3.914,0,0,1,2.059-.543,3.508,3.508,0,0,1,2.73,1.094,4.444,4.444,0,0,1,1,3.1v.922H23.645a2.1,2.1,0,0,0,.66,1.328,2,2,0,0,0,1.395.5,2.437,2.437,0,0,0,2.039-.945l1.109,1.242a3.389,3.389,0,0,1-1.375,1.121A4.511,4.511,0,0,1,25.551,33.156Zm-.258-6.937a1.414,1.414,0,0,0-1.09.453,2.341,2.341,0,0,0-.535,1.3h3.141v-.18a1.669,1.669,0,0,0-.406-1.16A1.459,1.459,0,0,0,25.293,26.219Zm9.766.445a6.134,6.134,0,0,0-.812-.062,1.654,1.654,0,0,0-1.68.867V33H30.309V24.547h2.133l.063,1.008a2.092,2.092,0,0,1,1.883-1.164,2.366,2.366,0,0,1,.7.1Zm3.164-2.117.07.977a2.951,2.951,0,0,1,2.43-1.133,2.453,2.453,0,0,1,2,.789,3.682,3.682,0,0,1,.672,2.359V33H41.137V27.594a1.465,1.465,0,0,0-.312-1.043,1.4,1.4,0,0,0-1.039-.324,1.553,1.553,0,0,0-1.43.813V33H36.1V24.547ZM50,33a2.507,2.507,0,0,1-.227-.758,2.732,2.732,0,0,1-2.133.914,3,3,0,0,1-2.059-.719,2.312,2.312,0,0,1-.816-1.812,2.389,2.389,0,0,1,1-2.062,4.915,4.915,0,0,1,2.879-.727h1.039v-.484a1.393,1.393,0,0,0-.3-.937,1.183,1.183,0,0,0-.949-.352,1.345,1.345,0,0,0-.895.273.929.929,0,0,0-.324.75H44.957a2.268,2.268,0,0,1,.453-1.359,3,3,0,0,1,1.281-.98,4.669,4.669,0,0,1,1.859-.355,3.689,3.689,0,0,1,2.48.785,2.747,2.747,0,0,1,.918,2.207v3.664a4.041,4.041,0,0,0,.336,1.82V33Zm-1.867-1.57a1.945,1.945,0,0,0,.922-.223,1.462,1.462,0,0,0,.625-.6V29.156H48.84q-1.7,0-1.8,1.172l-.008.133a.9.9,0,0,0,.3.7A1.153,1.153,0,0,0,48.137,31.43Z" transform="translate(650.051 2297)" fill="#12263f"/></g></g><g transform="translate(145.949 45.245)"><circle cx="54" cy="54" r="54" transform="translate(580.051 2519)" fill="url(#h)"/><circle cx="48" cy="48" r="48" transform="translate(586.051 2525)" fill="#fff"/><path d="M13.5,11.211A4.025,4.025,0,0,1,12.145,14.1a4.76,4.76,0,0,1-3.223,1.055A4.28,4.28,0,0,1,5.48,13.684,6.038,6.038,0,0,1,4.227,9.641v-.7A6.819,6.819,0,0,1,4.8,6.055,4.332,4.332,0,0,1,6.457,4.137a4.629,4.629,0,0,1,2.5-.668,4.637,4.637,0,0,1,3.172,1.055,4.326,4.326,0,0,1,1.391,2.961H11.172a2.376,2.376,0,0,0-.613-1.6,2.271,2.271,0,0,0-1.605-.5A1.991,1.991,0,0,0,7.2,6.23a4.707,4.707,0,0,0-.6,2.605V9.7a5.038,5.038,0,0,0,.559,2.7,1.954,1.954,0,0,0,1.762.852,2.314,2.314,0,0,0,1.621-.5,2.241,2.241,0,0,0,.613-1.535Zm1.039-.516a5.013,5.013,0,0,1,.484-2.242A3.546,3.546,0,0,1,16.418,6.93a4.069,4.069,0,0,1,2.113-.539,3.849,3.849,0,0,1,2.793,1.047,4.2,4.2,0,0,1,1.207,2.844l.016.578a4.418,4.418,0,0,1-1.086,3.121,3.775,3.775,0,0,1-2.914,1.176,3.793,3.793,0,0,1-2.918-1.172,4.5,4.5,0,0,1-1.09-3.187Zm2.258.164a3.151,3.151,0,0,0,.453,1.84,1.629,1.629,0,0,0,2.578.008,3.448,3.448,0,0,0,.461-2.012,3.12,3.12,0,0,0-.461-1.828,1.5,1.5,0,0,0-1.3-.648,1.475,1.475,0,0,0-1.281.645A3.506,3.506,0,0,0,16.8,10.859Zm9.219-4.312.07.977a2.951,2.951,0,0,1,2.43-1.133,2.453,2.453,0,0,1,2,.789,3.682,3.682,0,0,1,.672,2.359V15H28.93V9.594a1.465,1.465,0,0,0-.312-1.043,1.4,1.4,0,0,0-1.039-.324,1.553,1.553,0,0,0-1.43.813V15H23.891V6.547ZM35.6,4.469V6.547h1.445V8.2H35.6v4.219a1.007,1.007,0,0,0,.18.672.9.9,0,0,0,.688.2,3.6,3.6,0,0,0,.664-.055v1.711a4.648,4.648,0,0,1-1.367.2,2.156,2.156,0,0,1-2.422-2.4V8.2H32.109V6.547h1.234V4.469ZM42.2,15.156a4.15,4.15,0,0,1-3.027-1.141A4.054,4.054,0,0,1,38,10.977v-.219a5.106,5.106,0,0,1,.492-2.277,3.612,3.612,0,0,1,1.395-1.547,3.914,3.914,0,0,1,2.059-.543,3.508,3.508,0,0,1,2.73,1.094,4.444,4.444,0,0,1,1,3.1v.922H40.289a2.1,2.1,0,0,0,.66,1.328,2,2,0,0,0,1.395.5,2.437,2.437,0,0,0,2.039-.945l1.109,1.242a3.389,3.389,0,0,1-1.375,1.121A4.511,4.511,0,0,1,42.2,15.156Zm-.258-6.937a1.414,1.414,0,0,0-1.09.453,2.341,2.341,0,0,0-.535,1.3h3.141v-.18a1.669,1.669,0,0,0-.406-1.16A1.459,1.459,0,0,0,41.938,8.219Zm8.234.852,1.422-2.523h2.414L51.6,10.688,54.109,15H51.688L50.18,12.344,48.68,15H46.25l2.508-4.312-2.4-4.141h2.422Zm7.625-4.6V6.547h1.445V8.2H57.8v4.219a1.007,1.007,0,0,0,.18.672.9.9,0,0,0,.688.2,3.6,3.6,0,0,0,.664-.055v1.711a4.648,4.648,0,0,1-1.367.2,2.156,2.156,0,0,1-2.422-2.4V8.2H54.3V6.547h1.234V4.469ZM59.914,10.7A5.013,5.013,0,0,1,60.4,8.453,3.546,3.546,0,0,1,61.793,6.93a4.069,4.069,0,0,1,2.113-.539A3.849,3.849,0,0,1,66.7,7.438a4.2,4.2,0,0,1,1.207,2.844l.016.578a4.418,4.418,0,0,1-1.086,3.121,4.209,4.209,0,0,1-5.832,0,4.5,4.5,0,0,1-1.09-3.187Zm2.258.164a3.151,3.151,0,0,0,.453,1.84,1.629,1.629,0,0,0,2.578.008,3.448,3.448,0,0,0,.461-2.012A3.12,3.12,0,0,0,65.2,8.867a1.5,1.5,0,0,0-1.3-.648,1.475,1.475,0,0,0-1.281.645A3.506,3.506,0,0,0,62.172,10.859ZM12.578,28.711a5.094,5.094,0,0,1,.887-3.148,2.877,2.877,0,0,1,2.426-1.172,2.589,2.589,0,0,1,2.039.922V21H20.2V33H18.156l-.109-.9a2.657,2.657,0,0,1-2.172,1.055A2.869,2.869,0,0,1,13.48,31.98,5.258,5.258,0,0,1,12.578,28.711Zm2.258.164a3.328,3.328,0,0,0,.414,1.82,1.349,1.349,0,0,0,1.2.633,1.511,1.511,0,0,0,1.477-.883V27.109a1.489,1.489,0,0,0-1.461-.883Q14.836,26.227,14.836,28.875Zm11,4.281a4.15,4.15,0,0,1-3.027-1.141,4.054,4.054,0,0,1-1.168-3.039v-.219a5.106,5.106,0,0,1,.492-2.277,3.612,3.612,0,0,1,1.395-1.547,3.914,3.914,0,0,1,2.059-.543,3.508,3.508,0,0,1,2.73,1.094,4.444,4.444,0,0,1,1,3.1v.922H23.93a2.1,2.1,0,0,0,.66,1.328,2,2,0,0,0,1.395.5,2.437,2.437,0,0,0,2.039-.945l1.109,1.242a3.389,3.389,0,0,1-1.375,1.121A4.511,4.511,0,0,1,25.836,33.156Zm-.258-6.937a1.414,1.414,0,0,0-1.09.453,2.341,2.341,0,0,0-.535,1.3h3.141v-.18a1.669,1.669,0,0,0-.406-1.16A1.459,1.459,0,0,0,25.578,26.219Zm14.063,5.922a2.831,2.831,0,0,1-2.312,1.016,2.67,2.67,0,0,1-2.074-.781,3.335,3.335,0,0,1-.73-2.289V24.547h2.258v5.461q0,1.32,1.2,1.32a1.631,1.631,0,0,0,1.578-.8V24.547h2.266V33H39.7Zm8.469-1.477a.727.727,0,0,0-.41-.652,4.659,4.659,0,0,0-1.316-.426q-3.016-.633-3.016-2.562a2.323,2.323,0,0,1,.934-1.879,3.766,3.766,0,0,1,2.441-.754,4.053,4.053,0,0,1,2.574.758,2.388,2.388,0,0,1,.965,1.969H48.023a1.092,1.092,0,0,0-.312-.8A1.322,1.322,0,0,0,46.734,26a1.351,1.351,0,0,0-.883.258.814.814,0,0,0-.312.656.7.7,0,0,0,.355.605,3.657,3.657,0,0,0,1.2.4,9.8,9.8,0,0,1,1.422.379A2.336,2.336,0,0,1,50.3,30.57a2.2,2.2,0,0,1-.992,1.871,4.28,4.28,0,0,1-2.562.715,4.47,4.47,0,0,1-1.887-.379,3.166,3.166,0,0,1-1.293-1.039,2.414,2.414,0,0,1-.469-1.426h2.141a1.179,1.179,0,0,0,.445.922,1.766,1.766,0,0,0,1.109.32,1.635,1.635,0,0,0,.98-.246A.766.766,0,0,0,48.109,30.664Zm3.3-1.969a5.013,5.013,0,0,1,.484-2.242,3.546,3.546,0,0,1,1.395-1.523,4.069,4.069,0,0,1,2.113-.539,3.849,3.849,0,0,1,2.793,1.047A4.2,4.2,0,0,1,59.4,28.281l.016.578a4.418,4.418,0,0,1-1.086,3.121,4.209,4.209,0,0,1-5.832,0,4.5,4.5,0,0,1-1.09-3.187Zm2.258.164a3.151,3.151,0,0,0,.453,1.84,1.629,1.629,0,0,0,2.578.008,3.448,3.448,0,0,0,.461-2.012,3.12,3.12,0,0,0-.461-1.828,1.5,1.5,0,0,0-1.3-.648,1.475,1.475,0,0,0-1.281.645A3.506,3.506,0,0,0,53.664,28.859Z" transform="translate(597.051 2558)" fill="#12263f"/></g><g transform="translate(43.949 35.245)"><g transform="translate(-9 -79)"><circle cx="54" cy="54" r="54" transform="translate(856.051 2350)" fill="url(#i)"/><circle cx="48" cy="48" r="48" transform="translate(862.051 2356)" fill="#fff"/><path d="M10.375,11.211A4.025,4.025,0,0,1,9.02,14.1,4.76,4.76,0,0,1,5.8,15.156a4.28,4.28,0,0,1-3.441-1.473A6.038,6.038,0,0,1,1.1,9.641v-.7A6.819,6.819,0,0,1,1.68,6.055,4.332,4.332,0,0,1,3.332,4.137a4.629,4.629,0,0,1,2.5-.668A4.637,4.637,0,0,1,9,4.523a4.326,4.326,0,0,1,1.391,2.961H8.047a2.376,2.376,0,0,0-.613-1.6,2.271,2.271,0,0,0-1.605-.5,1.991,1.991,0,0,0-1.754.84,4.707,4.707,0,0,0-.6,2.605V9.7a5.038,5.038,0,0,0,.559,2.7,1.954,1.954,0,0,0,1.762.852,2.314,2.314,0,0,0,1.621-.5,2.241,2.241,0,0,0,.613-1.535ZM16.664,15a2.507,2.507,0,0,1-.227-.758,2.732,2.732,0,0,1-2.133.914,3,3,0,0,1-2.059-.719,2.312,2.312,0,0,1-.816-1.812,2.389,2.389,0,0,1,1-2.062A4.915,4.915,0,0,1,15.3,9.836h1.039V9.352a1.393,1.393,0,0,0-.3-.937,1.183,1.183,0,0,0-.949-.352,1.345,1.345,0,0,0-.895.273.929.929,0,0,0-.324.75H11.617a2.268,2.268,0,0,1,.453-1.359,3,3,0,0,1,1.281-.98,4.669,4.669,0,0,1,1.859-.355,3.689,3.689,0,0,1,2.48.785,2.747,2.747,0,0,1,.918,2.207v3.664a4.041,4.041,0,0,0,.336,1.82V15ZM14.8,13.43a1.945,1.945,0,0,0,.922-.223,1.462,1.462,0,0,0,.625-.6V11.156H15.5q-1.7,0-1.8,1.172l-.008.133a.9.9,0,0,0,.3.7A1.153,1.153,0,0,0,14.8,13.43ZM22.727,15H20.461V3h2.266Zm4.242,0H24.7V6.547h2.266ZM24.57,4.359a1.112,1.112,0,0,1,.34-.836,1.465,1.465,0,0,1,1.848,0,1.105,1.105,0,0,1,.344.836,1.108,1.108,0,0,1-.348.844,1.448,1.448,0,0,1-1.836,0A1.108,1.108,0,0,1,24.57,4.359Zm3.906,6.352a5.094,5.094,0,0,1,.887-3.148,2.877,2.877,0,0,1,2.426-1.172,2.589,2.589,0,0,1,2.039.922V3h2.266V15H34.055l-.109-.9a2.657,2.657,0,0,1-2.172,1.055,2.869,2.869,0,0,1-2.395-1.176A5.258,5.258,0,0,1,28.477,10.711Zm2.258.164a3.328,3.328,0,0,0,.414,1.82,1.349,1.349,0,0,0,1.2.633,1.511,1.511,0,0,0,1.477-.883V9.109a1.489,1.489,0,0,0-1.461-.883Q30.734,8.227,30.734,10.875ZM42.742,15a2.507,2.507,0,0,1-.227-.758,2.732,2.732,0,0,1-2.133.914,3,3,0,0,1-2.059-.719,2.312,2.312,0,0,1-.816-1.812,2.389,2.389,0,0,1,1-2.062,4.915,4.915,0,0,1,2.879-.727h1.039V9.352a1.393,1.393,0,0,0-.3-.937,1.183,1.183,0,0,0-.949-.352,1.345,1.345,0,0,0-.895.273.929.929,0,0,0-.324.75H37.7a2.268,2.268,0,0,1,.453-1.359,3,3,0,0,1,1.281-.98,4.669,4.669,0,0,1,1.859-.355,3.689,3.689,0,0,1,2.48.785,2.747,2.747,0,0,1,.918,2.207v3.664a4.041,4.041,0,0,0,.336,1.82V15Zm-1.867-1.57a1.945,1.945,0,0,0,.922-.223,1.462,1.462,0,0,0,.625-.6V11.156h-.844q-1.7,0-1.8,1.172l-.008.133a.9.9,0,0,0,.3.7A1.153,1.153,0,0,0,40.875,13.43Zm5.2-2.719a5.094,5.094,0,0,1,.887-3.148,2.877,2.877,0,0,1,2.426-1.172,2.589,2.589,0,0,1,2.039.922V3h2.266V15H51.648l-.109-.9a2.657,2.657,0,0,1-2.172,1.055,2.869,2.869,0,0,1-2.395-1.176A5.258,5.258,0,0,1,46.07,10.711Zm2.258.164a3.328,3.328,0,0,0,.414,1.82,1.349,1.349,0,0,0,1.2.633,1.511,1.511,0,0,0,1.477-.883V9.109a1.489,1.489,0,0,0-1.461-.883Q48.328,8.227,48.328,10.875ZM5.148,33.156a4.15,4.15,0,0,1-3.027-1.141A4.054,4.054,0,0,1,.953,28.977v-.219a5.106,5.106,0,0,1,.492-2.277A3.612,3.612,0,0,1,2.84,24.934,3.914,3.914,0,0,1,4.9,24.391a3.508,3.508,0,0,1,2.73,1.094,4.444,4.444,0,0,1,1,3.1v.922H3.242a2.1,2.1,0,0,0,.66,1.328,2,2,0,0,0,1.395.5,2.437,2.437,0,0,0,2.039-.945l1.109,1.242A3.389,3.389,0,0,1,7.07,32.754,4.511,4.511,0,0,1,5.148,33.156Zm-.258-6.937a1.414,1.414,0,0,0-1.09.453,2.341,2.341,0,0,0-.535,1.3H6.406v-.18A1.669,1.669,0,0,0,6,26.629,1.459,1.459,0,0,0,4.891,26.219Zm8.234.852,1.422-2.523h2.414l-2.406,4.141L17.063,33H14.641l-1.508-2.656L11.633,33H9.2l2.508-4.312-2.4-4.141h2.422Zm7.625-4.6v2.078H22.2V26.2H20.75v4.219a1.007,1.007,0,0,0,.18.672.9.9,0,0,0,.688.2,3.6,3.6,0,0,0,.664-.055v1.711a4.648,4.648,0,0,1-1.367.2,2.156,2.156,0,0,1-2.422-2.4V26.2H17.258V24.547h1.234V22.469Zm6.594,10.688a4.15,4.15,0,0,1-3.027-1.141,4.054,4.054,0,0,1-1.168-3.039v-.219a5.106,5.106,0,0,1,.492-2.277,3.612,3.612,0,0,1,1.395-1.547,3.914,3.914,0,0,1,2.059-.543,3.508,3.508,0,0,1,2.73,1.094,4.444,4.444,0,0,1,1,3.1v.922H25.438a2.1,2.1,0,0,0,.66,1.328,2,2,0,0,0,1.395.5,2.437,2.437,0,0,0,2.039-.945l1.109,1.242a3.389,3.389,0,0,1-1.375,1.121A4.511,4.511,0,0,1,27.344,33.156Zm-.258-6.937a1.414,1.414,0,0,0-1.09.453,2.341,2.341,0,0,0-.535,1.3H28.6v-.18a1.669,1.669,0,0,0-.406-1.16A1.459,1.459,0,0,0,27.086,26.219Zm9.766.445a6.134,6.134,0,0,0-.812-.062,1.654,1.654,0,0,0-1.68.867V33H32.1V24.547h2.133l.063,1.008a2.092,2.092,0,0,1,1.883-1.164,2.366,2.366,0,0,1,.7.1Zm3.164-2.117.07.977a2.951,2.951,0,0,1,2.43-1.133,2.453,2.453,0,0,1,2,.789,3.682,3.682,0,0,1,.672,2.359V33H42.93V27.594a1.465,1.465,0,0,0-.312-1.043,1.4,1.4,0,0,0-1.039-.324,1.553,1.553,0,0,0-1.43.813V33H37.891V24.547ZM51.8,33a2.507,2.507,0,0,1-.227-.758,2.732,2.732,0,0,1-2.133.914,3,3,0,0,1-2.059-.719,2.312,2.312,0,0,1-.816-1.812,2.389,2.389,0,0,1,1-2.062,4.915,4.915,0,0,1,2.879-.727h1.039v-.484a1.393,1.393,0,0,0-.3-.937,1.183,1.183,0,0,0-.949-.352,1.345,1.345,0,0,0-.895.273.929.929,0,0,0-.324.75H46.75a2.268,2.268,0,0,1,.453-1.359,3,3,0,0,1,1.281-.98,4.669,4.669,0,0,1,1.859-.355,3.689,3.689,0,0,1,2.48.785,2.747,2.747,0,0,1,.918,2.207v3.664a4.041,4.041,0,0,0,.336,1.82V33ZM49.93,31.43a1.945,1.945,0,0,0,.922-.223,1.462,1.462,0,0,0,.625-.6V29.156h-.844q-1.7,0-1.8,1.172l-.008.133a.9.9,0,0,0,.3.7A1.153,1.153,0,0,0,49.93,31.43Z" transform="translate(885.051 2386)" fill="#12263f"/></g></g><path d="M26.309,10.992V15H23.965V3.625H28.4a5.134,5.134,0,0,1,2.254.469,3.454,3.454,0,0,1,1.5,1.332,3.714,3.714,0,0,1,.523,1.965,3.266,3.266,0,0,1-1.145,2.637,4.767,4.767,0,0,1-3.168.965Zm0-1.9H28.4a2.059,2.059,0,0,0,1.418-.437,1.591,1.591,0,0,0,.488-1.25,1.876,1.876,0,0,0-.492-1.352,1.839,1.839,0,0,0-1.359-.531H26.309Zm12.578-.43a6.134,6.134,0,0,0-.812-.062,1.654,1.654,0,0,0-1.68.867V15H34.137V6.547H36.27l.063,1.008a2.092,2.092,0,0,1,1.883-1.164,2.366,2.366,0,0,1,.7.1ZM39.34,10.7a5.013,5.013,0,0,1,.484-2.242A3.546,3.546,0,0,1,41.219,6.93a4.069,4.069,0,0,1,2.113-.539,3.849,3.849,0,0,1,2.793,1.047,4.2,4.2,0,0,1,1.207,2.844l.016.578a4.418,4.418,0,0,1-1.086,3.121,4.209,4.209,0,0,1-5.832,0A4.5,4.5,0,0,1,39.34,10.8Zm2.258.164a3.151,3.151,0,0,0,.453,1.84,1.629,1.629,0,0,0,2.578.008A3.448,3.448,0,0,0,45.09,10.7a3.12,3.12,0,0,0-.461-1.828,1.5,1.5,0,0,0-1.3-.648,1.475,1.475,0,0,0-1.281.645A3.506,3.506,0,0,0,41.6,10.859Zm6.789-.148a5.094,5.094,0,0,1,.887-3.148A2.877,2.877,0,0,1,51.7,6.391a2.589,2.589,0,0,1,2.039.922V3H56V15H53.965l-.109-.9a2.657,2.657,0,0,1-2.172,1.055,2.869,2.869,0,0,1-2.395-1.176A5.258,5.258,0,0,1,48.387,10.711Zm2.258.164a3.328,3.328,0,0,0,.414,1.82,1.349,1.349,0,0,0,1.2.633,1.511,1.511,0,0,0,1.477-.883V9.109a1.489,1.489,0,0,0-1.461-.883Q50.645,8.227,50.645,10.875Zm12.172,3.266A2.831,2.831,0,0,1,60.5,15.156a2.67,2.67,0,0,1-2.074-.781,3.335,3.335,0,0,1-.73-2.289V6.547h2.258v5.461q0,1.32,1.2,1.32a1.631,1.631,0,0,0,1.578-.8V6.547H65V15H62.879Zm7.406-.8a1.481,1.481,0,0,0,1.016-.344,1.2,1.2,0,0,0,.406-.914h2.117a2.9,2.9,0,0,1-.469,1.574,3.093,3.093,0,0,1-1.262,1.109,3.949,3.949,0,0,1-1.77.395A3.67,3.67,0,0,1,67.4,14a4.56,4.56,0,0,1-1.047-3.184v-.148a4.508,4.508,0,0,1,1.039-3.117,3.627,3.627,0,0,1,2.852-1.164,3.555,3.555,0,0,1,2.543.9,3.2,3.2,0,0,1,.973,2.4H71.645a1.539,1.539,0,0,0-.406-1.066,1.513,1.513,0,0,0-2.223.164,3.324,3.324,0,0,0-.4,1.863v.234a3.366,3.366,0,0,0,.4,1.875A1.378,1.378,0,0,0,70.223,13.336Zm7.531-8.867V6.547H79.2V8.2H77.754v4.219a1.007,1.007,0,0,0,.18.672.9.9,0,0,0,.688.2,3.6,3.6,0,0,0,.664-.055v1.711a4.648,4.648,0,0,1-1.367.2,2.156,2.156,0,0,1-2.422-2.4V8.2H74.262V6.547H75.5V4.469ZM79.871,10.7a5.013,5.013,0,0,1,.484-2.242A3.546,3.546,0,0,1,81.75,6.93a4.069,4.069,0,0,1,2.113-.539,3.849,3.849,0,0,1,2.793,1.047,4.2,4.2,0,0,1,1.207,2.844l.016.578a4.418,4.418,0,0,1-1.086,3.121,4.209,4.209,0,0,1-5.832,0,4.5,4.5,0,0,1-1.09-3.187Zm2.258.164a3.151,3.151,0,0,0,.453,1.84,1.629,1.629,0,0,0,2.578.008,3.448,3.448,0,0,0,.461-2.012,3.12,3.12,0,0,0-.461-1.828,1.5,1.5,0,0,0-1.3-.648,1.475,1.475,0,0,0-1.281.645A3.506,3.506,0,0,0,82.129,10.859ZM92.9,10.711a5.094,5.094,0,0,1,.887-3.148,2.877,2.877,0,0,1,2.426-1.172,2.589,2.589,0,0,1,2.039.922V3h2.266V15H98.48l-.109-.9A2.657,2.657,0,0,1,96.2,15.156,2.869,2.869,0,0,1,93.8,13.98,5.258,5.258,0,0,1,92.9,10.711Zm2.258.164a3.328,3.328,0,0,0,.414,1.82,1.349,1.349,0,0,0,1.2.633,1.511,1.511,0,0,0,1.477-.883V9.109a1.489,1.489,0,0,0-1.461-.883Q95.16,8.227,95.16,10.875Zm11,4.281a4.15,4.15,0,0,1-3.027-1.141,4.054,4.054,0,0,1-1.168-3.039v-.219a5.106,5.106,0,0,1,.492-2.277,3.612,3.612,0,0,1,1.395-1.547,3.914,3.914,0,0,1,2.059-.543,3.508,3.508,0,0,1,2.73,1.094,4.444,4.444,0,0,1,1,3.1v.922h-5.383a2.1,2.1,0,0,0,.66,1.328,2,2,0,0,0,1.395.5,2.437,2.437,0,0,0,2.039-.945l1.109,1.242a3.389,3.389,0,0,1-1.375,1.121A4.511,4.511,0,0,1,106.16,15.156ZM105.9,8.219a1.414,1.414,0,0,0-1.09.453,2.341,2.341,0,0,0-.535,1.3h3.141v-.18a1.669,1.669,0,0,0-.406-1.16A1.459,1.459,0,0,0,105.9,8.219Zm-64.836,21.8A1.2,1.2,0,0,0,40.6,29a6.148,6.148,0,0,0-1.687-.75,11.963,11.963,0,0,1-1.93-.777,3.153,3.153,0,0,1-1.937-2.82A2.747,2.747,0,0,1,35.563,23a3.389,3.389,0,0,1,1.492-1.129,5.616,5.616,0,0,1,2.184-.406,5.112,5.112,0,0,1,2.172.441,3.458,3.458,0,0,1,1.48,1.246,3.261,3.261,0,0,1,.527,1.828H41.074a1.534,1.534,0,0,0-.492-1.215,2.023,2.023,0,0,0-1.383-.434,2.162,2.162,0,0,0-1.336.363,1.146,1.146,0,0,0-.477.957,1.1,1.1,0,0,0,.559.93,6.311,6.311,0,0,0,1.645.7A7.106,7.106,0,0,1,42.5,27.781,2.972,2.972,0,0,1,43.418,30,2.737,2.737,0,0,1,42.3,32.316a4.891,4.891,0,0,1-3.008.84,5.808,5.808,0,0,1-2.391-.48,3.783,3.783,0,0,1-1.645-1.316,3.371,3.371,0,0,1-.566-1.937h2.352q0,1.883,2.25,1.883a2.189,2.189,0,0,0,1.3-.34A1.106,1.106,0,0,0,41.066,30.016ZM44.5,28.7a5.013,5.013,0,0,1,.484-2.242,3.546,3.546,0,0,1,1.395-1.523,4.069,4.069,0,0,1,2.113-.539,3.849,3.849,0,0,1,2.793,1.047A4.2,4.2,0,0,1,52.5,28.281l.016.578a4.418,4.418,0,0,1-1.086,3.121,4.209,4.209,0,0,1-5.832,0A4.5,4.5,0,0,1,44.5,28.8Zm2.258.164a3.151,3.151,0,0,0,.453,1.84,1.629,1.629,0,0,0,2.578.008,3.448,3.448,0,0,0,.461-2.012,3.12,3.12,0,0,0-.461-1.828,1.5,1.5,0,0,0-1.3-.648,1.475,1.475,0,0,0-1.281.645A3.506,3.506,0,0,0,46.762,28.859ZM54.52,33V26.2H53.262V24.547H54.52v-.719a2.918,2.918,0,0,1,.816-2.207,3.162,3.162,0,0,1,2.285-.785,5.278,5.278,0,0,1,1.148.156l-.023,1.75a2.878,2.878,0,0,0-.687-.07q-1.273,0-1.273,1.2v.68h1.68V26.2h-1.68V33Zm7.82-10.531v2.078h1.445V26.2H62.34v4.219a1.007,1.007,0,0,0,.18.672.9.9,0,0,0,.688.2,3.6,3.6,0,0,0,.664-.055v1.711a4.648,4.648,0,0,1-1.367.2,2.156,2.156,0,0,1-2.422-2.4V26.2H58.848V24.547h1.234V22.469ZM72.395,29.93,73.5,24.547h2.18L73.527,33H71.637l-1.6-5.32L68.434,33H66.551l-2.156-8.453h2.18l1.1,5.375,1.547-5.375h1.633ZM81.7,33a2.507,2.507,0,0,1-.227-.758,2.732,2.732,0,0,1-2.133.914,3,3,0,0,1-2.059-.719,2.312,2.312,0,0,1-.816-1.812,2.389,2.389,0,0,1,1-2.062,4.915,4.915,0,0,1,2.879-.727h1.039v-.484a1.393,1.393,0,0,0-.3-.937,1.183,1.183,0,0,0-.949-.352,1.345,1.345,0,0,0-.895.273.929.929,0,0,0-.324.75H76.652a2.268,2.268,0,0,1,.453-1.359,3,3,0,0,1,1.281-.98,4.669,4.669,0,0,1,1.859-.355,3.689,3.689,0,0,1,2.48.785,2.747,2.747,0,0,1,.918,2.207v3.664a4.041,4.041,0,0,0,.336,1.82V33Zm-1.867-1.57a1.945,1.945,0,0,0,.922-.223,1.462,1.462,0,0,0,.625-.6V29.156h-.844q-1.7,0-1.8,1.172l-.008.133a.9.9,0,0,0,.3.7A1.153,1.153,0,0,0,79.832,31.43Zm10.3-4.766a6.134,6.134,0,0,0-.812-.062,1.654,1.654,0,0,0-1.68.867V33H85.379V24.547h2.133l.063,1.008a2.092,2.092,0,0,1,1.883-1.164,2.366,2.366,0,0,1,.7.1Zm4.828,6.492a4.15,4.15,0,0,1-3.027-1.141,4.054,4.054,0,0,1-1.168-3.039v-.219a5.106,5.106,0,0,1,.492-2.277,3.612,3.612,0,0,1,1.395-1.547,3.914,3.914,0,0,1,2.059-.543,3.508,3.508,0,0,1,2.73,1.094,4.444,4.444,0,0,1,1,3.1v.922H93.051a2.1,2.1,0,0,0,.66,1.328,2,2,0,0,0,1.395.5,2.437,2.437,0,0,0,2.039-.945l1.109,1.242a3.389,3.389,0,0,1-1.375,1.121A4.511,4.511,0,0,1,94.957,33.156ZM94.7,26.219a1.414,1.414,0,0,0-1.09.453,2.341,2.341,0,0,0-.535,1.3h3.141v-.18a1.669,1.669,0,0,0-.406-1.16A1.459,1.459,0,0,0,94.7,26.219ZM27.777,48.031H23.012L21.941,51H20.395l4.344-11.375h1.313L30.4,51H28.863ZM23.465,46.8h3.867l-1.937-5.32ZM33.277,51H31.832V39h1.445Zm3.883,0H35.715V42.547H37.16ZM35.6,40.3a.863.863,0,0,1,.215-.594.807.807,0,0,1,.637-.242.819.819,0,0,1,.641.242.854.854,0,0,1,.219.594.826.826,0,0,1-.219.586.834.834,0,0,1-.641.234.821.821,0,0,1-.637-.234A.834.834,0,0,1,35.6,40.3Zm5.242,2.242.047,1.063a3.08,3.08,0,0,1,2.531-1.219q2.68,0,2.7,3.023V51H44.676V45.406a1.946,1.946,0,0,0-.418-1.352,1.675,1.675,0,0,0-1.277-.437,2.086,2.086,0,0,0-1.234.375,2.546,2.546,0,0,0-.828.984V51H39.473V42.547Zm10.969,8.609a3.693,3.693,0,0,1-2.8-1.129,4.19,4.19,0,0,1-1.078-3.02v-.266a5.073,5.073,0,0,1,.48-2.246,3.748,3.748,0,0,1,1.344-1.547,3.378,3.378,0,0,1,1.871-.559,3.166,3.166,0,0,1,2.563,1.086,4.7,4.7,0,0,1,.914,3.109v.6H49.379a3,3,0,0,0,.73,2.02,2.3,2.3,0,0,0,1.777.77,2.517,2.517,0,0,0,1.3-.312,3.258,3.258,0,0,0,.93-.828l.883.688A3.55,3.55,0,0,1,51.809,51.156Zm-.18-7.578a1.928,1.928,0,0,0-1.469.637A3.1,3.1,0,0,0,49.426,46H53.66v-.109a2.753,2.753,0,0,0-.594-1.707A1.815,1.815,0,0,0,51.629,43.578ZM62,51a3.036,3.036,0,0,1-.2-.891,3.225,3.225,0,0,1-2.406,1.047,2.984,2.984,0,0,1-2.051-.707,2.287,2.287,0,0,1-.8-1.793,2.39,2.39,0,0,1,1-2.051,4.733,4.733,0,0,1,2.824-.73H61.77v-.664A1.623,1.623,0,0,0,61.316,44a1.821,1.821,0,0,0-1.336-.449,2.107,2.107,0,0,0-1.3.391,1.151,1.151,0,0,0-.523.945H56.707a2,2,0,0,1,.449-1.223,3.066,3.066,0,0,1,1.219-.934,4.1,4.1,0,0,1,1.691-.344,3.342,3.342,0,0,1,2.289.73,2.635,2.635,0,0,1,.859,2.012v3.891a4.757,4.757,0,0,0,.3,1.852V51Zm-2.4-1.1a2.54,2.54,0,0,0,1.289-.352,2.127,2.127,0,0,0,.883-.914V46.9H60.637q-2.656,0-2.656,1.555a1.316,1.316,0,0,0,.453,1.063A1.742,1.742,0,0,0,59.6,49.9Zm5.531-3.2a4.952,4.952,0,0,1,.922-3.129,3.137,3.137,0,0,1,4.766-.168V39h1.445V51H70.934l-.07-.906a2.943,2.943,0,0,1-2.414,1.063,2.887,2.887,0,0,1-2.395-1.2,5.008,5.008,0,0,1-.926-3.141Zm1.445.164a3.749,3.749,0,0,0,.594,2.25,1.92,1.92,0,0,0,1.641.813A2.108,2.108,0,0,0,70.816,48.7V44.813a2.125,2.125,0,0,0-1.992-1.2,1.929,1.929,0,0,0-1.656.82A4.128,4.128,0,0,0,66.574,46.867Zm7.547-.172a4.993,4.993,0,0,1,.488-2.234,3.643,3.643,0,0,1,1.359-1.531,3.7,3.7,0,0,1,1.988-.539,3.565,3.565,0,0,1,2.793,1.2,4.6,4.6,0,0,1,1.066,3.18v.1a5.036,5.036,0,0,1-.473,2.215,3.589,3.589,0,0,1-1.352,1.527,3.743,3.743,0,0,1-2.02.547,3.556,3.556,0,0,1-2.785-1.2A4.575,4.575,0,0,1,74.121,46.8Zm1.453.172a3.616,3.616,0,0,0,.652,2.258,2.211,2.211,0,0,0,3.5-.012,3.955,3.955,0,0,0,.648-2.418,3.61,3.61,0,0,0-.66-2.254,2.1,2.1,0,0,0-1.754-.863,2.075,2.075,0,0,0-1.727.852A3.925,3.925,0,0,0,75.574,46.867ZM90.98,49.977a2.082,2.082,0,0,0,1.352-.469,1.649,1.649,0,0,0,.641-1.172H94.34a2.621,2.621,0,0,1-.5,1.383,3.293,3.293,0,0,1-1.23,1.047,3.55,3.55,0,0,1-1.629.391A3.482,3.482,0,0,1,88.234,50a4.59,4.59,0,0,1-1.02-3.152v-.242a5.089,5.089,0,0,1,.453-2.2,3.451,3.451,0,0,1,1.3-1.492,3.7,3.7,0,0,1,2-.531,3.39,3.39,0,0,1,2.363.852,3.043,3.043,0,0,1,1,2.211H92.973a1.992,1.992,0,0,0-.621-1.348,1.932,1.932,0,0,0-1.379-.527,2.023,2.023,0,0,0-1.707.793,3.724,3.724,0,0,0-.605,2.293v.273a3.65,3.65,0,0,0,.6,2.25A2.033,2.033,0,0,0,90.98,49.977Zm4.6-3.281a4.993,4.993,0,0,1,.488-2.234A3.643,3.643,0,0,1,97.43,42.93a3.7,3.7,0,0,1,1.988-.539,3.565,3.565,0,0,1,2.793,1.2,4.6,4.6,0,0,1,1.066,3.18v.1a5.036,5.036,0,0,1-.473,2.215,3.589,3.589,0,0,1-1.352,1.527,3.743,3.743,0,0,1-2.02.547,3.556,3.556,0,0,1-2.785-1.2A4.575,4.575,0,0,1,95.582,46.8Zm1.453.172a3.616,3.616,0,0,0,.652,2.258,2.211,2.211,0,0,0,3.5-.012,3.955,3.955,0,0,0,.648-2.418,3.61,3.61,0,0,0-.66-2.254,2.1,2.1,0,0,0-1.754-.863,2.075,2.075,0,0,0-1.727.852A3.925,3.925,0,0,0,97.035,46.867Zm9.422-4.32.047,1.063a3.08,3.08,0,0,1,2.531-1.219q2.68,0,2.7,3.023V51h-1.445V45.406a1.946,1.946,0,0,0-.418-1.352,1.675,1.675,0,0,0-1.277-.437,2.086,2.086,0,0,0-1.234.375,2.546,2.546,0,0,0-.828.984V51H105.09V42.547Zm-82.508,19.3a4.331,4.331,0,0,0-.711-.055A1.9,1.9,0,0,0,21.309,63v6H19.863V60.547H21.27l.023.977a2.251,2.251,0,0,1,2.016-1.133,1.477,1.477,0,0,1,.641.109Zm4.688,7.313a3.693,3.693,0,0,1-2.8-1.129,4.19,4.19,0,0,1-1.078-3.02v-.266a5.073,5.073,0,0,1,.48-2.246,3.748,3.748,0,0,1,1.344-1.547,3.378,3.378,0,0,1,1.871-.559,3.166,3.166,0,0,1,2.563,1.086,4.7,4.7,0,0,1,.914,3.109v.6H26.207a3,3,0,0,0,.73,2.02,2.3,2.3,0,0,0,1.777.77,2.517,2.517,0,0,0,1.3-.312,3.259,3.259,0,0,0,.93-.828l.883.688A3.55,3.55,0,0,1,28.637,69.156Zm-.18-7.578a1.928,1.928,0,0,0-1.469.637A3.1,3.1,0,0,0,26.254,64h4.234v-.109a2.753,2.753,0,0,0-.594-1.707A1.815,1.815,0,0,0,28.457,61.578Zm4.8,3.125a4.961,4.961,0,0,1,.914-3.152,3.226,3.226,0,0,1,4.82-.152l.063-.852h1.328v11.7H38.934V68.219a3.033,3.033,0,0,1-2.328.938,2.915,2.915,0,0,1-2.441-1.191,5.072,5.072,0,0,1-.91-3.16Zm1.445.164a3.761,3.761,0,0,0,.613,2.281,1.951,1.951,0,0,0,1.652.828,2.164,2.164,0,0,0,1.969-1.141V62.7a2.171,2.171,0,0,0-1.953-1.117,1.965,1.965,0,0,0-1.664.832A4.094,4.094,0,0,0,34.7,64.867Zm13.219,3.3a3.07,3.07,0,0,1-2.477.992,2.628,2.628,0,0,1-2.059-.785,3.4,3.4,0,0,1-.715-2.324v-5.5h1.445v5.461q0,1.922,1.563,1.922a2.163,2.163,0,0,0,2.2-1.234V60.547h1.445V69H47.949ZM53.09,69H51.645V60.547H53.09ZM51.527,58.3a.863.863,0,0,1,.215-.594.807.807,0,0,1,.637-.242.819.819,0,0,1,.641.242.854.854,0,0,1,.219.594.826.826,0,0,1-.219.586.834.834,0,0,1-.641.234.821.821,0,0,1-.637-.234A.834.834,0,0,1,51.527,58.3Zm8.8,8.453a1.064,1.064,0,0,0-.441-.91,4.249,4.249,0,0,0-1.539-.559,7.277,7.277,0,0,1-1.742-.562,2.479,2.479,0,0,1-.953-.781,1.869,1.869,0,0,1-.309-1.078,2.193,2.193,0,0,1,.879-1.758,3.432,3.432,0,0,1,2.246-.719,3.532,3.532,0,0,1,2.332.742,2.357,2.357,0,0,1,.895,1.9H60.238a1.3,1.3,0,0,0-.5-1.023,1.888,1.888,0,0,0-1.27-.43,1.976,1.976,0,0,0-1.234.344,1.082,1.082,0,0,0-.445.9.877.877,0,0,0,.414.789,5.1,5.1,0,0,0,1.5.508,7.8,7.8,0,0,1,1.754.578,2.558,2.558,0,0,1,1,.809,1.988,1.988,0,0,1,.324,1.152,2.163,2.163,0,0,1-.906,1.816,3.8,3.8,0,0,1-2.352.684,4.257,4.257,0,0,1-1.8-.359,2.922,2.922,0,0,1-1.223-1,2.42,2.42,0,0,1-.441-1.395H56.5a1.5,1.5,0,0,0,.582,1.152,2.258,2.258,0,0,0,1.434.426,2.331,2.331,0,0,0,1.316-.332A1.02,1.02,0,0,0,60.324,66.758ZM65.223,69H63.777V60.547h1.445ZM63.66,58.3a.863.863,0,0,1,.215-.594.807.807,0,0,1,.637-.242.819.819,0,0,1,.641.242.854.854,0,0,1,.219.594.826.826,0,0,1-.219.586.834.834,0,0,1-.641.234.821.821,0,0,1-.637-.234A.834.834,0,0,1,63.66,58.3Zm5.836.2v2.047h1.578v1.117H69.5v5.242a1.171,1.171,0,0,0,.211.762.888.888,0,0,0,.719.254,3.5,3.5,0,0,0,.688-.094V69A4.19,4.19,0,0,1,70,69.156a1.8,1.8,0,0,1-1.461-.586,2.517,2.517,0,0,1-.492-1.664V61.664H66.512V60.547h1.539V58.5Zm2.727,6.2a4.993,4.993,0,0,1,.488-2.234A3.643,3.643,0,0,1,74.07,60.93a3.7,3.7,0,0,1,1.988-.539,3.565,3.565,0,0,1,2.793,1.2,4.6,4.6,0,0,1,1.066,3.18v.1a5.036,5.036,0,0,1-.473,2.215,3.589,3.589,0,0,1-1.352,1.527,3.743,3.743,0,0,1-2.02.547,3.556,3.556,0,0,1-2.785-1.2A4.575,4.575,0,0,1,72.223,64.8Zm1.453.172a3.616,3.616,0,0,0,.652,2.258,2.211,2.211,0,0,0,3.5-.012,3.955,3.955,0,0,0,.648-2.418,3.61,3.61,0,0,0-.66-2.254,2.1,2.1,0,0,0-1.754-.863,2.075,2.075,0,0,0-1.727.852A3.925,3.925,0,0,0,73.676,64.867Zm12.977,1.891a1.064,1.064,0,0,0-.441-.91,4.249,4.249,0,0,0-1.539-.559,7.277,7.277,0,0,1-1.742-.562,2.478,2.478,0,0,1-.953-.781,1.869,1.869,0,0,1-.309-1.078,2.193,2.193,0,0,1,.879-1.758,3.432,3.432,0,0,1,2.246-.719,3.532,3.532,0,0,1,2.332.742,2.357,2.357,0,0,1,.895,1.9H86.566a1.3,1.3,0,0,0-.5-1.023,1.888,1.888,0,0,0-1.27-.43,1.976,1.976,0,0,0-1.234.344,1.082,1.082,0,0,0-.445.9.877.877,0,0,0,.414.789,5.1,5.1,0,0,0,1.5.508,7.8,7.8,0,0,1,1.754.578,2.559,2.559,0,0,1,1,.809,1.988,1.988,0,0,1,.324,1.152,2.163,2.163,0,0,1-.906,1.816,3.8,3.8,0,0,1-2.352.684,4.257,4.257,0,0,1-1.8-.359,2.922,2.922,0,0,1-1.223-1,2.42,2.42,0,0,1-.441-1.395h1.445a1.5,1.5,0,0,0,.582,1.152,2.258,2.258,0,0,0,1.434.426,2.331,2.331,0,0,0,1.316-.332A1.02,1.02,0,0,0,86.652,66.758ZM93.59,64.7a4.952,4.952,0,0,1,.922-3.129,3.137,3.137,0,0,1,4.766-.168V57h1.445V69H99.395l-.07-.906a2.943,2.943,0,0,1-2.414,1.063,2.887,2.887,0,0,1-2.395-1.2,5.008,5.008,0,0,1-.926-3.141Zm1.445.164a3.749,3.749,0,0,0,.594,2.25,1.92,1.92,0,0,0,1.641.813A2.109,2.109,0,0,0,99.277,66.7V62.813a2.125,2.125,0,0,0-1.992-1.2,1.929,1.929,0,0,0-1.656.82A4.128,4.128,0,0,0,95.035,64.867Zm11.438,4.289a3.693,3.693,0,0,1-2.8-1.129,4.19,4.19,0,0,1-1.078-3.02v-.266a5.073,5.073,0,0,1,.48-2.246,3.748,3.748,0,0,1,1.344-1.547,3.378,3.378,0,0,1,1.871-.559,3.166,3.166,0,0,1,2.563,1.086,4.7,4.7,0,0,1,.914,3.109v.6h-5.727a3,3,0,0,0,.73,2.02,2.3,2.3,0,0,0,1.777.77,2.517,2.517,0,0,0,1.3-.312,3.259,3.259,0,0,0,.93-.828l.883.688A3.55,3.55,0,0,1,106.473,69.156Zm-.18-7.578a1.928,1.928,0,0,0-1.469.637A3.1,3.1,0,0,0,104.09,64h4.234v-.109a2.753,2.753,0,0,0-.594-1.707A1.815,1.815,0,0,0,106.293,61.578ZM113.012,69h-1.445V57h1.445ZM46.3,86.164a3.07,3.07,0,0,1-2.477.992,2.628,2.628,0,0,1-2.059-.785,3.4,3.4,0,0,1-.715-2.324v-5.5H42.5v5.461q0,1.922,1.563,1.922a2.163,2.163,0,0,0,2.2-1.234V78.547h1.445V87H46.336Zm8.523-1.406a1.064,1.064,0,0,0-.441-.91,4.249,4.249,0,0,0-1.539-.559,7.277,7.277,0,0,1-1.742-.562,2.479,2.479,0,0,1-.953-.781,1.869,1.869,0,0,1-.309-1.078,2.193,2.193,0,0,1,.879-1.758,3.432,3.432,0,0,1,2.246-.719,3.532,3.532,0,0,1,2.332.742,2.357,2.357,0,0,1,.895,1.9H54.742a1.3,1.3,0,0,0-.5-1.023,1.888,1.888,0,0,0-1.27-.43,1.976,1.976,0,0,0-1.234.344,1.082,1.082,0,0,0-.445.9.877.877,0,0,0,.414.789,5.1,5.1,0,0,0,1.5.508,7.8,7.8,0,0,1,1.754.578,2.558,2.558,0,0,1,1,.809,1.988,1.988,0,0,1,.324,1.152,2.163,2.163,0,0,1-.906,1.816,3.8,3.8,0,0,1-2.352.684,4.257,4.257,0,0,1-1.8-.359,2.922,2.922,0,0,1-1.223-1,2.42,2.42,0,0,1-.441-1.395H51a1.5,1.5,0,0,0,.582,1.152,2.258,2.258,0,0,0,1.434.426,2.331,2.331,0,0,0,1.316-.332A1.02,1.02,0,0,0,54.828,84.758Zm8.547,1.406a3.07,3.07,0,0,1-2.477.992,2.628,2.628,0,0,1-2.059-.785,3.4,3.4,0,0,1-.715-2.324v-5.5H59.57v5.461q0,1.922,1.563,1.922a2.163,2.163,0,0,0,2.2-1.234V78.547h1.445V87H63.406ZM72.2,87a3.036,3.036,0,0,1-.2-.891,3.225,3.225,0,0,1-2.406,1.047,2.984,2.984,0,0,1-2.051-.707,2.287,2.287,0,0,1-.8-1.793,2.39,2.39,0,0,1,1-2.051,4.733,4.733,0,0,1,2.824-.73h1.406v-.664A1.623,1.623,0,0,0,71.516,80a1.821,1.821,0,0,0-1.336-.449,2.108,2.108,0,0,0-1.3.391,1.151,1.151,0,0,0-.523.945H66.906a2,2,0,0,1,.449-1.223,3.066,3.066,0,0,1,1.219-.934,4.1,4.1,0,0,1,1.691-.344,3.342,3.342,0,0,1,2.289.73,2.635,2.635,0,0,1,.859,2.012v3.891a4.757,4.757,0,0,0,.3,1.852V87Zm-2.4-1.1a2.54,2.54,0,0,0,1.289-.352,2.127,2.127,0,0,0,.883-.914V82.9H70.836q-2.656,0-2.656,1.555a1.316,1.316,0,0,0,.453,1.063A1.742,1.742,0,0,0,69.8,85.9Zm9.969-6.055a4.331,4.331,0,0,0-.711-.055A1.9,1.9,0,0,0,77.125,81v6H75.68V78.547h1.406l.023.977a2.251,2.251,0,0,1,2.016-1.133,1.477,1.477,0,0,1,.641.109ZM82.664,87H81.219V78.547h1.445ZM81.1,76.3a.863.863,0,0,1,.215-.594.807.807,0,0,1,.637-.242.819.819,0,0,1,.641.242.854.854,0,0,1,.219.594.826.826,0,0,1-.219.586.834.834,0,0,1-.641.234.821.821,0,0,1-.637-.234A.834.834,0,0,1,81.1,76.3ZM84.594,82.7a4.993,4.993,0,0,1,.488-2.234,3.643,3.643,0,0,1,1.359-1.531,3.7,3.7,0,0,1,1.988-.539,3.565,3.565,0,0,1,2.793,1.2,4.6,4.6,0,0,1,1.066,3.18v.1a5.036,5.036,0,0,1-.473,2.215,3.589,3.589,0,0,1-1.352,1.527,3.743,3.743,0,0,1-2.02.547,3.556,3.556,0,0,1-2.785-1.2A4.575,4.575,0,0,1,84.594,82.8Zm1.453.172a3.616,3.616,0,0,0,.652,2.258,2.211,2.211,0,0,0,3.5-.012,3.955,3.955,0,0,0,.648-2.418,3.61,3.61,0,0,0-.66-2.254,2.1,2.1,0,0,0-1.754-.863,2.075,2.075,0,0,0-1.727.852A3.925,3.925,0,0,0,86.047,82.867Z" transform="translate(713 2392.245)" fill="#12263f"/><g transform="translate(881.26 2373.565) rotate(65)"><path d="M-11800-8617.961h-2V-8646h2Z" transform="translate(11808.414 8646.002)" fill="#34495d"/><g transform="translate(0 17.069)"><g clip-path="url(#j)"><path d="M8.7,13.539h-2a13.773,13.773,0,0,0-1.844-6.89A13.871,13.871,0,0,0,0,1.714L1.029,0A15.876,15.876,0,0,1,6.586,5.646,15.643,15.643,0,0,1,7.7,8,15.644,15.644,0,0,1,8.811,5.646,15.876,15.876,0,0,1,14.368,0L15.4,1.714A13.773,13.773,0,0,0,8.7,13.539Z" transform="translate(-0.284 -0.474)" fill="#34495d"/></g></g></g><g transform="translate(786.414 2553.225) rotate(-180)"><path d="M-11800-8617.961h-2V-8646h2Z" transform="translate(11808.414 8646.002)" fill="#34495d"/><g transform="translate(0 17.069)"><g clip-path="url(#j)"><path d="M8.7,13.539h-2a13.773,13.773,0,0,0-1.844-6.89A13.871,13.871,0,0,0,0,1.714L1.029,0A15.876,15.876,0,0,1,6.586,5.646,15.643,15.643,0,0,1,7.7,8,15.644,15.644,0,0,1,8.811,5.646,15.876,15.876,0,0,1,14.368,0L15.4,1.714A13.773,13.773,0,0,0,8.7,13.539Z" transform="translate(-0.284 -0.474)" fill="#34495d"/></g></g></g><g transform="translate(676.016 2382.221) rotate(-60)"><path d="M-11800-8617.961h-2V-8646h2Z" transform="translate(11808.414 8646.002)" fill="#34495d"/><g transform="translate(0 17.069)"><g clip-path="url(#j)"><path d="M8.7,13.539h-2a13.773,13.773,0,0,0-1.844-6.89A13.871,13.871,0,0,0,0,1.714L1.029,0A15.876,15.876,0,0,1,6.586,5.646,15.643,15.643,0,0,1,7.7,8,15.644,15.644,0,0,1,8.811,5.646,15.876,15.876,0,0,1,14.368,0L15.4,1.714A13.773,13.773,0,0,0,8.7,13.539Z" transform="translate(-0.284 -0.474)" fill="#34495d"/></g></g></g><g transform="translate(267.554 15.521) rotate(3)"><g transform="translate(456.051 2406.538)"><g clip-path="url(#m)"><path d="M107.6,157.544A190.519,190.519,0,0,1,32.9,94.287,189.138,189.138,0,0,1,10.086,50.112,188.927,188.927,0,0,1-.5.11L1.5-.036A186.926,186.926,0,0,0,11.969,49.437,187.137,187.137,0,0,0,34.54,93.144a188.515,188.515,0,0,0,73.918,62.592Z" transform="translate(-0.171 -0.013)" fill="#114d74"/></g></g><g transform="translate(464.465 2415) rotate(-180)"><g clip-path="url(#j)"><path d="M8.7,13.539h-2a13.773,13.773,0,0,0-1.844-6.89A13.871,13.871,0,0,0,0,1.714L1.029,0A15.876,15.876,0,0,1,6.586,5.646,15.643,15.643,0,0,1,7.7,8,15.644,15.644,0,0,1,8.811,5.646,15.876,15.876,0,0,1,14.368,0L15.4,1.714A13.773,13.773,0,0,0,8.7,13.539Z" transform="translate(-0.284 -0.474)" fill="#34495d"/></g></g><g transform="translate(552.571 2566.578) rotate(-66)"><g clip-path="url(#j)"><path d="M8.7,13.539h-2a13.773,13.773,0,0,0-1.844-6.89A13.871,13.871,0,0,0,0,1.714L1.029,0A15.876,15.876,0,0,1,6.586,5.646,15.643,15.643,0,0,1,7.7,8,15.644,15.644,0,0,1,8.811,5.646,15.876,15.876,0,0,1,14.368,0L15.4,1.714A13.773,13.773,0,0,0,8.7,13.539Z" transform="translate(-0.284 -0.474)" fill="#34495d"/></g></g></g><g transform="translate(-1092.027 4065.813) rotate(-116)"><g transform="translate(456.051 2406.538)"><g clip-path="url(#m)"><path d="M107.6,157.544A190.519,190.519,0,0,1,32.9,94.287,189.138,189.138,0,0,1,10.086,50.112,188.927,188.927,0,0,1-.5.11L1.5-.036A186.926,186.926,0,0,0,11.969,49.437,187.137,187.137,0,0,0,34.54,93.144a188.515,188.515,0,0,0,73.918,62.592Z" transform="translate(-0.171 -0.013)" fill="#114d74"/></g></g><g transform="translate(464.465 2415) rotate(-180)"><g clip-path="url(#j)"><path d="M8.7,13.539h-2a13.773,13.773,0,0,0-1.844-6.89A13.871,13.871,0,0,0,0,1.714L1.029,0A15.876,15.876,0,0,1,6.586,5.646,15.643,15.643,0,0,1,7.7,8,15.644,15.644,0,0,1,8.811,5.646,15.876,15.876,0,0,1,14.368,0L15.4,1.714A13.773,13.773,0,0,0,8.7,13.539Z" transform="translate(-0.284 -0.474)" fill="#34495d"/></g></g><g transform="translate(552.571 2566.578) rotate(-66)"><g clip-path="url(#j)"><path d="M8.7,13.539h-2a13.773,13.773,0,0,0-1.844-6.89A13.871,13.871,0,0,0,0,1.714L1.029,0A15.876,15.876,0,0,1,6.586,5.646,15.643,15.643,0,0,1,7.7,8,15.644,15.644,0,0,1,8.811,5.646,15.876,15.876,0,0,1,14.368,0L15.4,1.714A13.773,13.773,0,0,0,8.7,13.539Z" transform="translate(-0.284 -0.474)" fill="#34495d"/></g></g></g><g transform="matrix(-0.574, 0.819, -0.819, -0.574, 3120.105, 3292.732)"><g transform="translate(456.689 2406.996)"><g clip-path="url(#s)"><path d="M118.3,173.118A209.365,209.365,0,0,1,36.2,103.6a207.849,207.849,0,0,1-25.07-48.544A207.616,207.616,0,0,1-.5.11L1.5-.036A205.616,205.616,0,0,0,13.016,54.383,205.848,205.848,0,0,0,37.844,102.46a207.362,207.362,0,0,0,81.308,68.85Z" transform="translate(-0.138 -0.01)" fill="#114d74"/></g></g><g transform="translate(465.94 2416.299) rotate(-180)"><g clip-path="url(#t)"><path d="M8.9,13.943h-2a15.242,15.242,0,0,0-2.04-7.626A15.35,15.35,0,0,0-.515.857L.515-.857A17.355,17.355,0,0,1,6.59,5.316,17.115,17.115,0,0,1,7.9,8.147,17.115,17.115,0,0,1,9.208,5.316,17.355,17.355,0,0,1,15.283-.857L16.313.857A15.242,15.242,0,0,0,8.9,13.943Z" transform="translate(0.253 0.421)" fill="#34495d"/></g></g><g transform="translate(562.808 2582.952) rotate(-66)"><g clip-path="url(#t)"><path d="M8.9,13.943h-2a15.242,15.242,0,0,0-2.04-7.626A15.35,15.35,0,0,0-.515.857L.515-.857A17.355,17.355,0,0,1,6.59,5.316,17.115,17.115,0,0,1,7.9,8.147,17.115,17.115,0,0,1,9.208,5.316,17.355,17.355,0,0,1,15.283-.857L16.313.857A15.242,15.242,0,0,0,8.9,13.943Z" transform="translate(0.253 0.421)" fill="#34495d"/></g></g></g></g></svg>