<svg xmlns="http://www.w3.org/2000/svg" xmlns:xlink="http://www.w3.org/1999/xlink" width="271.079" height="423.121" viewBox="0 0 271.079 423.121"><defs><clipPath id="a"><rect width="271.079" height="423.121" fill="none"/></clipPath><clipPath id="b"><rect width="271.079" height="423.12" fill="none"/></clipPath><clipPath id="c"><rect width="178.296" height="118.333" fill="none"/></clipPath><clipPath id="d"><rect width="103.086" height="16.678" fill="none"/></clipPath><clipPath id="e"><rect width="123.594" height="78.764" fill="none"/></clipPath></defs><g clip-path="url(#a)"><g transform="translate(0 0.001)"><g clip-path="url(#b)"><path d="M91.34,1253.393c-5.548-19.646-.287-59.811,33.178-72.005,9.189-35.237,76.954-65.943,125.049-5.055,26.867-10.059,57.791,19.037,54.55,46.748,26.551-8.369,43.529,14.915,36.731,35.5-2.647,8.016-8.823,11.459-15.762,11.459H107.86c-6.391,0-13.259-5.1-16.52-16.652" transform="translate(-71.272 -909.797)" fill="#0b3551"/><path d="M1.907,1288.749c-5.548-19.646-.287-59.811,33.178-72.005,9.189-35.237,76.437-51.2,124.533,9.685,24.876-13.414,58.307,4.3,55.067,32.009,26.551-8.369,43.529,14.915,36.731,35.5-2.647,8.016-8.822,11.46-15.761,11.46H18.427c-6.391,0-13.259-5.1-16.52-16.651" transform="translate(0 -944.76)" fill="#114d74"/><path d="M212.673,1377.052a.785.785,0,0,1-.269-1.523l.719-.262.193-.741a.785.785,0,0,1,1.519.4l-.3,1.139a.785.785,0,0,1-.491.54l-1.106.4a.785.785,0,0,1-.269.047" transform="translate(-168.859 -1094.932)" fill="#f0f0ff"/><path d="M331.606,1281.368a.783.783,0,0,1-.616-.3l-1.493-1.89a.785.785,0,1,1,1.232-.973l1.493,1.89a.785.785,0,0,1-.616,1.271m-3.99-5.032a.783.783,0,0,1-.61-.29c-.5-.622-1.018-1.242-1.526-1.844a.785.785,0,0,1,1.2-1.012c.514.609,1.034,1.238,1.545,1.867a.785.785,0,0,1-.609,1.28m-4.172-4.881a.784.784,0,0,1-.584-.26c-.533-.591-1.077-1.184-1.619-1.762a.785.785,0,1,1,1.145-1.073c.549.585,1.1,1.186,1.64,1.785a.785.785,0,0,1-.583,1.31m-4.425-4.653a.781.781,0,0,1-.553-.229c-.565-.562-1.142-1.123-1.714-1.667a.785.785,0,0,1,1.082-1.137c.58.552,1.165,1.121,1.738,1.692a.785.785,0,0,1-.554,1.342m-94.447-2.147a.786.786,0,0,1-.76-.983l.249-.954c.123-.473.265-.948.42-1.413a.785.785,0,0,1,1.489.5c-.144.432-.275.873-.39,1.313l-.249.954a.785.785,0,0,1-.759.587m89.762-2.245a.782.782,0,0,1-.519-.2c-.6-.528-1.207-1.053-1.81-1.56a.785.785,0,1,1,1.011-1.2c.612.515,1.23,1.048,1.838,1.584a.785.785,0,0,1-.52,1.374m-87.5-3.74a.785.785,0,0,1-.687-1.164,24.787,24.787,0,0,1,1.308-2.114.785.785,0,1,1,1.293.891,23.268,23.268,0,0,0-1.225,1.98.785.785,0,0,1-.688.407m82.554-.354a.782.782,0,0,1-.48-.165c-.63-.488-1.271-.973-1.905-1.438a.785.785,0,0,1,.93-1.265c.645.474,1.3.966,1.937,1.462a.785.785,0,0,1-.482,1.406m-5.2-3.757a.782.782,0,0,1-.437-.133c-.66-.443-1.333-.881-2-1.3a.785.785,0,0,1,.839-1.327c.679.43,1.363.875,2.035,1.326a.785.785,0,0,1-.438,1.437m-73.56-1.051a.785.785,0,0,1-.571-1.323c.555-.589,1.149-1.171,1.767-1.728a.785.785,0,1,1,1.052,1.165c-.586.529-1.15,1.08-1.675,1.639a.784.784,0,0,1-.572.247m68.106-2.33a.783.783,0,0,1-.388-.1c-.687-.392-1.39-.779-2.089-1.152a.785.785,0,0,1,.739-1.386c.712.38,1.428.775,2.128,1.174a.785.785,0,0,1-.39,1.467m-63.247-1.854a.785.785,0,0,1-.453-1.427c.531-.375,1.085-.744,1.648-1.1q.2-.127.406-.253a.785.785,0,1,1,.821,1.338q-.2.12-.389.242c-.54.341-1.071.7-1.58,1.054a.781.781,0,0,1-.452.144m57.554-1.108a.783.783,0,0,1-.334-.075c-.715-.337-1.445-.667-2.172-.983a.785.785,0,1,1,.625-1.44c.741.322,1.487.659,2.216,1a.785.785,0,0,1-.335,1.5m-52.02-2.134a.785.785,0,0,1-.341-1.492c.726-.35,1.479-.687,2.238-1a.785.785,0,0,1,.6,1.45c-.732.3-1.458.629-2.158.965a.782.782,0,0,1-.34.078m46.105-.36a.784.784,0,0,1-.275-.05c-.741-.276-1.5-.545-2.245-.8a.785.785,0,0,1,.5-1.488c.765.258,1.536.532,2.292.815a.785.785,0,0,1-.275,1.521m-6.1-1.985a.783.783,0,0,1-.21-.029c-.763-.212-1.538-.413-2.3-.6a.785.785,0,0,1,.369-1.526c.783.189,1.576.395,2.356.611a.785.785,0,0,1-.209,1.542m-34.033-.011a.785.785,0,0,1-.237-1.534c.766-.243,1.556-.471,2.347-.681a.785.785,0,1,1,.4,1.518c-.767.2-1.532.424-2.274.659a.78.78,0,0,1-.237.037m27.777-1.423a.794.794,0,0,1-.141-.013c-.779-.141-1.569-.27-2.348-.382a.785.785,0,1,1,.224-1.554c.8.115,1.607.246,2.4.391a.785.785,0,0,1-.139,1.557m-21.552-.12a.785.785,0,0,1-.141-1.557c.792-.146,1.6-.276,2.41-.388a.785.785,0,1,1,.215,1.555c-.784.109-1.572.235-2.342.377a.783.783,0,0,1-.143.013m15.188-.716-.065,0c-.792-.065-1.59-.114-2.372-.147a.785.785,0,1,1,.066-1.568c.8.034,1.621.084,2.433.15a.785.785,0,0,1-.063,1.567m-8.82-.074a.785.785,0,0,1-.051-1.568c.807-.053,1.627-.091,2.437-.111a.785.785,0,0,1,.039,1.57c-.788.02-1.586.056-2.372.108l-.053,0" transform="translate(-178.341 -987.96)" fill="#f0f0ff"/><path d="M764.743,1455.261a.785.785,0,0,1-.616-.3l-.73-.924a.785.785,0,0,1,1.232-.973l.321.407.456-.246a.785.785,0,0,1,.745,1.382l-1.036.559a.78.78,0,0,1-.372.094" transform="translate(-608.238 -1157.752)" fill="#f0f0ff"/><path d="M829.914,1456.729a.73.73,0,0,1-.092-.006.784.784,0,0,1-.688-.871l.268-2.292a.785.785,0,1,1,1.559.183l-.268,2.292a.786.786,0,0,1-.779.694m.715-6.112a.763.763,0,0,1-.092-.005.785.785,0,0,1-.688-.871l.268-2.292a.785.785,0,0,1,1.559.182l-.268,2.292a.785.785,0,0,1-.779.694m.715-6.112a.788.788,0,0,1-.781-.876l.1-.85c.054-.464.092-.931.113-1.39a.785.785,0,1,1,1.568.07c-.022.5-.063,1-.122,1.5l-.1.85a.786.786,0,0,1-.779.694m0-6.129a.785.785,0,0,1-.774-.659,17.091,17.091,0,0,0-.5-2.148.785.785,0,0,1,1.5-.451,18.625,18.625,0,0,1,.541,2.346.785.785,0,0,1-.648.9.768.768,0,0,1-.127.011m-2-5.786a.785.785,0,0,1-.689-.408,18.85,18.85,0,0,0-1.179-1.875.785.785,0,0,1,1.278-.912,20.389,20.389,0,0,1,1.277,2.031.786.786,0,0,1-.688,1.163m-3.739-4.86a.782.782,0,0,1-.546-.221c-.526-.509-1.09-1-1.678-1.471a.785.785,0,0,1,.977-1.229c.627.5,1.231,1.028,1.793,1.572a.785.785,0,0,1-.546,1.349m-36.217-2.044a.785.785,0,0,1-.373-1.476l2.031-1.1a.785.785,0,1,1,.745,1.382l-2.031,1.1a.782.782,0,0,1-.372.094m31.3-1.636a.782.782,0,0,1-.391-.105c-.641-.37-1.311-.719-1.989-1.039a.785.785,0,0,1,.669-1.42c.717.338,1.425.708,2.1,1.1a.785.785,0,0,1-.393,1.465m-25.869-1.257a.785.785,0,0,1-.339-1.494c.715-.342,1.451-.655,2.187-.93a.785.785,0,1,1,.55,1.471c-.693.259-1.386.553-2.059.876a.785.785,0,0,1-.338.077m20.245-1.215a.792.792,0,0,1-.238-.037c-.709-.226-1.438-.426-2.166-.6a.785.785,0,1,1,.356-1.529c.768.179,1.536.39,2.285.627a.785.785,0,0,1-.238,1.533m-14.435-.766a.785.785,0,0,1-.163-1.553c.767-.164,1.555-.3,2.341-.4a.785.785,0,1,1,.194,1.558c-.742.093-1.484.218-2.207.373a.787.787,0,0,1-.165.018m8.417-.469q-.038,0-.076,0c-.744-.072-1.5-.113-2.239-.123a.785.785,0,0,1,.01-1.57h.011c.785.011,1.582.055,2.369.131a.785.785,0,0,1-.074,1.566" transform="translate(-628.454 -1130.559)" fill="#f0f0ff"/><path d="M986.105,1620.009a.785.785,0,0,1-.78-.876l.137-1.169a1.331,1.331,0,1,1,2,1.655l-1.123.354a.784.784,0,0,1-.236.036" transform="translate(-785.229 -1288.848)" fill="#f0f0ff"/><path d="M278.847,1455.955h-1.4a.785.785,0,0,1,0-1.57h1.4a8.129,8.129,0,0,0,.872-.042.785.785,0,1,1,.167,1.561,9.672,9.672,0,0,1-1.039.051m-5.335,0h-2.36a.785.785,0,1,1,0-1.57h2.36a.785.785,0,0,1,0,1.57m-6.293,0h-2.36a.785.785,0,0,1,0-1.57h2.36a.785.785,0,1,1,0,1.57m-6.293,0h-2.36a.785.785,0,0,1,0-1.57h2.36a.785.785,0,1,1,0,1.57m-6.292,0h-2.36a.785.785,0,1,1,0-1.57h2.36a.785.785,0,0,1,0,1.57m-6.293,0h-2.36a.785.785,0,0,1,0-1.57h2.36a.785.785,0,1,1,0,1.57m-6.293,0H239.69a.785.785,0,1,1,0-1.57h2.359a.785.785,0,0,1,0,1.57m-6.293,0H233.4a.785.785,0,1,1,0-1.57h2.359a.785.785,0,1,1,0,1.57m-6.292,0H227.1a.785.785,0,0,1,0-1.57h2.36a.785.785,0,0,1,0,1.57m-6.293,0h-2.36a.785.785,0,0,1,0-1.57h2.36a.785.785,0,0,1,0,1.57m-6.293,0H214.52a.785.785,0,0,1,0-1.57h2.359a.785.785,0,0,1,0,1.57m-6.292,0h-2.36a.785.785,0,0,1,0-1.57h2.36a.785.785,0,1,1,0,1.57m-6.293,0h-2.36a.785.785,0,0,1,0-1.57h2.36a.785.785,0,0,1,0,1.57m-6.293,0h-2.36a.785.785,0,0,1,0-1.57H198a.785.785,0,0,1,0,1.57m-6.292,0h-2.36a.785.785,0,1,1,0-1.57h2.36a.785.785,0,0,1,0,1.57m-6.293,0h-2.36a.785.785,0,0,1,0-1.57h2.36a.785.785,0,1,1,0,1.57m-6.292,0h-2.36a.785.785,0,1,1,0-1.57h2.36a.785.785,0,0,1,0,1.57m-6.293,0h-2.36a.785.785,0,1,1,0-1.57h2.36a.785.785,0,0,1,0,1.57m-6.293,0h-2.36a.785.785,0,1,1,0-1.57h2.36a.785.785,0,1,1,0,1.57m-6.293,0h-2.36a.785.785,0,0,1,0-1.57h2.36a.785.785,0,0,1,0,1.57m-6.293,0h-2.359a.785.785,0,1,1,0-1.57h2.359a.785.785,0,1,1,0,1.57m-6.292,0H145.3a.785.785,0,1,1,0-1.57h2.36a.785.785,0,1,1,0,1.57m-6.293,0h-2.36a.785.785,0,0,1,0-1.57h2.36a.785.785,0,0,1,0,1.57m-6.293,0h-2.359a.785.785,0,1,1,0-1.57h2.359a.785.785,0,1,1,0,1.57m-6.292,0h-2.36a.785.785,0,0,1,0-1.57h2.36a.785.785,0,1,1,0,1.57m-6.293,0h-2.36a.785.785,0,1,1,0-1.57h2.36a.785.785,0,0,1,0,1.57m-6.293,0h-2.36a.785.785,0,1,1,0-1.57h2.36a.785.785,0,1,1,0,1.57m-6.292,0h-2.36a.785.785,0,1,1,0-1.57h2.36a.785.785,0,1,1,0,1.57m-6.293,0h-2.36a.785.785,0,0,1,0-1.57h2.36a.785.785,0,1,1,0,1.57m-6.293,0h-2.36a.785.785,0,1,1,0-1.57h2.36a.785.785,0,0,1,0,1.57m-6.293,0h-2.36a.785.785,0,0,1,0-1.57h2.36a.785.785,0,1,1,0,1.57m-6.292,0h-2.36a.785.785,0,1,1,0-1.57h2.36a.785.785,0,0,1,0,1.57m-6.293,0h-2.36a.785.785,0,0,1,0-1.57h2.36a.785.785,0,1,1,0,1.57m-6.292,0H69.79a.785.785,0,1,1,0-1.57h2.36a.785.785,0,0,1,0,1.57m-6.293,0H63.5a.785.785,0,1,1,0-1.57h2.36a.785.785,0,1,1,0,1.57m-5.927-1.1a.782.782,0,0,1-.568-.243,11.426,11.426,0,0,1-1.51-2.03.785.785,0,1,1,1.348-.8,9.859,9.859,0,0,0,1.3,1.75.785.785,0,0,1-.568,1.327m222.983-1.022a.786.786,0,0,1-.7-1.146,7.794,7.794,0,0,0,.465-1.14c.1-.3.192-.611.275-.918a.785.785,0,1,1,1.516.409c-.09.335-.191.672-.3,1a9.315,9.315,0,0,1-.562,1.37.785.785,0,0,1-.7.424m-226.008-4.442a.785.785,0,0,1-.742-.529c-.172-.5-.336-1.021-.487-1.556q-.106-.375-.206-.769a.785.785,0,1,1,1.522-.385q.094.372.194.727c.143.506.3,1,.46,1.47a.786.786,0,0,1-.742,1.042m227.415-1.65h-.036a.785.785,0,0,1-.749-.819c.011-.258.017-.517.017-.771,0-.493-.022-.992-.065-1.482a.785.785,0,0,1,1.564-.137c.047.536.071,1.081.071,1.62,0,.278-.006.561-.019.842a.785.785,0,0,1-.784.75m-228.836-4.47a.785.785,0,0,1-.776-.675c-.11-.77-.2-1.572-.277-2.382a.785.785,0,0,1,1.563-.144c.072.785.162,1.561.268,2.305a.785.785,0,0,1-.667.887.751.751,0,0,1-.111.008m228-1.733a.785.785,0,0,1-.746-.542,16.071,16.071,0,0,0-.845-2.083.785.785,0,1,1,1.41-.691,17.638,17.638,0,0,1,.928,2.287.786.786,0,0,1-.746,1.029M55,1437a.785.785,0,0,1-.784-.769q-.012-.6-.012-1.212,0-.584.012-1.179a.776.776,0,0,1,.8-.77.785.785,0,0,1,.77.8q-.011.579-.011,1.149,0,.6.012,1.18a.785.785,0,0,1-.769.8H55m225.468-.938a.783.783,0,0,1-.6-.28,14.391,14.391,0,0,0-1.565-1.6.785.785,0,1,1,1.03-1.185,15.884,15.884,0,0,1,1.737,1.77.785.785,0,0,1-.6,1.29m-31.521-.134a.785.785,0,0,1-.236-1.534l2.25-.709a.785.785,0,1,1,.472,1.5l-2.25.71a.78.78,0,0,1-.236.037m6-1.892a.785.785,0,0,1-.236-1.534l2.251-.71a.785.785,0,0,1,.472,1.5l-2.251.709a.789.789,0,0,1-.236.036m20.585-1.8a.781.781,0,0,1-.333-.074,13.861,13.861,0,0,0-2.089-.781.785.785,0,0,1,.43-1.51,15.426,15.426,0,0,1,2.326.87.785.785,0,0,1-.335,1.5m-14.583-.093a.785.785,0,0,1-.236-1.534l.471-.148c.616-.194,1.237-.369,1.845-.518a.785.785,0,1,1,.375,1.525c-.576.142-1.164.307-1.748.491l-.471.148a.78.78,0,0,1-.236.036m6.144-1.291a.785.785,0,0,1-.061-1.567,20.709,20.709,0,0,1,2.451-.049.785.785,0,0,1-.064,1.569,19.087,19.087,0,0,0-2.264.045l-.062,0M55.2,1430.714c-.022,0-.043,0-.065,0a.785.785,0,0,1-.718-.846c.065-.792.146-1.592.24-2.377a.785.785,0,0,1,1.559.187c-.092.766-.17,1.546-.234,2.319a.785.785,0,0,1-.781.721m.825-6.235a.811.811,0,0,1-.143-.013.785.785,0,0,1-.63-.914c.144-.784.3-1.572.477-2.342a.785.785,0,1,1,1.532.343c-.168.75-.325,1.518-.465,2.282a.786.786,0,0,1-.771.644m1.457-6.118a.785.785,0,0,1-.753-1.008c.227-.767.471-1.534.727-2.28a.785.785,0,1,1,1.485.509c-.248.724-.486,1.47-.706,2.216a.785.785,0,0,1-.752.563m2.124-5.92a.786.786,0,0,1-.722-1.093c.315-.737.648-1.471.992-2.182a.785.785,0,0,1,1.413.684c-.333.689-.657,1.4-.961,2.114a.785.785,0,0,1-.722.477m2.835-5.614a.785.785,0,0,1-.675-1.185c.41-.692.841-1.375,1.28-2.033a.785.785,0,1,1,1.305.872c-.424.634-.839,1.294-1.234,1.961a.785.785,0,0,1-.676.385m3.594-5.159a.785.785,0,0,1-.608-1.281c.328-.4.668-.8,1.009-1.189q.281-.318.569-.63a.785.785,0,0,1,1.153,1.065q-.276.3-.545.6c-.328.371-.654.756-.97,1.142a.784.784,0,0,1-.608.288m4.362-4.526a.785.785,0,0,1-.517-1.376c.6-.528,1.229-1.042,1.863-1.529a.785.785,0,0,1,.956,1.245c-.607.466-1.208.959-1.785,1.464a.782.782,0,0,1-.517.195m5.066-3.719a.785.785,0,0,1-.41-1.455c.681-.415,1.386-.815,2.1-1.188a.785.785,0,1,1,.731,1.39c-.68.358-1.355.741-2.009,1.14a.785.785,0,0,1-.408.115m5.619-2.813a.785.785,0,0,1-.293-1.514c.412-.165.835-.327,1.256-.481l.977-.356a.785.785,0,1,1,.538,1.475l-.977.356c-.406.148-.812.3-1.208.463a.781.781,0,0,1-.293.057" transform="translate(-43.193 -1106.304)" fill="#f0f0ff"/><path d="M483.777,1505.89l12.447,4.726v5.126l-17.657-7.869V1503.8l17.657-7.847v5.126Z" transform="translate(-381.383 -1192.168)" fill="#f0f0ff"/><path d="M584.4,1492.532h-4.029l12.088-33.353h4.029Z" transform="translate(-462.514 -1162.861)" fill="#f0f0ff"/><path d="M690.644,1505.785,677.607,1501v-5.042l18.227,7.847v4.072l-18.227,7.848v-5.042Z" transform="translate(-540.004 -1192.169)" fill="#f0f0ff"/><g transform="translate(0 240.741)" opacity="0.1"><g clip-path="url(#c)"><path d="M51.186,1232.847c16.928-2.969,105.124-2.564,127.11-4.748q-2.254-3.106-4.592-6.02a38.148,38.148,0,0,0-14.086,4.35c-48.1-60.887-115.344-44.922-124.533-9.685C1.62,1228.938-3.641,1269.1,1.907,1288.75c2.233,7.906,6.156,12.79,10.459,15.085,14.532-39.487,29.856-58.18,38.82-70.988" transform="translate(0 -1185.502)"/></g></g><path d="M398.034,531.21c-2.606-16.123-19.33-61.035-25.54-67.244s-30.646-13.286-39.615-15.723H296.759c-9.482,2.437-33.939,9.946-40.714,16.721-6.209,6.209-19.926,51.967-22.08,68.157-1.811,13.61,9.319,32.5,30.192,53.617H365.48c21.63-20.307,34.365-44.322,32.553-55.528" transform="translate(-186.301 -357.218)" fill="#ffe082"/><path d="M513.34,483.929c-1.872.432-3.751.825-5.633,1.205-2.316.468-4.648.839-6.98,1.218-2.481.4-4.974.708-7.473.974s-5.044.406-7.567.568c-1.269.082-2.539.154-3.807.24s-2.508.2-3.764.275c-1.682.112-3.363.274-5.046.364-2.153.116-4.306.268-6.463.3-1.274.019-2.55.049-3.824.033s-2.55-.061-3.824-.093a97.646,97.646,0,0,1-15.024-1.676c-2.418-.479-4.813-1.028-7.187-1.691-1.112-.311-2.213-.645-3.311-1-.419-.137-.84-.27-1.257-.412l-.586-.2c-.03-.01-.3-.083-.167-.16.049-.028.159.019.2.029l.674.145c.426.092.852.191,1.277.287,1.047.236,2.1.45,3.15.667,2.4.495,4.808.916,7.229,1.279,2.477.371,4.959.7,7.453.93s5.011.489,7.524.615c1.289.065,2.578.138,3.868.19,1.264.051,2.531.049,3.8.087,1.9.057,3.8.055,5.706.067a109.43,109.43,0,0,0,11.6-.592c2.5-.251,5-.621,7.492-.981s4.961-.676,7.445-1c4.512-.581,9.021-1.217,13.547-1.695l.76-.076.15-.015c.071-.007.119.1.034.115" transform="translate(-343.786 -385.566)" fill="#ffefbf"/><path d="M455.036,554.654c-4,.168-8,.271-11.992.432q-7.315.292-14.622.711c-5.1.284-10.2.545-15.3.864-5.133.322-10.261.833-15.365,1.466-5.136.637-10.272,1.23-15.449,1.414a127.33,127.33,0,0,1-15.321-.348,114.775,114.775,0,0,1-14.815-2.245,126.165,126.165,0,0,1-13.676-3.854c-2.113-.72-4.207-1.5-6.3-2.264q-.645-.237-1.288-.478l-.4-.148c-.037-.014-.242-.082-.111-.147.044-.022.133.022.174.034l.482.14q.659.191,1.316.387c4.386,1.31,8.771,2.621,13.216,3.719a140.792,140.792,0,0,0,14.451,2.8,147.005,147.005,0,0,0,15.146,1.331c5.159.176,10.336.083,15.488-.224,5.167-.309,10.325-.867,15.474-1.389,5.092-.516,10.178-1.1,15.273-1.574,4.941-.463,9.9-.741,14.86-.884q7.3-.21,14.606-.008,1.262.035,2.524.083c.409.015.819.033,1.229.05l.33.014.067,0a.059.059,0,0,1,0,.118" transform="translate(-263.268 -438.351)" fill="#ffefbf"/><path d="M397.327,686.8c4.228-.276,8.466-.4,12.7-.443,5.062-.054,10.116.013,15.171.293q7.671.426,15.343.859c5.114.3,10.219.723,15.338.945q7.565.327,15.145.186a140.947,140.947,0,0,0,14.864-.915q1.788-.226,3.569-.49c1.06-.158,2.108-.371,3.162-.565l.284-.053c.127-.024.06.106-.017.128-.4.115-.8.232-1.2.344-1.1.307-2.2.572-3.311.83a64.959,64.959,0,0,1-7.2,1.192c-2.463.286-4.926.5-7.4.643a139.166,139.166,0,0,1-15.137-.056c-2.538-.125-5.074-.3-7.6-.554-2.575-.258-5.135-.617-7.706-.91a136.058,136.058,0,0,0-15.387-.813c-2.549,0-5.1.026-7.648.017-2.46-.009-4.92-.054-7.38-.092q-6.881-.106-13.76-.354c-.412-.015-.824-.031-1.236-.049l-.5-.022-.091,0a.059.059,0,0,1-.008-.118" transform="translate(-316.599 -546.963)" fill="#ffefbf"/><path d="M868.889,667.041a14.938,14.938,0,0,1,2.288-.752,19.7,19.7,0,0,1,3.484-.646c1.254-.094,2.5-.075,3.747-.285s2.446-.607,3.679-.876a36.5,36.5,0,0,1,7.183-.921,22.734,22.734,0,0,1,2.756.08c.121.013.037.112-.024.132-.158.052-.318.1-.478.147q-.786.228-1.587.4a52.518,52.518,0,0,1-7.183,1.092c-1.254.122-2.518.1-3.771.232a14.1,14.1,0,0,0-1.866.313c-.608.148-1.2.339-1.807.508a20.562,20.562,0,0,1-3.888.629c-.521.043-1.042.069-1.565.076-.258,0-.515,0-.773-.009-.019,0-.383-.04-.194-.125" transform="translate(-692.399 -528.805)" fill="#ffefbf"/><path d="M857.2,756.272a16.129,16.129,0,0,1,2.466-1.392c1.055-.5,2.132-.951,3.23-1.351a26.937,26.937,0,0,1,3.6-.981c1.242-.267,2.472-.553,3.694-.9s2.44-.784,3.658-1.18,2.456-.708,3.7-1.017a52.1,52.1,0,0,1,7.308-1.243c1.1-.112,2.212-.169,3.317-.195.2,0,.393-.006.59-.008.134,0,.14.1.019.134q-.678.2-1.362.382c-2.3.6-4.633,1.114-6.964,1.584-2.477.5-4.974.943-7.469,1.346a28.881,28.881,0,0,0-3.715.83c-1.183.356-2.319.828-3.461,1.295-1.541.63-3.122,1.134-4.7,1.646-.768.24-1.535.484-2.307.713-.337.1-.675.2-1.013.3q-.218.063-.437.124c-.048.014-.271.013-.142-.081" transform="translate(-683.096 -596.107)" fill="#ffefbf"/><path d="M912.43,851.281A11.6,11.6,0,0,1,914.263,850a20.413,20.413,0,0,1,3.129-1.515,21.7,21.7,0,0,1,3.576-.911c1.236-.245,2.453-.558,3.67-.883a27.131,27.131,0,0,1,3.708-.762,18.4,18.4,0,0,1,3.679-.112,15.774,15.774,0,0,1,6.582,1.944c.087.05.174.1.259.151s0,.122-.072.109c-.394-.071-.782-.175-1.176-.248-1.123-.208-2.245-.379-3.378-.522-1.2-.152-2.437-.2-3.649-.233-1.255-.034-2.5,0-3.759.057a22.373,22.373,0,0,0-3.725.389,17.6,17.6,0,0,0-3.44,1.216c-2.059.922-4.2,1.676-6.331,2.419q-.337.118-.675.23l-.149.049c-.059.019-.148-.035-.082-.094" transform="translate(-727.122 -674.016)" fill="#ffefbf"/><path d="M939.475,926.56c-.946-.3-1.894-.6-2.839-.905-.575-.186-1.158-.36-1.723-.576s-1.117-.475-1.677-.714a11.633,11.633,0,0,0-3.575-.917c-.643-.057-1.288-.1-1.932-.15-.625-.051-1.246-.138-1.87-.2-1.2-.113-2.389-.269-3.573-.478-1.1-.194-2.21-.395-3.288-.693-.115-.031-.229-.064-.342-.1-.138-.044.007-.122.068-.13.451-.066.907-.1,1.362-.135a26.856,26.856,0,0,1,3.616.031,25.084,25.084,0,0,1,3.669.612c.862.188,1.685.483,2.529.735a21.724,21.724,0,0,0,2.855.69c.617.1,1.237.162,1.849.291a9.874,9.874,0,0,1,1.68.531,12.8,12.8,0,0,1,1.983,1,7.667,7.667,0,0,1,.87.625c.108.091.215.185.315.285.026.026.193.244.024.192" transform="translate(-732.056 -734.384)" fill="#ffefbf"/><path d="M904.194,991.675c.352,0,.7-.055,1.059-.039a9.333,9.333,0,0,1,1.626.222,6.656,6.656,0,0,1,1.713.6,16.955,16.955,0,0,0,1.6.822c1.146.466,2.378.638,3.516,1.127a11.386,11.386,0,0,1,3.067,1.835,8.31,8.31,0,0,1,1.171,1.235c.059.078.68.854.547.927-.069.039-.241-.088-.291-.114-.24-.124-.474-.257-.7-.4-.5-.308-1.026-.6-1.543-.88-1.08-.6-2.119-1.256-3.175-1.892a15.882,15.882,0,0,0-2.509-1.431,7.981,7.981,0,0,0-1.762-.393,9.753,9.753,0,0,1-1.784-.414c-.527-.176-1.049-.369-1.557-.592-.224-.1-.446-.2-.663-.314-.044-.022-.509-.244-.313-.3" transform="translate(-720.54 -790.261)" fill="#ffefbf"/><path d="M309.818,663.087c0,.066-2.269-.166-2.462-.193a18.98,18.98,0,0,1-3.532-.776c-.573-.2-1.137-.417-1.717-.593a12.455,12.455,0,0,0-1.777-.382c-1.226-.182-2.468-.206-3.7-.369s-2.462-.3-3.676-.546c-1.167-.232-2.338-.486-3.488-.791-.449-.12-.9-.247-1.337-.4-.041-.014-.231-.064-.128-.144.06-.047.214-.03.283-.035a25.775,25.775,0,0,1,3.259-.013,32.75,32.75,0,0,1,7.208,1.412,18.835,18.835,0,0,0,3.706.866c.611.066,1.226.1,1.837.164a12.865,12.865,0,0,1,1.773.339,22.691,22.691,0,0,1,2.432.755c.334.127.666.263.99.413.1.047.2.094.3.145.051.026.158.141.03.145h0" transform="translate(-229.494 -525.018)" fill="#ffefbf"/><path d="M291.939,753.118,288.3,751.6c-1.15-.48-2.311-.939-3.438-1.47s-2.227-1.107-3.384-1.562a34.592,34.592,0,0,0-5.892-1.492c-2.461-.5-4.924-.989-7.372-1.55-1.183-.271-2.364-.558-3.541-.853-.524-.131-1.046-.27-1.564-.42q-.306-.089-.61-.184a.358.358,0,0,1-.108-.034c-.108-.033,0-.116.058-.116a45.2,45.2,0,0,1,6.67.572c1.224.185,2.429.48,3.629.776a36.157,36.157,0,0,1,3.555,1.053c1.182.426,2.346.911,3.539,1.3.586.193,1.172.394,1.763.571s1.191.32,1.786.485c.853.236,1.7.467,2.527.785a22.441,22.441,0,0,1,2.419,1.1,22.828,22.828,0,0,1,2.27,1.352c.312.215.62.439.915.677.125.1.248.2.368.312.038.035.077.07.114.106a.06.06,0,0,1-.062.1" transform="translate(-209.067 -592.85)" fill="#ffefbf"/><path d="M263.173,847.993c-1.782-.674-3.534-1.446-5.278-2.212-1.109-.487-2.166-1.081-3.275-1.568a13.9,13.9,0,0,0-3.526-1.009c-1.254-.188-2.523-.264-3.786-.364a32.635,32.635,0,0,0-3.732-.043,31.522,31.522,0,0,0-3.6.282c-.574.087-1.145.177-1.717.278-.449.079-.891.191-1.339.275-.047.009-.181.057-.195-.026s.133-.123.176-.148a11.861,11.861,0,0,1,1.294-.665,14.862,14.862,0,0,1,3.38-1.022,16.179,16.179,0,0,1,3.652-.231,22.072,22.072,0,0,1,3.6.483c1.228.287,2.421.7,3.627,1.067,1.172.355,2.358.637,3.542.944a18,18,0,0,1,6.309,3.081c.259.195.513.4.754.615.051.045.1.091.15.139s.057.16-.037.125" transform="translate(-188.652 -670.627)" fill="#ffefbf"/><path d="M252.082,928.561c0-.038.1-.131.124-.156q.1-.118.208-.231c.2-.2.4-.4.616-.584a12.5,12.5,0,0,1,1.436-1.056,11.636,11.636,0,0,1,3.173-1.468c1.2-.336,2.4-.628,3.576-1.056a33.27,33.27,0,0,1,3.446-1.267,34.4,34.4,0,0,1,3.678-.818,20.961,20.961,0,0,1,3.575-.211c.55.012,1.1.039,1.649.086.171.015.343.031.513.052.056.007.236.084.09.129a25.474,25.474,0,0,1-2.732.623c-1.177.227-2.349.477-3.532.675-1.228.206-2.462.376-3.69.588-.891.154-1.79.253-2.669.468a13.144,13.144,0,0,0-3.35,1.381c-1.351.759-2.758,1.394-4.159,2.053l-1.437.675-.35.164c-.039.018-.266.092-.167-.048h0" transform="translate(-200.871 -734.536)" fill="#ffefbf"/><path d="M313.576,991.956c0,.036-.248.16-.275.177-.237.145-.479.282-.725.411-.525.278-1.066.523-1.612.755a10.7,10.7,0,0,1-1.663.579c-.59.143-1.2.24-1.772.437a15.09,15.09,0,0,0-3.2,1.812c-1.05.673-2.115,1.326-3.183,1.97-.516.311-1.04.611-1.56.914-.461.269-.916.552-1.382.814-.11.062-.221.123-.334.179-.172.085-.035-.162-.014-.194a7.883,7.883,0,0,1,.957-1.236,12.84,12.84,0,0,1,2.78-2.213,16.026,16.026,0,0,1,3.384-1.491,13.616,13.616,0,0,0,2.364-.91c.764-.4,1.463-.915,2.258-1.256a11.561,11.561,0,0,1,2.34-.689,9.725,9.725,0,0,1,1.146-.156c.127-.009.254-.016.381-.016.049,0,.227.03.111.114h0" transform="translate(-237.314 -790.427)" fill="#ffefbf"/><path d="M393.556,668.051c-.874-4.411-1.521-8.866-2.087-13.325-.65-5.114-1.193-10.24-1.7-15.37q-.727-7.331-1.38-14.67c-.087-1-.169-2-.236-2.994,1.066,4.374,1.885,8.8,2.523,13.258.728,5.086,1.3,10.189,1.758,15.306.44,4.888.786,9.79,1.01,14.693.047,1.034.089,2.068.114,3.1" transform="translate(-309.328 -495.444)" fill="#d9b755"/><path d="M850.962,668.051c.113-4.49.422-8.982.765-13.46.394-5.137.892-10.268,1.534-15.38.61-4.856,1.352-9.713,2.409-14.493.223-1.01.453-2.019.7-3.025-.138,2.052-.352,4.1-.529,6.143-.212,2.451-.451,4.9-.681,7.35q-.719,7.684-1.6,15.354c-.568,4.877-1.191,9.755-2.05,14.59-.173.976-.352,1.95-.544,2.922" transform="translate(-678.155 -495.444)" fill="#d9b755"/><path d="M714.386,633.071a173.53,173.53,0,0,1,1.518,18.212c3.174,3.174,15.729,3.449,19.868.552a131.774,131.774,0,0,0,1.656-18.764c-5.105.828-18.075,1.242-23.042,0" transform="translate(-569.314 -504.513)" fill="#d9b755"/><path d="M402.488,1759.908c4.29,4.29,10.19,7.687,13.765,29.139-16.179,16.179-33.609,33.43-39.925,35.575-5.092,1.73-21.482,2.324-23.6-7.21-1.961-8.84,2.339-15.312,7.21-18.354,7.389-10.25,14.481-21.214,19.665-32.357,6.853-1.013,16.387-4.112,22.883-6.793" transform="translate(-280.714 -1402.521)" fill="#38355c"/><path d="M368.125,1911.526a32.282,32.282,0,0,1-3.289-.171c-4.77-.492-9.253-1.988-10.9-3.637a.785.785,0,1,1,1.11-1.11c1.167,1.167,5.052,2.68,9.954,3.185,3.171.328,9.09.445,13.109-2.434,6.818-4.886,31.545-28.7,36.848-34a.785.785,0,1,1,1.11,1.11c-3.989,3.989-29.688,28.9-37.043,34.168-3.244,2.324-7.509,2.891-10.895,2.891" transform="translate(-281.875 -1492.748)" fill="#635db3"/><path d="M419.56,1953.605a.783.783,0,0,1-.62-.3c-4.509-5.79-9.76-9.313-15.607-10.471a19.429,19.429,0,0,0-10.532.725.785.785,0,0,1-.591-1.455,20.584,20.584,0,0,1,11.428-.81c6.228,1.233,11.793,4.95,16.541,11.047a.785.785,0,0,1-.619,1.267" transform="translate(-312.173 -1546.723)" fill="#635db3"/><path d="M435.3,1837.1a.785.785,0,0,1-.655-1.216,242.6,242.6,0,0,0,15.21-26.913.785.785,0,0,1,1.428.652,245.454,245.454,0,0,1-15.326,27.123.784.784,0,0,1-.657.354" transform="translate(-346.275 -1441.252)" fill="#635db3"/><path d="M475.356,1835.528a.978.978,0,0,1-.694-.287c-6.551-6.551-14.82-2.938-14.9-2.9a.981.981,0,0,1-.806-1.79,16.547,16.547,0,0,1,5.7-1.2,14.989,14.989,0,0,1,11.394,4.5.981.981,0,0,1-.694,1.675" transform="translate(-365.292 -1457.852)" fill="#ffefbf"/><path d="M457.606,1866.464a.978.978,0,0,1-.694-.287,13.588,13.588,0,0,0-14.514-3.3.981.981,0,0,1-.764-1.807,15.655,15.655,0,0,1,16.666,3.717.981.981,0,0,1-.694,1.675" transform="translate(-351.474 -1482.353)" fill="#ffefbf"/><path d="M436.622,1898.913a.978.978,0,0,1-.694-.288c-6.551-6.551-14.82-2.938-14.9-2.9a.981.981,0,0,1-.806-1.79,16.552,16.552,0,0,1,5.7-1.2,14.99,14.99,0,0,1,11.394,4.5.981.981,0,0,1-.694,1.675" transform="translate(-334.423 -1508.366)" fill="#ffefbf"/><path d="M476.247,1659.421c2.494,6.485,6.183,14.978,8.555,20.406-1.251,5.185-8.818,19.756-22.883,6.793,1.171-2.545-2.848-7.761-6.385-13.587,6.972-3.754,14.992-7.892,20.713-13.613" transform="translate(-363.028 -1322.44)" fill="#e68f65"/><path d="M684.1,1759.508c-3.84,4.7-9.371,8.667-10.784,30.369,17.715,14.481,36.782,29.9,43.281,31.407,5.24,1.212,21.607.165,22.759-9.533,1.068-8.991-3.858-15-9.009-17.541-8.377-9.46-16.528-19.661-22.8-30.23-6.919-.323-16.716-2.453-23.446-4.472" transform="translate(-536.582 -1402.202)" fill="#38355c"/><path d="M725.07,1911.6a16.826,16.826,0,0,1-8.357-1.931c-7.847-4.511-35.905-26.725-40.273-30.3a.785.785,0,0,1,.994-1.216c5.806,4.747,32.788,25.969,40.062,30.149,4.286,2.464,10.164,1.754,13.286,1.112,4.827-.993,8.541-2.887,9.586-4.165a.785.785,0,0,1,1.216.994c-1.477,1.806-5.788,3.742-10.485,4.708a30.5,30.5,0,0,1-6.028.642" transform="translate(-538.844 -1496.614)" fill="#635db3"/><path d="M817.8,1937.649a.785.785,0,0,1-.664-1.2c9.407-14.955,22.945-14.117,26.945-12.644a.785.785,0,1,1-.542,1.473,18.434,18.434,0,0,0-10.329.165c-5.811,1.65-10.91,5.744-14.745,11.842a.785.785,0,0,1-.665.367" transform="translate(-651.105 -1532.529)" fill="#635db3"/><path d="M833.432,1826.138a.783.783,0,0,1-.61-.291l-.839-1.034c-6.644-8.193-14.913-18.389-18.417-24.39a.785.785,0,1,1,1.356-.792c3.443,5.9,11.67,16.041,18.28,24.192l.839,1.035a.785.785,0,0,1-.609,1.279" transform="translate(-648.268 -1433.867)" fill="#635db3"/><path d="M789.442,1824.7a.981.981,0,0,1-.759-1.6,14.993,14.993,0,0,1,10.887-5.619,16.526,16.526,0,0,1,5.794.624.981.981,0,1,1-.623,1.861c-.351-.115-8.7-2.768-14.539,4.376a.979.979,0,0,1-.76.36" transform="translate(-628.347 -1448.373)" fill="#ffefbf"/><path d="M811.879,1853.437a.981.981,0,0,1-.759-1.6,15.658,15.658,0,0,1,16.211-5.365.981.981,0,0,1-.582,1.875,13.586,13.586,0,0,0-14.109,4.732.98.98,0,0,1-.761.36" transform="translate(-646.227 -1471.099)" fill="#ffefbf"/><path d="M834.318,1883.9a.981.981,0,0,1-.759-1.6,14.991,14.991,0,0,1,10.887-5.619,16.553,16.553,0,0,1,5.794.624.981.981,0,0,1-.623,1.861c-.351-.115-8.7-2.768-14.539,4.376a.979.979,0,0,1-.76.36" transform="translate(-664.11 -1495.549)" fill="#ffefbf"/><path d="M732.747,1653.7c-2.413,9.675-4.569,17.537-6.328,21.487,1.763,5.033,10.749,18.775,23.447,4.472-.544-2.4,2.6-9.243,4.362-14-7.312-3.039-15.217-6.838-21.48-11.958" transform="translate(-578.904 -1317.879)" fill="#e68f65"/><path d="M216.518,1119.293c-13.859-3.633-41-6.123-41,23.817,0,19.884,26.791,63.845,49.749,102.53,13.321-2.825,22.2-6.66,30.275-18.972-11.1-24.825-19.886-52.564-24.245-63.691,12.716,2.22,45.834,4.2,77.319,2.99-5.248,17.358-14.726,53.436-17.955,61.105,10.6,10.6,24.623,12.11,30.88,12.11,8.881-18.165,40.79-76.31,40.79-93.832s-1.3-28.161-47.047-26.325c-28.525,0-89.075.269-98.763.269" transform="translate(-139.874 -890.309)" fill="#4b4599"/><path d="M383.514,1239.932c-.994-1.857-1.9-3.761-2.826-5.654-1.088-2.228-2.167-4.462-3.294-6.67-1.146-2.244-2.347-4.462-3.69-6.6a25.651,25.651,0,0,0-4.553-5.619,10.559,10.559,0,0,0-2.626-1.652,9.1,9.1,0,0,1,2.819,1.035,14.979,14.979,0,0,1,2.75,2.139,28.239,28.239,0,0,1,4.435,5.825,63.062,63.062,0,0,1,5.934,13.5c.385,1.223.743,2.452,1.052,3.7" transform="translate(-292.094 -967.265)" fill="#3b3675"/><path d="M830.936,1242.923a65.493,65.493,0,0,1,3.815-13.307c.464-1.154.984-2.289,1.539-3.4s1.123-2.216,1.783-3.262c.674-1.068,1.353-2.129,2.122-3.132.743-.968,1.529-1.887,2.357-2.783a32.69,32.69,0,0,1,3.6-3.294c-1.213,1.6-2.5,3.138-3.625,4.8a61.512,61.512,0,0,0-3.784,6.28c-.573,1.114-1.144,2.229-1.668,3.367-.533,1.155-1.042,2.319-1.56,3.481-1,2.25-1.881,4.559-2.794,6.846-.588,1.472-1.155,2.954-1.788,4.407" transform="translate(-662.196 -967.266)" fill="#3b3675"/><g transform="translate(75.128 231.957)" opacity="0.2"><g clip-path="url(#d)"><path d="M369.955,1142.243c12.247,7.92,39.515,9.908,53.39,16.678,13.608-8.339,39.872-6.728,49.7-16.678Z" transform="translate(-369.955 -1142.243)"/></g></g><path d="M476.744,45.541c-6.6-13-6.109-21.3-.727-30.5S491.933-4.593,507.386,2.165,537.029,16.279,535.8,27.146a86.61,86.61,0,0,1-3.83,18.395Z" transform="translate(-376.061 -0.004)" fill="#2d2c42"/><path d="M539.642,36.147a17.543,17.543,0,0,0,.558,5.845,14.082,14.082,0,0,0,3.1,5.74,23.225,23.225,0,0,0,1.906,1.812,11.044,11.044,0,0,1-4.218-3.86,11.949,11.949,0,0,1-1.77-6.375,9.875,9.875,0,0,1,.426-3.163" transform="translate(-429.716 -28.807)" fill="#424161"/><path d="M616.756,68.313c-1.718.224-3.431.414-5.162.515a50.217,50.217,0,0,1-6.772-.048,36.348,36.348,0,0,1-6.776-1.113,23.757,23.757,0,0,1-6.2-2.57,15.25,15.25,0,0,1-4.085-3.544,10,10,0,0,1-1.958-4.146c1.246,3.983,4.8,6.654,8.5,8.239a38.523,38.523,0,0,0,13.383,2.7c3.025.139,6.041.074,9.066-.037" transform="translate(-466.847 -45.751)" fill="#424161"/><path d="M710.41,114.875a22.074,22.074,0,0,1-5.564,2.037,32.326,32.326,0,0,1-6.615.935c-.539.013-1.08.02-1.619,0,.822-.2,1.658-.339,2.487-.5,1.1-.216,2.2-.416,3.291-.641s2.218-.423,3.318-.676c1.06-.244,2.118-.5,3.18-.74.512-.115,1.011-.292,1.523-.413" transform="translate(-555.149 -91.548)" fill="#424161"/><path d="M524.805,122.86c-3.848-.818-5.162-10.11-12.671-15.178-8.259.939-19.076-1.432-25.974-5.563-11.476,11.476-9.317,19.009-13.432,20.471-3.109-3.254-8.049-3.676-7.57,2.581s2.631,12.014,8.437,12.014c.859,4.661,3.569,15.919,11.133,22.7.021,5.181-1.173,11.558-3.6,12.65,9.98,14.392,27.629,13.641,36.119,0-2.428-1.093-3.613-7.484-3.592-12.668,7.551-6.787,10.262-18.029,11.12-22.686,5.806,0,7.968-5.757,8.447-12.014s-5.31-5.565-8.42-2.311" transform="translate(-370.672 -81.382)" fill="#e68f65"/><path d="M561.656,386.533c8.071,10.4,21.712,10.647,28.929-.017-5.268,5.268-18.543,8.975-28.929.017" transform="translate(-447.599 -308.026)" fill="#cc7143"/><path d="M612.473,238.656c-1.879.553-4.061.807-5.844-.2a2.876,2.876,0,0,1-1.581-2.393,3.249,3.249,0,0,1,1.359-2.485c1.123-.918,2.316-1.747,3.35-2.772a10.57,10.57,0,0,0,1.532-1.827,5.037,5.037,0,0,0,.719-1.974,4.778,4.778,0,0,1-.127,1.265,5.187,5.187,0,0,1-.62,1.411,11.778,11.778,0,0,1-2.093,2.481c-.716.675-1.488,1.276-2.25,1.9a2.6,2.6,0,0,0-1.167,2.215c.18,1.417,1.751,2.094,2.977,2.349a11.694,11.694,0,0,0,3.744.031" transform="translate(-482.18 -180.909)" fill="#cc7143"/><path d="M682.984,226.366a1.737,1.737,0,1,1-1.736-1.771,1.754,1.754,0,0,1,1.736,1.771" transform="translate(-541.521 -178.987)" fill="#2d2c42"/><path d="M676.123,217.889a3.554,3.554,0,0,1,2.409-.8,3.718,3.718,0,0,1,2.409.8c-.384.016-.767-.046-1.151-.048-.462-.01-.923-.037-1.386-.039-.761,0-1.522.048-2.281.087" transform="translate(-538.821 -173.006)" fill="#cc7143"/><path d="M659.275,188.374c-.912-.912,1.173-3.3,5.662-2.878,4.693.438,6.1,2.116,5.913,3.117s-2.941-.9-6.07-.333-4.6,1-5.506.094" transform="translate(-525.227 -147.789)" fill="#2d2c42"/><path d="M568.707,226.366a1.737,1.737,0,1,0,1.736-1.771,1.753,1.753,0,0,0-1.736,1.771" transform="translate(-453.218 -178.987)" fill="#2d2c42"/><path d="M570.288,217.889c-.739-.039-1.479-.089-2.219-.088-.462,0-.922.016-1.384.038-.4.018-.812.067-1.216.05a3.718,3.718,0,0,1,2.409-.8,3.555,3.555,0,0,1,2.409.8" transform="translate(-450.639 -173.006)" fill="#cc7143"/><path d="M559.727,188.374c.912-.912-1.173-3.3-5.663-2.878-4.693.438-6.1,2.116-5.913,3.117s2.941-.9,6.07-.333,4.6,1,5.506.094" transform="translate(-436.823 -147.789)" fill="#2d2c42"/><path d="M486.889,217.337c-1.674-2.753-3.109-3.817-3.588-1.564s1.944,7.227,3.588,5.507c-.9-1.752-1.136-1.877,0-3.942" transform="translate(-385.107 -170.983)" fill="#cc7143"/><path d="M764.56,217.337c1.674-2.753,3.109-3.817,3.588-1.564S766.2,223,764.56,221.279c.9-1.752,1.136-1.877,0-3.942" transform="translate(-609.299 -170.983)" fill="#cc7143"/><path d="M597.648,313.928c3.89,6.445,9.772,7.071,14.259,0a31.356,31.356,0,0,1-14.259,0" transform="translate(-476.282 -250.179)" fill="#fff"/><path d="M430.772,837.823a2.06,2.06,0,0,1-1.989,2.07H318.274a2.06,2.06,0,0,1-1.989-2.07l-8.841-78.636a1.951,1.951,0,0,1,1.989-1.944h128.19a1.951,1.951,0,0,1,1.989,1.944Z" transform="translate(-245.011 -603.469)" fill="#413f61"/><path d="M600.582,946.24c0,1.951-3.427,3.533-7.654,3.533s-7.654-1.582-7.654-3.533,3.427-3.532,7.654-3.532,7.654,1.582,7.654,3.532" transform="translate(-466.421 -751.271)" fill="#908fb3"/><g transform="translate(70.783 157.66)" opacity="0.1"><g clip-path="url(#e)"><path d="M348.562,848.632l.491,4.441a2.06,2.06,0,0,0,1.989,2.071H461.551a2.06,2.06,0,0,0,1.989-2.071l8.616-76.694Z" transform="translate(-348.562 -776.379)"/></g></g></g></g></g></svg>