<svg xmlns="http://www.w3.org/2000/svg" width="110.879" height="127.984" viewBox="0 0 110.879 127.984"><g transform="translate(-45.379 -13.035)"><path d="M222.121,395.4H185.188c2.949-4.171,5.392-14.916,4.335-23.213h28c-1.057,8.3,1.645,19.043,4.594,23.213Z" transform="translate(-102.833 -264.167)" fill="#cad0d7" fill-rule="evenodd"/><path d="M147.278,454.528h50.1a4.683,4.683,0,0,1,0,9.366h-50.1a4.683,4.683,0,0,1,0-9.366Z" transform="translate(-71.505 -324.73)" fill="#a9b0bb" fill-rule="evenodd"/><path d="M153.917,92.942a5.649,5.649,0,0,1,5.651,5.651v63.557a7.7,7.7,0,0,1-7.689,7.7H60.1a7.7,7.7,0,0,1-7.7-7.7V100.637a7.692,7.692,0,0,1,7.7-7.7Z" transform="translate(-5.17 -58.774)" fill="#cad0d7" fill-rule="evenodd"/><path d="M69.3,162.5h98.231V111.019a1.187,1.187,0,0,0-1.19-1.183H72.529a3.225,3.225,0,0,0-3.227,3.227Z" transform="translate(-17.596 -71.2)" fill="#4fc0e8" fill-rule="evenodd"/><path d="M159.569,325.863v7.607a7.7,7.7,0,0,1-7.689,7.7H60.1a7.7,7.7,0,0,1-7.7-7.7v-7.607Z" transform="translate(-5.17 -230.093)" fill="#a9b0bb" fill-rule="evenodd"/><path d="M204.523,21.371a1.322,1.322,0,0,0-1.322-1.322H159.51l-11.669,11.67V90.5a1.322,1.322,0,0,0,1.322,1.322H203.2a1.322,1.322,0,0,0,1.322-1.322V21.371Z" transform="translate(-75.363 -5.159)" fill="#f4f6f8" fill-rule="evenodd"/><path d="M159.51,20.049V30.4a1.322,1.322,0,0,1-1.322,1.322H147.841Z" transform="translate(-75.363 -5.159)" fill="#e4e8eb" fill-rule="evenodd"/><path d="M85.078,112.917H54.927a9.543,9.543,0,0,1-9.548-9.541V41.854a9.544,9.544,0,0,1,9.548-9.548h15.7v-5.75a1.851,1.851,0,0,1,.542-1.309L82.838,13.577a1.852,1.852,0,0,1,1.309-.542h45.012a1.851,1.851,0,0,1,1.851,1.851v17.42h17.744a7.506,7.506,0,0,1,7.5,7.5v63.566a9.542,9.542,0,0,1-9.542,9.541H116.327a41.622,41.622,0,0,0,3.242,15.032h6.3a6.535,6.535,0,1,1,0,13.07H75.77a6.535,6.535,0,1,1,0-13.07h6.286a41.62,41.62,0,0,0,3.022-15.032ZM70.626,36.009h-15.7a5.843,5.843,0,0,0-5.845,5.845V93.91H152.555v-54.1a3.8,3.8,0,0,0-3.8-3.8H131.01V86.663a1.851,1.851,0,0,1-1.851,1.851H72.478a1.851,1.851,0,0,1-1.851-1.851Zm-21.545,61.6v5.763a5.841,5.841,0,0,0,5.845,5.839h91.789a5.839,5.839,0,0,0,5.839-5.839V97.612Zm66.477,30.337a47.427,47.427,0,0,1-2.935-15.032H88.78a47.733,47.733,0,0,1-2.733,15.032Zm-32.365,3.7H75.77a2.832,2.832,0,1,0,0,5.665h50.1a2.832,2.832,0,1,0,0-5.665H83.194Zm13.393-26.387a1.851,1.851,0,0,1,0-3.7h8.463a1.851,1.851,0,0,1,0,3.7ZM82.3,19.356,76.947,24.7H82.3Zm-7.967,9.051v56.4h52.979V16.738H86v9.818a1.851,1.851,0,0,1-1.851,1.851ZM97.8,40.731l-.9-.6a1.851,1.851,0,1,1,2.067-3.072l4.951,3.331a1.852,1.852,0,0,1,.5,2.57l-3.335,4.952a1.851,1.851,0,1,1-3.071-2.068l1.045-1.552A14.172,14.172,0,1,0,114.99,58.352a1.851,1.851,0,1,1,3.7,0A17.874,17.874,0,1,1,97.8,40.731Zm6.028,20.088.9.6a1.851,1.851,0,0,1-2.067,3.072l-4.951-3.331a1.851,1.851,0,0,1-.5-2.57l3.335-4.952a1.851,1.851,0,1,1,3.071,2.068l-1.045,1.552A14.172,14.172,0,1,0,86.646,43.2a1.851,1.851,0,1,1-3.7,0,17.874,17.874,0,1,1,20.889,17.621Z" transform="translate(0)" fill-rule="evenodd"/></g></svg>