<svg xmlns="http://www.w3.org/2000/svg" width="93.333" height="93.346" viewBox="0 0 93.333 93.346"><g transform="translate(-2 -1.992)"><path d="M42.333,66.556,51.667,51H33Z" transform="translate(17.222 27.226)" fill="#d3ac5c"/><path d="M62.922,60.931l.992,6.736L58.2,64.392l-5.819,3.069,1.21-6.7L49,55.925l6.465-.866L58.448,49l2.784,6.162,6.434,1.1Z" transform="translate(26.111 26.115)" fill="#db735c"/><path d="M0,0H13.2V13.2H0Z" transform="translate(26.889 84.449) rotate(-45)" fill="#5eb8ab"/><path d="M18.556,63V53.667L10.778,49,3,53.667V63l7.778,4.667Z" transform="translate(0.556 26.115)" fill="#60a867"/><path d="M51.333,28,42,42H60.667Z" transform="translate(22.222 14.449)" fill="#60a867"/><path d="M13,28H25.444V40.444H13Z" transform="translate(6.111 14.449)" fill="#d3ac5c"/><circle cx="7.778" cy="7.778" r="7.778" transform="translate(40.889 3.56)" fill="#db735c"/><path d="M2.755,90.449l7.778,4.667a1.556,1.556,0,0,0,1.6,0l7.778-4.667a1.557,1.557,0,0,0,.755-1.334V79.782a1.557,1.557,0,0,0-.755-1.334l-6.354-3.812,11.61-16.77L34.3,74.834l-8.514,8.515a1.555,1.555,0,0,0,0,2.2l9.333,9.333a1.555,1.555,0,0,0,2.2,0l9.333-9.333a1.555,1.555,0,0,0,0-2.2l-9.17-9.17-9.547-17.73h3.617a1.555,1.555,0,0,0,1.556-1.556V42.449a1.555,1.555,0,0,0-1.556-1.556H29.088L48.7,21.28l22.829,21.4-8.6,12.9A1.555,1.555,0,0,0,64.222,58h6.485l-12,18.667H50.222a1.556,1.556,0,0,0-1.334,2.356l9.333,15.556a1.556,1.556,0,0,0,2.668,0l9.333-15.556a1.556,1.556,0,0,0-1.334-2.356H62.4L73.492,59.425l9.2,15.766-2.154,4.554L74.9,80.5a1.555,1.555,0,0,0-.922,2.612l4.047,4.268L76.958,93.3a1.557,1.557,0,0,0,2.257,1.653l5.063-2.67,4.974,2.848a1.555,1.555,0,0,0,2.312-1.576L90.688,87.6l4.182-4.12a1.556,1.556,0,0,0-.831-2.642l-5.633-.959-2.554-5.427c-.02-.042-.052-.075-.076-.115l.012-.007L76.264,58h6.624a1.555,1.555,0,0,0,1.294-2.418l-9.333-14a1.3,1.3,0,0,0-.269-.231l.038-.041L51.951,20.063a9.334,9.334,0,1,0-6.468.037L24.689,40.893H19.111a1.555,1.555,0,0,0-1.556,1.556V54.893a1.555,1.555,0,0,0,1.556,1.556h3.253L10.245,73.954l-7.49,4.494A1.557,1.557,0,0,0,2,79.782v9.333a1.557,1.557,0,0,0,.755,1.334Zm56.8.309L52.97,79.782H66.141ZM85.936,81.94a1.558,1.558,0,0,0,1.147.871l3.439.585-2.581,2.541a1.555,1.555,0,0,0-.447,1.335l.526,3.569-2.938-1.682a1.558,1.558,0,0,0-1.5-.027l-2.994,1.58.643-3.555a1.557,1.557,0,0,0-.4-1.347l-2.494-2.632,3.448-.461a1.557,1.557,0,0,0,1.2-.877l1.457-3.081ZM79.983,54.893H67.128l6.427-9.64ZM42.444,11.338a6.222,6.222,0,1,1,6.222,6.222,6.222,6.222,0,0,1-6.222-6.222ZM20.667,44H30v9.333H20.667ZM36.222,91.582l-7.134-7.134,7.134-7.134,7.134,7.134ZM5.111,80.663l6.222-3.734,6.222,3.734v7.571l-6.222,3.734L5.111,88.234Z" transform="translate(0 0)"/></g></svg>