<svg xmlns="http://www.w3.org/2000/svg" width="46.961" height="41.111" viewBox="0 0 46.961 41.111"><g transform="translate(0 0)"><g transform="translate(0 0)"><path d="M163.617,299.772a1.763,1.763,0,0,0-3.027,0L153,312.911a1.763,1.763,0,0,0,1.513,2.621h15.171a1.763,1.763,0,0,0,1.513-2.621ZM154.669,313.7,162.1,300.82l7.435,12.878Z" transform="translate(-138.763 -274.421)" fill="#036c49"/><path d="M334.34,59.322l-3.606-6.245a1.752,1.752,0,0,0-1.513-.874h-7.212a1.752,1.752,0,0,0-1.513.874l-3.606,6.245a1.752,1.752,0,0,0,0,1.748l3.606,6.245a1.752,1.752,0,0,0,1.513.874h7.212a1.752,1.752,0,0,0,1.513-.874l3.606-6.245A1.752,1.752,0,0,0,334.34,59.322Zm-5.169,7.032h-7.111L318.5,60.2l3.556-6.159h7.111l3.556,6.158Z" transform="translate(-287.612 -50.34)" fill="#036c49"/><path d="M15.986,66.44V64.231a.917.917,0,0,0-1.834,0v2.122H1.834V54.036H14.151v2.177a.917.917,0,0,0,1.834,0V53.95A1.75,1.75,0,0,0,14.238,52.2H1.748A1.75,1.75,0,0,0,0,53.95V66.44a1.75,1.75,0,0,0,1.748,1.748H14.238A1.75,1.75,0,0,0,15.986,66.44Z" transform="translate(0 -50.339)" fill="#036c49"/><path d="M155.962,129.79a.927.927,0,0,0-1.272-.253.917.917,0,0,0,1.018,1.525A.927.927,0,0,0,155.962,129.79Z" transform="translate(-140.13 -120.444)" fill="#036c49"/><path d="M193,34.376a16.345,16.345,0,0,1,10.838.6.917.917,0,0,0,.708-1.693,18.179,18.179,0,0,0-12.06-.668A.917.917,0,1,0,193,34.376Z" transform="translate(-174.232 -31.891)" fill="#036c49"/><path d="M68.863,259.017a.917.917,0,0,0-.31-1.26,16.192,16.192,0,0,1-7.692-11.643.917.917,0,0,0-1.817.254A18.019,18.019,0,0,0,67.6,259.327a.926.926,0,0,0,1.26-.31Z" transform="translate(-53.62 -225.747)" fill="#036c49"/><path d="M355.109,247.863a.917.917,0,0,0-1.046.767,16.273,16.273,0,0,1-7.217,11.146.917.917,0,0,0,1,1.538,18.109,18.109,0,0,0,8.03-12.4A.917.917,0,0,0,355.109,247.863Z" transform="translate(-314.653 -228.044)" fill="#036c49"/></g></g></svg>