<svg xmlns="http://www.w3.org/2000/svg" width="86.455" height="73.67" viewBox="0 0 86.455 73.67"><g transform="translate(0 0)"><g transform="translate(43.681 42.164)"><path d="M244.357,386.78h4.733a.961.961,0,0,1,.959.959v9.667a.961.961,0,0,1-.959.959h-4.733a.961.961,0,0,1-.959-.959v-9.667A.961.961,0,0,1,244.357,386.78Z" transform="translate(-243.398 -368.739)" fill="#fc685b" fill-rule="evenodd"/><path d="M317.02,306.456h4.733a.961.961,0,0,1,.959.959v22.506a.961.961,0,0,1-.959.959H317.02a.961.961,0,0,1-.959-.959V307.415A.961.961,0,0,1,317.02,306.456Z" transform="translate(-304.447 -301.254)" fill="#72d561" fill-rule="evenodd"/><path d="M389.683,341h4.733a.961.961,0,0,1,.959.959v16.984a.961.961,0,0,1-.959.959h-4.733a.961.961,0,0,1-.959-.959V341.959A.961.961,0,0,1,389.683,341Z" transform="translate(-365.495 -330.277)" fill="#ffda2d" fill-rule="evenodd"/><path d="M462.345,273.912h4.733a.961.961,0,0,1,.959.959v27.708a.961.961,0,0,1-.959.959h-4.733a.961.961,0,0,1-.959-.959V274.871A.961.961,0,0,1,462.345,273.912Z" transform="translate(-426.543 -273.912)" fill="#64b5f6" fill-rule="evenodd"/></g><g transform="translate(6.215 41.66)"><path d="M9.955,421.175h4.771a.962.962,0,0,1,.959.959v4.771a.962.962,0,0,1-.959.959H9.955A.962.962,0,0,1,9,426.905v-4.771A.962.962,0,0,1,9.955,421.175Z" transform="translate(-8.996 -397.132)" fill="#ffda2d" fill-rule="evenodd"/><path d="M9.955,345.966h4.771a.962.962,0,0,1,.959.959V351.7a.962.962,0,0,1-.959.959H9.955A.962.962,0,0,1,9,351.7v-4.771A.962.962,0,0,1,9.955,345.966Z" transform="translate(-8.996 -333.945)" fill="#72d561" fill-rule="evenodd"/><path d="M9.955,270.757h4.771a.962.962,0,0,1,.959.959v4.771a.962.962,0,0,1-.959.959H9.955A.962.962,0,0,1,9,276.487v-4.771A.962.962,0,0,1,9.955,270.757Z" transform="translate(-8.996 -270.757)" fill="#64b5f6" fill-rule="evenodd"/></g><circle cx="15.003" cy="15.003" r="15.003" transform="translate(0 21.214) rotate(-45)" fill="#64b5f6"/><path d="M102.857,48.984v15l13.779,5.944a15.01,15.01,0,0,0-13.779-20.947Z" transform="translate(-81.64 -42.772)" fill="#ffda2d" fill-rule="evenodd"/><path d="M69.285,148.787l-13.779-5.944-9.009,12a15.008,15.008,0,0,0,22.788-6.053Z" transform="translate(-34.288 -121.629)" fill="#72d561" fill-rule="evenodd"/><ellipse cx="6.297" cy="6.297" rx="6.297" ry="6.297" transform="matrix(0.987, -0.16, 0.16, 0.987, 13.99, 16.008)" fill="#eff4f7"/></g><path d="M7.688,107.16H3.557v-4.132H7.688Zm1.279-6.689H2.278A1.278,1.278,0,0,0,1,101.749v6.689a1.278,1.278,0,0,0,1.279,1.279H8.967a1.278,1.278,0,0,0,1.279-1.279v-6.689A1.278,1.278,0,0,0,8.967,100.471Zm23.4,7.367a1.278,1.278,0,0,1-1.279,1.279h-16.2a1.279,1.279,0,1,1,0-2.557h16.2A1.278,1.278,0,0,1,32.366,107.838Zm0-5.486a1.28,1.28,0,0,1-1.279,1.279h-16.2a1.279,1.279,0,0,1,0-2.558h16.2A1.278,1.278,0,0,1,32.366,102.352ZM7.688,95.139H3.557V91.007H7.688Zm1.279-6.69H2.278A1.28,1.28,0,0,0,1,89.728v6.689A1.278,1.278,0,0,0,2.278,97.7H8.967a1.278,1.278,0,0,0,1.279-1.279V89.728A1.28,1.28,0,0,0,8.967,88.449Zm23.4,1.882a1.279,1.279,0,0,1-1.279,1.279h-16.2a1.279,1.279,0,1,1,0-2.557h16.2A1.278,1.278,0,0,1,32.366,90.331Zm0,5.486a1.278,1.278,0,0,1-1.279,1.279h-16.2a1.279,1.279,0,0,1,0-2.558h16.2A1.278,1.278,0,0,1,32.366,95.816ZM7.688,83.117H3.557V78.985H7.688Zm1.279-6.689H2.278A1.279,1.279,0,0,0,1,77.706V84.4a1.279,1.279,0,0,0,1.279,1.279H8.967A1.279,1.279,0,0,0,10.246,84.4V77.706A1.279,1.279,0,0,0,8.967,76.428ZM40.257,64.27a1.279,1.279,0,0,1,1.279-1.279h20.9a1.279,1.279,0,0,1,0,2.558h-20.9A1.279,1.279,0,0,1,40.257,64.27Zm0-7.009a1.279,1.279,0,0,1,1.279-1.279h20.9a1.279,1.279,0,1,1,0,2.557h-20.9A1.279,1.279,0,0,1,40.257,57.261Zm0-7.007a1.279,1.279,0,0,1,1.279-1.279h20.9a1.279,1.279,0,0,1,0,2.557h-20.9A1.28,1.28,0,0,1,40.257,50.254ZM30.333,61.5l-5.69-2.454A7.569,7.569,0,0,0,18.559,49.8V43.6A13.718,13.718,0,0,1,30.333,61.5ZM17.28,70.986a13.734,13.734,0,0,0,12.037-7.139l-5.692-2.455A7.561,7.561,0,0,1,13.822,64L10.1,68.952a13.642,13.642,0,0,0,7.178,2.033ZM3.557,57.261A13.741,13.741,0,0,1,16,43.6v6.2a7.567,7.567,0,0,0-4.223,12.663L8.057,67.416a13.693,13.693,0,0,1-4.5-10.155Zm8.706,0a5.019,5.019,0,1,0,5.018-5.018A5.023,5.023,0,0,0,12.263,57.261ZM17.28,40.98A16.281,16.281,0,1,0,33.562,57.261,16.3,16.3,0,0,0,17.28,40.98ZM32.366,78.309a1.278,1.278,0,0,1-1.279,1.279h-16.2a1.279,1.279,0,0,1,0-2.558h16.2A1.278,1.278,0,0,1,32.366,78.309Zm0,5.486a1.278,1.278,0,0,1-1.279,1.279h-16.2a1.279,1.279,0,0,1,0-2.558h16.2A1.278,1.278,0,0,1,32.366,83.794ZM66.172,77.73l8.961-8.273-1.677-.078a1.279,1.279,0,0,1,.12-2.555l4.9.231a1.279,1.279,0,0,1,1.2,1.506l-.876,4.823a1.278,1.278,0,0,1-1.258,1.05,1.244,1.244,0,0,1-.228-.021,1.278,1.278,0,0,1-1.03-1.487l.228-1.254-9.34,8.623a1.279,1.279,0,0,1-1.579.123L54.967,73.3,44.084,87.452a1.278,1.278,0,0,1-2.027-1.558l11.614-15.1a1.279,1.279,0,0,1,1.724-.283Zm13.788,28.829V79.49H75.867v27.069Zm1.279-29.626H74.587a1.278,1.278,0,0,0-1.279,1.279v29.626a1.278,1.278,0,0,0,1.279,1.279h6.651a1.278,1.278,0,0,0,1.279-1.279V78.211A1.278,1.278,0,0,0,81.239,76.933ZM45.116,106.559H41.023V97.531h4.093Zm1.279-11.585H39.744a1.278,1.278,0,0,0-1.279,1.279v11.585a1.278,1.278,0,0,0,1.279,1.279h6.651a1.279,1.279,0,0,0,1.279-1.279V96.252A1.279,1.279,0,0,0,46.395,94.974Zm10.337,11.585V84.691h-4.1v21.868ZM58.01,82.134H51.358a1.281,1.281,0,0,0-1.279,1.279v24.425a1.28,1.28,0,0,0,1.279,1.279H58.01a1.28,1.28,0,0,0,1.279-1.279V83.412A1.281,1.281,0,0,0,58.01,82.134Zm10.336,24.425H64.252V90.214h4.093Zm1.279-18.9H62.974A1.278,1.278,0,0,0,61.7,88.935v18.9a1.278,1.278,0,0,0,1.279,1.279h6.651a1.278,1.278,0,0,0,1.279-1.279v-18.9A1.278,1.278,0,0,0,69.624,87.657Z" transform="translate(3.938 -36.047)" fill-rule="evenodd"/></svg>