<svg xmlns="http://www.w3.org/2000/svg" width="41.335" height="41.336" viewBox="0 0 41.335 41.336"><g transform="translate(0.25 0.25)"><path d="M20.418,0A20.418,20.418,0,1,0,40.835,20.418,20.441,20.441,0,0,0,20.418,0Zm0,39.56A19.142,19.142,0,1,1,39.559,20.418,19.164,19.164,0,0,1,20.418,39.56Z" transform="translate(0 0)" fill="#036c49"/><path d="M20.418-.25A20.668,20.668,0,1,1-.25,20.418,20.691,20.691,0,0,1,20.418-.25Zm0,40.836A20.168,20.168,0,1,0,.25,20.418,20.191,20.191,0,0,0,20.418,40.586Zm0-39.56A19.392,19.392,0,1,1,1.026,20.418,19.414,19.414,0,0,1,20.418,1.026Zm0,38.284A18.892,18.892,0,1,0,1.526,20.418,18.913,18.913,0,0,0,20.418,39.31Z" transform="translate(0 0)" fill="#036c49"/><path d="M18.638,24.381a.637.637,0,0,0,.638-.638V19.914a.638.638,0,0,1,.638-.638h3.828a.638.638,0,0,0,0-1.276H19.914A1.917,1.917,0,0,0,18,19.914v3.828A.637.637,0,0,0,18.638,24.381Z" transform="translate(-6.515 -6.515)" fill="#036c49"/><path d="M18.638,24.631a.889.889,0,0,1-.888-.888V19.914a2.167,2.167,0,0,1,2.164-2.164h3.828a.888.888,0,0,1,0,1.776H19.914a.389.389,0,0,0-.388.388v3.828A.889.889,0,0,1,18.638,24.631Zm1.276-6.381a1.666,1.666,0,0,0-1.664,1.664v3.828a.388.388,0,1,0,.776,0V19.914a.889.889,0,0,1,.888-.888h3.828a.388.388,0,0,0,0-.776Z" transform="translate(-6.515 -6.515)" fill="#036c49"/><path d="M40.466,18H36.638a.638.638,0,0,0,0,1.276h3.828a.638.638,0,0,1,.638.638v3.828a.638.638,0,1,0,1.276,0V19.914A1.917,1.917,0,0,0,40.466,18Z" transform="translate(-13.03 -6.515)" fill="#036c49"/><path d="M36.638,17.75h3.828a2.167,2.167,0,0,1,2.164,2.164v3.828a.888.888,0,1,1-1.776,0V19.914a.389.389,0,0,0-.388-.388H36.638a.888.888,0,0,1,0-1.776Zm5.1,6.381a.388.388,0,0,0,.388-.388V19.914a1.666,1.666,0,0,0-1.664-1.664H36.638a.388.388,0,0,0,0,.776h3.828a.889.889,0,0,1,.888.888v3.828A.388.388,0,0,0,41.742,24.131Z" transform="translate(-13.03 -6.515)" fill="#036c49"/><path d="M41.742,36a.637.637,0,0,0-.638.638v3.828a.638.638,0,0,1-.638.638H36.638a.638.638,0,0,0,0,1.276h3.828a1.917,1.917,0,0,0,1.914-1.914V36.638A.637.637,0,0,0,41.742,36Z" transform="translate(-13.03 -13.03)" fill="#036c49"/><path d="M41.742,35.75a.889.889,0,0,1,.888.888v3.828a2.167,2.167,0,0,1-2.164,2.164H36.638a.888.888,0,0,1,0-1.776h3.828a.389.389,0,0,0,.388-.388V36.638A.889.889,0,0,1,41.742,35.75Zm-1.276,6.381a1.666,1.666,0,0,0,1.664-1.664V36.638a.388.388,0,1,0-.776,0v3.828a.889.889,0,0,1-.888.888H36.638a.388.388,0,0,0,0,.776Z" transform="translate(-13.03 -13.03)" fill="#036c49"/><path d="M23.742,41.1H19.914a.638.638,0,0,1-.638-.638V36.638a.638.638,0,1,0-1.276,0v3.828a1.917,1.917,0,0,0,1.914,1.914h3.828a.638.638,0,0,0,0-1.276Z" transform="translate(-6.515 -13.03)" fill="#036c49"/><path d="M23.742,42.631H19.914a2.167,2.167,0,0,1-2.164-2.164V36.638a.888.888,0,1,1,1.776,0v3.828a.388.388,0,0,0,.388.388h3.828a.888.888,0,0,1,0,1.776Zm-5.1-6.381a.389.389,0,0,0-.388.388v3.828a1.666,1.666,0,0,0,1.664,1.664h3.828a.388.388,0,0,0,0-.776H19.914a.889.889,0,0,1-.888-.888V36.638A.389.389,0,0,0,18.638,36.25Z" transform="translate(-6.515 -13.03)" fill="#036c49"/><path d="M30.552,28A2.552,2.552,0,1,0,33.1,30.552,2.555,2.555,0,0,0,30.552,28Zm0,3.828a1.276,1.276,0,1,1,1.276-1.276A1.277,1.277,0,0,1,30.552,31.828Z" transform="translate(-10.134 -10.134)" fill="#036c49"/><path d="M30.552,27.75a2.8,2.8,0,1,1-2.8,2.8A2.805,2.805,0,0,1,30.552,27.75Zm0,5.1a2.3,2.3,0,1,0-2.3-2.3A2.3,2.3,0,0,0,30.552,32.855Zm0-3.828a1.526,1.526,0,1,1-1.526,1.526A1.528,1.528,0,0,1,30.552,29.026Zm0,2.552a1.026,1.026,0,1,0-1.026-1.026A1.027,1.027,0,0,0,30.552,31.578Z" transform="translate(-10.134 -10.134)" fill="#036c49"/></g></svg>