<svg xmlns="http://www.w3.org/2000/svg" xmlns:xlink="http://www.w3.org/1999/xlink" width="136" height="136" viewBox="0 0 136 136"><defs><filter id="a" x="0" y="0" width="136" height="136" filterUnits="userSpaceOnUse"><feOffset dy="3" input="SourceAlpha"/><feGaussianBlur stdDeviation="3" result="b"/><feFlood flood-opacity="0.161"/><feComposite operator="in" in2="b"/><feComposite in="SourceGraphic"/></filter></defs><g transform="translate(-732.859 -987.579)"><g transform="translate(-48.141 -4584.084)"><g transform="matrix(1, 0, 0, 1, 781, 5571.66)" filter="url(#a)"><circle cx="59" cy="59" r="59" transform="translate(9 6)" fill="#fff"/></g></g><g transform="translate(768.67 1023.243)"><path d="M52.385,21.014a8.023,8.023,0,0,0-1.077.074c.026-.384.039-.751.039-1.112A19.549,19.549,0,0,0,49.3,11.2a1.039,1.039,0,0,0-1.862.925A17.255,17.255,0,0,1,49.1,22.266,1.038,1.038,0,0,0,50.415,23.4a7.17,7.17,0,0,1,1.969-.308,7.269,7.269,0,1,1,0,14.538H12.923a9.34,9.34,0,1,1,.071-18.68c.02,0,.037,0,.049,0a1.04,1.04,0,0,0,1.032-.925,17.475,17.475,0,0,1,1.848-6.13,1.039,1.039,0,0,0-1.846-.953,19.557,19.557,0,0,0-1.945,5.947,11.423,11.423,0,0,0,.791,22.818H30.577v2.182a5.206,5.206,0,0,0-4.049,4.049H15a1.038,1.038,0,1,0,0,2.077H26.528a5.192,5.192,0,0,0,10.175,0H48.231a1.038,1.038,0,1,0,0-2.077H36.7a5.206,5.206,0,0,0-4.049-4.049V39.706H52.385a9.346,9.346,0,1,0,0-18.692ZM34.731,46.975a3.115,3.115,0,1,1-3.115-3.115A3.119,3.119,0,0,1,34.731,46.975Z" transform="translate(-1.5 7.983)" fill="#114d74"/><path d="M18.747,36.509a.979.979,0,0,0,.122.007,1.038,1.038,0,0,0,.118-2.07c-5.235-.606-7.409-2.17-7.409-2.873V26.156c2.52,1.516,6.983,2.3,11.423,2.3s8.9-.786,11.423-2.3v5.418c0,.7-2.174,2.267-7.409,2.873a1.038,1.038,0,0,0,.118,2.07.979.979,0,0,0,.122-.007c5.791-.67,9.247-2.516,9.247-4.936V6.651c0-6.817-27-6.817-27,0V31.574c0,2.42,3.456,4.265,9.247,4.936ZM34.423,14.958c0,1.058-4.032,3.115-11.423,3.115s-11.423-2.058-11.423-3.115V9.541c2.52,1.516,6.983,2.3,11.423,2.3s8.9-.786,11.423-2.3ZM23,26.381c-7.391,0-11.423-2.058-11.423-3.115V17.848c2.52,1.516,6.983,2.3,11.423,2.3s8.9-.786,11.423-2.3v5.418C34.423,24.324,30.391,26.381,23,26.381ZM23,3.536c7.391,0,11.423,2.058,11.423,3.115S30.391,9.766,23,9.766,11.577,7.709,11.577,6.651,15.609,3.536,23,3.536Z" transform="translate(7.115 -1.538)" fill="#114d74"/><ellipse cx="1.038" cy="1.038" rx="1.038" ry="1.038" transform="translate(29.077 33.151)" fill="#114d74"/></g></g></svg>