<svg xmlns="http://www.w3.org/2000/svg" xmlns:xlink="http://www.w3.org/1999/xlink" width="136" height="136" viewBox="0 0 136 136"><defs><filter id="a" x="0" y="0" width="136" height="136" filterUnits="userSpaceOnUse"><feOffset dy="3" input="SourceAlpha"/><feGaussianBlur stdDeviation="3" result="b"/><feFlood flood-opacity="0.161"/><feComposite operator="in" in2="b"/><feComposite in="SourceGraphic"/></filter></defs><g transform="translate(-379.859 -987.58)"><g transform="translate(-93.141 -4588.153)"><g transform="matrix(1, 0, 0, 1, 473, 5575.73)" filter="url(#a)"><circle cx="59" cy="59" r="59" transform="translate(9 6)" fill="#fff"/></g></g><g transform="translate(418.738 1021.243)"><path d="M21.923,8.833c-5.5,0-11.423,1.408-11.423,4.5V34.1c0,3.093,5.921,4.5,11.423,4.5S33.346,37.2,33.346,34.1V13.334C33.346,10.241,27.426,8.833,21.923,8.833ZM31.269,27.18c0,.7-3.276,2.422-9.346,2.422s-9.346-1.718-9.346-2.422V22.988c2.21,1.2,5.86,1.769,9.346,1.769s7.137-.568,9.346-1.769Zm0-6.924c0,.7-3.276,2.424-9.346,2.424s-9.346-1.72-9.346-2.424V16.065c2.21,1.2,5.86,1.769,9.346,1.769s7.137-.568,9.346-1.769v4.19ZM21.923,10.91c6.071,0,9.346,1.72,9.346,2.424s-3.276,2.424-9.346,2.424-9.346-1.72-9.346-2.424S15.853,10.91,21.923,10.91Zm0,25.616c-6.071,0-9.346-1.72-9.346-2.424V29.91c2.21,1.2,5.86,1.768,9.346,1.768s7.137-.568,9.346-1.768V34.1C31.269,34.806,27.994,36.526,21.923,36.526Z" transform="translate(8.192 6.397)" fill="#114d74"/><path d="M16.384,22.5H2.538A1.038,1.038,0,0,0,1.5,23.538V33.923a1.038,1.038,0,0,0,1.038,1.038H6.346v2.077H5.308a1.038,1.038,0,1,0,0,2.077h8.308a1.038,1.038,0,1,0,0-2.077H12.577V34.961h3.807a1.038,1.038,0,0,0,1.038-1.038V23.538A1.038,1.038,0,0,0,16.384,22.5ZM10.5,37.038H8.423V34.961H10.5Zm4.845-4.154H3.577V24.577H15.346Z" transform="translate(-1.5 21.115)" fill="#114d74"/><path d="M37.718,22.5H23.871a1.038,1.038,0,0,0-1.038,1.038V33.923a1.038,1.038,0,0,0,1.038,1.038h3.809v2.077H26.642a1.038,1.038,0,1,0,0,2.077H34.95a1.038,1.038,0,1,0,0-2.077H33.911V34.961h3.807a1.038,1.038,0,0,0,1.038-1.038V23.538A1.038,1.038,0,0,0,37.718,22.5ZM31.834,37.038H29.757V34.961h2.077Zm4.845-4.154H24.91V24.577H36.68Z" transform="translate(21.474 21.115)" fill="#114d74"/><path d="M37.718,1.5H23.871a1.038,1.038,0,0,0-1.038,1.038V12.923a1.038,1.038,0,0,0,1.038,1.038h3.809v2.077H26.642a1.038,1.038,0,1,0,0,2.077H34.95a1.038,1.038,0,1,0,0-2.077H33.911V13.961h3.807a1.038,1.038,0,0,0,1.038-1.038V2.538A1.038,1.038,0,0,0,37.718,1.5ZM31.834,16.038H29.757V13.961h2.077Zm4.845-4.154H24.91V3.577H36.68Z" transform="translate(21.474 -1.5)" fill="#114d74"/><path d="M16.384,1.5H2.538A1.038,1.038,0,0,0,1.5,2.538V12.923a1.038,1.038,0,0,0,1.038,1.038H6.346v2.077H5.308a1.038,1.038,0,1,0,0,2.077h8.308a1.038,1.038,0,1,0,0-2.077H12.577V13.961h3.807a1.038,1.038,0,0,0,1.038-1.038V2.538A1.038,1.038,0,0,0,16.384,1.5ZM10.5,16.038H8.423V13.961H10.5Zm4.845-4.154H3.577V3.577H15.346Z" transform="translate(-1.5 -1.5)" fill="#114d74"/><path d="M6.91,32.313V11.538a1.038,1.038,0,0,0-2.077,0V32.313a1.038,1.038,0,0,0,2.077,0Z" transform="translate(2.09 8.192)" fill="#114d74"/><path d="M28.244,32.313V11.538a1.038,1.038,0,0,0-2.077,0V32.313a1.038,1.038,0,0,0,2.077,0Z" transform="translate(25.064 8.192)" fill="#114d74"/><path d="M17.769,25.51H11.538a1.038,1.038,0,1,0,0,2.077h6.231a1.038,1.038,0,1,0,0-2.077Z" transform="translate(8.192 24.356)" fill="#114d74"/><path d="M24.769,25.51H18.538a1.038,1.038,0,1,0,0,2.077h6.231a1.038,1.038,0,1,0,0-2.077Z" transform="translate(15.731 24.356)" fill="#114d74"/><path d="M32.311,5.5H11.535a1.038,1.038,0,1,0,0,2.077H32.311a1.038,1.038,0,1,0,0-2.077Z" transform="translate(8.189 2.808)" fill="#114d74"/><ellipse cx="0.5" cy="1" rx="0.5" ry="1" transform="translate(30 49.999)" fill="#114d74"/></g></g></svg>