<svg xmlns="http://www.w3.org/2000/svg" width="100.761" height="88.705" viewBox="0 0 100.761 88.705"><path d="M96.075,30.629h-46.9a1.476,1.476,0,1,0,0,2.952h46.9a1.736,1.736,0,0,1,1.734,1.734v7.839H2.952v-7.84a1.736,1.736,0,0,1,1.734-1.734h37.6a1.476,1.476,0,1,0,0-2.952H4.686A4.691,4.691,0,0,0,0,35.315v79.333a4.691,4.691,0,0,0,4.686,4.686H33.092a1.476,1.476,0,1,0,0-2.952H4.686a1.736,1.736,0,0,1-1.734-1.734V82.792H9.027a1.476,1.476,0,1,0,0-2.952H2.952V46.106H48.9V79.84H15.915a1.476,1.476,0,1,0,0,2.952H48.9v33.589H39.98a1.476,1.476,0,0,0,0,2.952h56.1a4.691,4.691,0,0,0,4.686-4.686V35.315A4.691,4.691,0,0,0,96.075,30.629Zm1.734,84.019a1.736,1.736,0,0,1-1.734,1.734H51.856V82.792H97.809Zm0-34.808H51.856V46.106H97.809Z" transform="translate(0 -30.629)" fill="#114d74"/><path d="M74.224,151.8A14.014,14.014,0,1,0,60.21,137.788,14.03,14.03,0,0,0,74.224,151.8Zm0-2.952a11.048,11.048,0,0,1-8.75-4.306l3.893-2.247a6.617,6.617,0,0,0,9.714,0l3.893,2.248A11.047,11.047,0,0,1,74.224,148.85ZM75.7,126.828a11.055,11.055,0,0,1,8.754,15.163l-3.893-2.248a6.631,6.631,0,0,0-4.861-8.418Zm2.2,10.96a3.679,3.679,0,1,1-3.679-3.679A3.683,3.683,0,0,1,77.9,137.788Zm-14.741,0a11.076,11.076,0,0,1,9.586-10.96v4.5a6.631,6.631,0,0,0-4.861,8.418l-3.893,2.248A11,11,0,0,1,63.162,137.788Z" transform="translate(-48.361 -105.443)" fill="#114d74"/><path d="M300.04,151.8h30.014a1.476,1.476,0,0,0,1.476-1.476v-9.094a1.476,1.476,0,1,0-2.952,0v7.618h-4.552V126.722h4.552v7.618a1.476,1.476,0,0,0,2.952,0v-9.094a1.476,1.476,0,0,0-1.476-1.476h-7.5a1.476,1.476,0,0,0-1.476,1.476v4.066h-6.027a1.476,1.476,0,0,0-1.476,1.476v4.065h-6.027a1.476,1.476,0,0,0-1.476,1.476v3.9H300.04a1.476,1.476,0,0,0-1.476,1.476v8.615A1.476,1.476,0,0,0,300.04,151.8Zm16.483-19.534h4.551v16.582h-4.551Zm-7.5,5.541h4.552v11.041h-4.552Zm-7.5,5.377h4.551v5.663h-4.551Z" transform="translate(-239.807 -105.44)" fill="#114d74"/><path d="M76.6,349.254a4.5,4.5,0,0,0-6.984-3.763L66.69,342.56a4.507,4.507,0,1,0-8.109,0L55.941,345.2a4.5,4.5,0,0,0-3.934,0l-2.639-2.639a4.509,4.509,0,1,0-2.087,2.087l2.639,2.639a4.507,4.507,0,1,0,8.109,0l2.639-2.639a4.5,4.5,0,0,0,3.934,0l3.21,3.21a4.507,4.507,0,1,0,8.792,1.4Zm-31.291-7.106a1.555,1.555,0,1,1,1.555-1.555A1.557,1.557,0,0,1,45.313,342.149Zm8.661,8.661a1.555,1.555,0,1,1,1.555-1.555A1.557,1.557,0,0,1,53.974,350.809Zm8.661-8.661a1.555,1.555,0,1,1,1.555-1.555A1.557,1.557,0,0,1,62.635,342.149Zm7.907,7.106a1.555,1.555,0,1,1,1.555,1.555A1.557,1.557,0,0,1,70.542,349.254Z" transform="translate(-32.775 -275.973)" fill="#114d74"/><path d="M300.3,335.52h24.052a4.616,4.616,0,1,0,0-9.233H300.3a4.616,4.616,0,0,0,0,9.233Zm6.513-6.281h17.539a1.664,1.664,0,1,1,0,3.329H306.815Zm-6.513,0h3.561v3.329H300.3a1.664,1.664,0,0,1,0-3.329Z" transform="translate(-237.495 -268.102)" fill="#114d74"/><path d="M300.3,400.116h24.052a4.616,4.616,0,1,0,0-9.233H300.3a4.616,4.616,0,0,0,0,9.233Zm20.687-6.281h3.365a1.664,1.664,0,1,1,0,3.329h-3.365Zm-20.687,0h17.735v3.329H300.3a1.664,1.664,0,0,1,0-3.329Z" transform="translate(-237.495 -319.986)" fill="#114d74"/><g transform="translate(6.803 6.264)"><ellipse cx="1.476" cy="1.476" rx="1.476" ry="1.476" fill="#114d74"/><ellipse cx="1.476" cy="1.476" rx="1.476" ry="1.476" transform="translate(6.715)" fill="#114d74"/><ellipse cx="1.476" cy="1.476" rx="1.476" ry="1.476" transform="translate(13.43)" fill="#114d74"/></g></svg>