<svg xmlns="http://www.w3.org/2000/svg" width="85" height="90" viewBox="0 0 85 90"><g transform="translate(-180.051 -1294)"><g transform="translate(0 94)"><rect width="85" height="90" rx="14" transform="translate(180.051 1200)" fill="#eaf8fd"/><g transform="translate(168.997 1193.7)"><g transform="translate(21.162 19.299)"><circle cx="3.247" cy="3.247" r="3.247" transform="translate(28.979 0)" fill="#19cfba"/><circle cx="3.247" cy="3.247" r="3.247" transform="translate(49.066 8.32)" fill="#19cfba"/><circle cx="3.247" cy="3.247" r="3.247" transform="translate(56.03 31.656) rotate(-45)" fill="#19cfba"/><circle cx="3.247" cy="3.247" r="3.247" transform="translate(49.066 48.492)" fill="#19cfba"/><circle cx="3.247" cy="3.247" r="3.247" transform="translate(8.893 48.492)" fill="#19cfba"/><ellipse cx="3.247" cy="3.247" rx="3.247" ry="3.247" transform="matrix(0.201, -0.98, 0.98, 0.201, 0, 34.177)" fill="#19cfba"/><circle cx="3.247" cy="3.247" r="3.247" transform="translate(8.893 8.32)" fill="#19cfba"/></g><circle cx="20.086" cy="20.086" r="20.086" transform="translate(33.216 30.794)" fill="#88c8fe"/><path d="M176.98,171.435c1.78-3.86,3.266-5.486,4.336-9.954.216-.9-.5-4.443-1.174-4.71-.326-.129-.311-.171-.512-.133.383-1.4.617-2.549.909-3.981a2.379,2.379,0,0,0-.777-2.146,1.443,1.443,0,0,0-1.676-.272c.237-1.352.3-2.269.455-3.634.23-2.084-2.355-4.838-3.335-4.172.04-.348-.08-.8-.045-1.151.1-.925-1.43-2.177-2.138-2.289a1.209,1.209,0,0,0-1.262.348,1.975,1.975,0,0,0-.549,1.216c-.38,3.563-.62,9.033-2.145,12.678-.7,1.675-2.612,8.138-4.53,8.035-2.575-.138-2.853-5.2-3.026-7.018a2.479,2.479,0,1,0-4.937.47c.636,13.122,3.537,12.172,5.055,20.41a45.8,45.8,0,0,1,.438,9.909,1.694,1.694,0,0,0,1.7,1.725h8.9a1.694,1.694,0,0,0,1.7-1.725c-.053-3.708-.2-5.926.562-9.487C175.564,172.565,175.891,173.794,176.98,171.435Z" transform="translate(-116.485 -103.467)" fill="#fcd4a9" fill-rule="evenodd"/><path d="M81.792,53.2a2.247,2.247,0,1,1,2.247-2.247A2.25,2.25,0,0,1,81.792,53.2ZM61.465,68.247c1.732-3.71,3.243-5.447,4.335-10a9.012,9.012,0,0,0-.249-3.049c-.428-1.872-.929-2.467-1.269-2.693.277-1.031.516-1.967.749-3.115a3.182,3.182,0,0,0-1.747-3.463l-.56-.155.323-2.524c.227-2.057-1.509-4.269-2.851-5.077a3.285,3.285,0,0,0-.527-.259l0-.033c.125-1.556-1.883-3.169-2.981-3.341a2.182,2.182,0,0,0-2.126.632,2.98,2.98,0,0,0-.833,1.813c-.413,3.89-.638,8.982-2.073,12.4-.137.324-.3.779-.508,1.352a42.666,42.666,0,0,1-1.607,3.989c-.873,1.789-1.388,2.05-1.461,2.08-1.53-.121-1.905-4.338-2.028-5.729-.012-.14-.024-.268-.035-.384a3.48,3.48,0,0,0-6.931.635c.4,8.164,1.692,11.084,2.943,13.908.226.509.448,1.009.663,1.535A19.088,19.088,0,1,1,72.472,50.953,19.2,19.2,0,0,1,61.465,68.247Zm13.595,1.2a2.247,2.247,0,1,1-1.588-.656A2.249,2.249,0,0,1,75.06,69.449Zm-17.6,2.429c.689-3.232,1.142-2.2,2.123-4.329.577-1.253,1.111-2.252,1.629-3.218a24.029,24.029,0,0,0,2.643-6.55,9.058,9.058,0,0,0-.369-2.609,63.1,63.1,0,0,1-3.138,7.505,1,1,0,0,1-1.788-.895,56.888,56.888,0,0,0,3.546-8.9c.379-1.385.678-2.48.964-3.888a1.365,1.365,0,0,0-.429-1.169l-.206-.067c-.079-.027-.3.21-.3.21a54.878,54.878,0,0,1-3.916,10.955,1,1,0,1,1-1.791-.892A57.477,57.477,0,0,0,60.855,44.7c.072-.539.141-1.1.2-1.672.11-1-.867-2.323-1.6-2.934-.589,5.56-1.831,12.284-4.45,16.53a1,1,0,0,1-1.7-1.051c2.573-4.166,3.734-11.1,4.257-16.607a.977.977,0,0,1,0-.222c.039-.339.076-.676.11-1.015a2.635,2.635,0,0,0-1.305-1.219c-.277-.051-.276-.047-.389.067a1,1,0,0,0-.264.617c-.448,4.111-.63,9.184-2.216,12.959-.118.28-.283.735-.474,1.262C51.57,55.447,50.135,58.938,48,58.8c-3.411-.217-3.74-5.442-3.969-7.922a1.479,1.479,0,1,0-2.945.281c0,.015,0,.031,0,.046.379,7.808,1.543,10.434,2.775,13.217a27.986,27.986,0,0,1,2.265,7.06,47.027,47.027,0,0,1,.455,10.105.694.694,0,0,0,.7.711h8.9a.694.694,0,0,0,.7-.711c-.042-3.523-.215-5.966.585-9.711Zm-22.574.75a2.247,2.247,0,1,0-3.835-1.59A2.25,2.25,0,0,0,34.888,72.628ZM31.711,32.456A2.248,2.248,0,1,0,33.3,28.618,2.25,2.25,0,0,0,31.711,32.456Zm19.428-9.909a2.247,2.247,0,1,1,2.247,2.247,2.249,2.249,0,0,1-2.247-2.247Zm20.744,6.731a2.247,2.247,0,1,0,3.177,0A2.25,2.25,0,0,0,71.883,29.277ZM24.979,53.2a2.247,2.247,0,1,1,2.247-2.247A2.249,2.249,0,0,1,24.979,53.2Zm56.813-6.494a4.254,4.254,0,0,0-4.128,3.248H74.446a21,21,0,0,0-5.468-13.18l2.281-2.281a4.247,4.247,0,0,0,5.215-6.628v0a4.247,4.247,0,0,0-6.63,5.215l-2.28,2.281a21.011,21.011,0,0,0-13.18-5.468V26.673a4.247,4.247,0,1,0-2,0v3.218a21,21,0,0,0-13.179,5.468l-2.283-2.281A4.246,4.246,0,0,0,30.3,27.862v0a4.247,4.247,0,0,0,5.215,6.628l2.281,2.281a21,21,0,0,0-5.468,13.18H29.107a4.247,4.247,0,1,0,0,2h3.218A21.028,21.028,0,0,0,37.784,65.14l-2.273,2.274a4.25,4.25,0,1,0,1.412,1.414L39.2,66.553a21.145,21.145,0,0,0,4.473,3.117c1.166,4.373.967,7.416.908,11.89a2.694,2.694,0,0,0,2.7,2.74h8.9a2.7,2.7,0,0,0,2.7-2.74,36.611,36.611,0,0,1,.54-9.264,10.961,10.961,0,0,1,.319-1.232,21.225,21.225,0,0,0,7.832-4.514l2.277,2.278a4.248,4.248,0,1,0,1.415-1.414l-2.276-2.276a20.9,20.9,0,0,0,5.464-13.184h3.216a4.247,4.247,0,1,0,4.128-5.247Z" fill="#1e2f3f" fill-rule="evenodd"/></g></g></g></svg>