<svg xmlns="http://www.w3.org/2000/svg" width="90" height="90" viewBox="0 0 90 90"><g transform="translate(-285.092 -1768.246)"><circle cx="45" cy="45" r="45" transform="translate(285.092 1768.246)" fill="#41c0f0"/><g transform="translate(303.291 1788)"><path d="M129.131,7.385l-.23,2.5a1.312,1.312,0,0,0,1.824,1.325l2.307-.992,2.307.992a1.317,1.317,0,0,0,.521.108,1.314,1.314,0,0,0,1.3-1.433l-.23-2.5L138.589,5.5a1.312,1.312,0,0,0-.7-2.144L135.443,2.8,134.16.641a1.312,1.312,0,0,0-2.255,0L130.621,2.8l-2.449.554a1.312,1.312,0,0,0-.7,2.144Zm1.94-3.084a1.317,1.317,0,0,0,.838-.609L133.032,1.8l1.122,1.887a1.317,1.317,0,0,0,.838.609l2.142.484-1.448,1.65a1.317,1.317,0,0,0-.32.985l.2,2.187L133.55,8.74a1.317,1.317,0,0,0-1.036,0l-2.017.867.2-2.187a1.317,1.317,0,0,0-.32-.985L128.93,4.785Z" transform="translate(-111.544)" fill="#114d74"/><path d="M5.751,26.392,7.585,25.6l1.834.788a1.205,1.205,0,0,0,1.195-.133,1.205,1.205,0,0,0,.5-1.1l-.183-1.988,1.317-1.5a1.216,1.216,0,0,0-.646-1.988l-1.947-.44L8.63,17.532a1.216,1.216,0,0,0-2.09,0L5.52,19.248l-1.947.44a1.216,1.216,0,0,0-.646,1.988l1.316,1.5L4.06,25.163a1.216,1.216,0,0,0,1.691,1.228ZM4.488,21.084,6.01,20.74a1.222,1.222,0,0,0,.777-.564l.8-1.341.8,1.342a1.221,1.221,0,0,0,.777.564l1.522.344L9.652,22.257a1.222,1.222,0,0,0-.3.913L9.5,24.724l-1.434-.616a1.22,1.22,0,0,0-.96,0l-1.434.616.143-1.554a1.222,1.222,0,0,0-.3-.914Z" transform="translate(0 -15.172)" fill="#114d74"/><path d="M264.445,23.176l-.183,1.988a1.216,1.216,0,0,0,1.691,1.228l1.834-.788,1.834.788a1.206,1.206,0,0,0,1.195-.133,1.205,1.205,0,0,0,.5-1.1l-.183-1.987,1.317-1.5a1.216,1.216,0,0,0-.646-1.988l-1.947-.44-1.02-1.716a1.216,1.216,0,0,0-2.09,0l-1.02,1.716-1.947.44a1.216,1.216,0,0,0-.646,1.988Zm1.767-2.436a1.222,1.222,0,0,0,.777-.564l.8-1.341.8,1.342a1.221,1.221,0,0,0,.777.564l1.522.344-1.029,1.173a1.222,1.222,0,0,0-.3.913l.143,1.554-1.434-.616a1.22,1.22,0,0,0-.96,0l-1.434.616.143-1.554a1.221,1.221,0,0,0-.3-.914l-1.029-1.173Z" transform="translate(-233.078 -15.172)" fill="#114d74"/><path d="M77.6,156.227a2.935,2.935,0,0,0-.947-2.161,2.941,2.941,0,0,0-1.994-5.1L66.8,148.95a1.085,1.085,0,0,1-1.082-1.084v-5.581a4.112,4.112,0,0,0-1.93-3.5,2.167,2.167,0,0,0-3.234,1.225l-3.121,10.658a3.243,3.243,0,0,1-3.1,2.319H52.987v-.446a1.641,1.641,0,0,0-1.639-1.639H46.177a1.641,1.641,0,0,0-1.639,1.639v5.02H31.183a2.265,2.265,0,0,1-2.213-2.748,13.153,13.153,0,0,1,12.851-10.35h1.489a15.007,15.007,0,0,1,11.3,5.137.782.782,0,1,0,1.178-1.029,16.575,16.575,0,0,0-8.42-5.166,8.351,8.351,0,1,0-9.325-13.781.782.782,0,1,0,.986,1.213,6.79,6.79,0,1,1-2.511,5.272,6.726,6.726,0,0,1,.665-2.936.782.782,0,1,0-1.409-.677,8.352,8.352,0,0,0,3.118,10.7,14.706,14.706,0,0,0-11.452,11.284,3.829,3.829,0,0,0,3.741,4.644H44.538v6.6a1.641,1.641,0,0,0,1.639,1.639h5.171a1.641,1.641,0,0,0,1.639-1.639V165.7h2.52a11.894,11.894,0,0,1,4.773.961,13.372,13.372,0,0,0,5.362,1.116l9.013.034a2.941,2.941,0,0,0,2-5.1,2.939,2.939,0,0,0,0-4.322A2.936,2.936,0,0,0,77.6,156.227Zm-26.174,9.5a.076.076,0,0,1-.076.076H46.177a.076.076,0,0,1-.076-.076V152.545a.076.076,0,0,1,.076-.076h5.171a.076.076,0,0,1,.076.076Zm20.665-10.88h2.566a1.379,1.379,0,1,1,0,2.758H72.089a.782.782,0,1,0,0,1.564h2.566a1.379,1.379,0,0,1,0,2.758H72.089a.782.782,0,0,0,0,1.564h2.566a1.379,1.379,0,0,1,0,2.758l-9.013-.034a11.824,11.824,0,0,1-4.741-.986,13.446,13.446,0,0,0-5.4-1.091h-2.52v-9.585H54.34a4.815,4.815,0,0,0,4.6-3.443l3.121-10.658a.6.6,0,0,1,.9-.342,2.556,2.556,0,0,1,1.2,2.174v5.581a2.651,2.651,0,0,0,2.643,2.647l7.855.012a1.379,1.379,0,0,1,0,2.758H72.089a.782.782,0,0,0,0,1.564Z" transform="translate(-22.151 -114.443)" fill="#114d74"/></g></g></svg>