<svg xmlns="http://www.w3.org/2000/svg" xmlns:xlink="http://www.w3.org/1999/xlink" width="136" height="136" viewBox="0 0 136 136"><defs><filter id="a" x="0" y="0" width="136" height="136" filterUnits="userSpaceOnUse"><feOffset dy="3" input="SourceAlpha"/><feGaussianBlur stdDeviation="3" result="b"/><feFlood flood-opacity="0.161"/><feComposite operator="in" in2="b"/><feComposite in="SourceGraphic"/></filter></defs><g transform="translate(-8595.023 10764.382)"><g transform="translate(8122.023 -16340.115)"><g transform="matrix(1, 0, 0, 1, 473, 5575.73)" filter="url(#a)"><circle cx="59" cy="59" r="59" transform="translate(9 6)" fill="#fff"/></g></g><g transform="translate(8637.023 -10722.498)"><path d="M4.538,49.268H28.423V51.45A5.207,5.207,0,0,0,24.374,55.5H12.846a1.038,1.038,0,1,0,0,2.077H24.374a5.192,5.192,0,0,0,10.174,0H46.077a1.038,1.038,0,1,0,0-2.077H34.549A5.207,5.207,0,0,0,30.5,51.45V49.268H54.385a1.038,1.038,0,0,0,1.038-1.038V2.538A1.038,1.038,0,0,0,54.385,1.5H4.538A1.038,1.038,0,0,0,3.5,2.538V37.846a1.038,1.038,0,0,0,2.077,0V11.884H53.346V47.192H5.577V46.153a1.038,1.038,0,0,0-2.077,0V48.23A1.038,1.038,0,0,0,4.538,49.268Zm28.038,7.269a3.115,3.115,0,1,1-3.115-3.115A3.119,3.119,0,0,1,32.577,56.538Zm-27-52.961H45.038V9.808H5.577ZM47.115,9.808V3.577h6.231V9.808Z" transform="translate(-3.423 -1.5)" fill="#114d74"/><ellipse cx="1.5" cy="1" rx="1.5" ry="1" transform="translate(6 3.999)" fill="#114d74"/><circle cx="1" cy="1" r="1" transform="translate(10 3.999)" fill="#114d74"/><path d="M7.538,23.038H22.077A1.038,1.038,0,0,0,23.115,22V9.538A1.038,1.038,0,0,0,22.077,8.5H7.538A1.038,1.038,0,0,0,6.5,9.538V22A1.038,1.038,0,0,0,7.538,23.038ZM8.577,10.577H21.038V20.961H8.577Z" transform="translate(-0.193 6.038)" fill="#114d74"/><path d="M17.538,10.577H32.077a1.038,1.038,0,1,0,0-2.077H17.538a1.038,1.038,0,1,0,0,2.077Z" transform="translate(10.577 6.038)" fill="#114d74"/><path d="M17.538,13.577H32.077a1.038,1.038,0,1,0,0-2.077H17.538a1.038,1.038,0,1,0,0,2.077Z" transform="translate(10.577 9.269)" fill="#114d74"/><path d="M17.538,16.577H32.077a1.038,1.038,0,1,0,0-2.077H17.538a1.038,1.038,0,1,0,0,2.077Z" transform="translate(10.577 12.5)" fill="#114d74"/><path d="M7.538,19.577H42.846a1.038,1.038,0,1,0,0-2.077H7.538a1.038,1.038,0,1,0,0,2.077Z" transform="translate(-0.193 15.73)" fill="#114d74"/><path d="M7.538,22.577H42.846a1.038,1.038,0,1,0,0-2.077H7.538a1.038,1.038,0,1,0,0,2.077Z" transform="translate(-0.193 18.961)" fill="#114d74"/><ellipse cx="1" cy="0.5" rx="1" ry="0.5" transform="translate(0 39.999)" fill="#114d74"/></g></g></svg>