<svg xmlns="http://www.w3.org/2000/svg" width="75.734" height="102.333" viewBox="0 0 75.734 102.333"><g transform="translate(-66.54)"><path d="M121.558,218.384h12.408a1.5,1.5,0,1,0,0-3H121.558a1.5,1.5,0,0,0,0,3Z" transform="translate(-42.822 -172.338)" fill="#114d74"/><path d="M135.464,251.737a1.5,1.5,0,0,0-1.5-1.5H121.558a1.5,1.5,0,0,0,0,3h12.408A1.5,1.5,0,0,0,135.464,251.737Z" transform="translate(-42.822 -200.223)" fill="#114d74"/><path d="M142.274,67.8a1.5,1.5,0,1,0-3,0V79.479a5.051,5.051,0,0,1-2.055,4.086,3.79,3.79,0,0,0-1.529,3.024V98.951a.385.385,0,0,1-.384.385l-24.278-.011a.385.385,0,0,1-.385-.385V90.849a1.5,1.5,0,0,0-1.174-1.463l-5.119-1.134a6.844,6.844,0,0,1-5.4-6.723,5.671,5.671,0,0,0-1.2-3.478L87.539,64.984c-.219-.28.112-.674.325-.85a5.907,5.907,0,0,1,8.28,1.024l5.465,6.988a1.5,1.5,0,0,0,1.18.575h.075a1.5,1.5,0,0,0,1.5-1.5l.036-38.3a2.169,2.169,0,0,1,2.167-2.167h2.007a2.3,2.3,0,0,1,2.3,2.3V53.538a1.5,1.5,0,1,0,3,0,2.271,2.271,0,0,1,2.268-2.268h1.936a2.262,2.262,0,0,1,2.157,1.564,1.692,1.692,0,0,0,3.219,0A2.263,2.263,0,0,1,125.6,51.27h1.936a2.27,2.27,0,0,1,2.268,2.268v1.328a1.686,1.686,0,0,0,3.2.737l.019-.04c.467-.965.726-1.5,2.07-1.552h1.908a2.27,2.27,0,0,1,2.268,2.268v4.528a1.5,1.5,0,1,0,3,0V56.279a5.271,5.271,0,0,0-5.265-5.265h-1.988a5.359,5.359,0,0,0-2.552.672,5.274,5.274,0,0,0-4.929-3.414H125.6a5.306,5.306,0,0,0-.929.083V5.486A5.492,5.492,0,0,0,119.19,0H72.026A5.493,5.493,0,0,0,66.54,5.486v84.3a5.493,5.493,0,0,0,5.486,5.486h35.623V98.94a3.385,3.385,0,0,0,3.381,3.382l24.278.011a3.386,3.386,0,0,0,3.382-3.382V86.589a.771.771,0,0,1,.321-.62,8.128,8.128,0,0,0,3.263-6.49Zm-33.7-40.036h-2.007a5.169,5.169,0,0,0-5.164,5.162l0,2.631H79.573a.9.9,0,0,1-.9-.9V23.989a.9.9,0,0,1,.9-.9h32.678a.9.9,0,0,1,.9.9V30.4A5.3,5.3,0,0,0,108.573,27.765ZM72.026,92.277a2.492,2.492,0,0,1-2.489-2.489V80.41h18.22a1.5,1.5,0,0,0,0-3H69.537V14.59h11.9a1.5,1.5,0,0,0,0-3h-11.9V5.486A2.492,2.492,0,0,1,72.026,3H119.19a2.492,2.492,0,0,1,2.489,2.489v6.106H88.441a1.5,1.5,0,1,0,0,3h33.238V49.7a5.255,5.255,0,0,0-3.607-1.426h-1.936a5.236,5.236,0,0,0-2.268.514V38.2l.033-.014a3.912,3.912,0,0,0,2.246-3.53V23.989a3.9,3.9,0,0,0-3.9-3.9H79.573a3.9,3.9,0,0,0-3.9,3.9v10.67a3.9,3.9,0,0,0,3.9,3.9H101.4l-.027,28.42-2.865-3.663a8.9,8.9,0,0,0-12.5-1.529l-.022.017a3.576,3.576,0,0,0-.805,5.03L95.4,79.9a2.661,2.661,0,0,1,.562,1.632,9.823,9.823,0,0,0,7.746,9.649l3.944.874v.225H72.026Z" fill="#114d74"/></g></svg>