<svg xmlns="http://www.w3.org/2000/svg" width="97.492" height="97.576" viewBox="0 0 97.492 97.576"><path d="M20.488,79.065H18.644a11.427,11.427,0,0,1-5.309-21.55A17.329,17.329,0,0,1,42.006,44.492,15.812,15.812,0,0,1,61.978,56.924a11.429,11.429,0,0,1-3.99,22.14H56.144V97.834c0,1.523-.924,2.929-2.758,3.995-3.065,1.781-9.061,2.743-15.07,2.743s-12.005-.962-15.07-2.743c-1.834-1.066-2.758-2.472-2.758-3.995Zm35.656-3.148h1.844a8.282,8.282,0,0,0,2.158-16.279,1.574,1.574,0,0,1-1.152-1.35A12.661,12.661,0,0,0,42.15,47.752a1.574,1.574,0,0,1-1.625-.351A14.181,14.181,0,0,0,16.482,57.6c0,.273.006.546.022.816a1.574,1.574,0,0,1-.974,1.547,8.282,8.282,0,0,0,3.114,15.959h1.844V69.324c0-1.308.814-2.664,2.556-3.751,2.864-1.786,8.621-3.079,15.272-3.079s12.409,1.293,15.273,3.079c1.742,1.087,2.555,2.443,2.555,3.751ZM52.994,88.331V83.038c-3.165,1.644-8.915,2.528-14.677,2.527S26.8,84.681,23.639,83.038v5.293a1.027,1.027,0,0,0,.414.711,6.279,6.279,0,0,0,1.972,1.128c2.979,1.183,7.637,1.747,12.291,1.747s9.312-.565,12.291-1.747a6.277,6.277,0,0,0,1.972-1.128A1.027,1.027,0,0,0,52.994,88.331Zm-29.355,4.21v5.293a1.027,1.027,0,0,0,.414.711,6.283,6.283,0,0,0,1.972,1.128c2.979,1.183,7.637,1.747,12.291,1.747s9.312-.565,12.291-1.747a6.281,6.281,0,0,0,1.972-1.128,1.027,1.027,0,0,0,.414-.711V92.541c-3.165,1.643-8.915,2.527-14.677,2.527S26.8,94.184,23.639,92.541ZM52.994,78.828V73.535c-3.165,1.644-8.915,2.528-14.677,2.528S26.8,75.178,23.639,73.534v5.293a1.027,1.027,0,0,0,.414.711,6.281,6.281,0,0,0,1.972,1.129C29,81.85,33.662,82.415,38.316,82.415s9.312-.564,12.291-1.747a6.275,6.275,0,0,0,1.972-1.129A1.027,1.027,0,0,0,52.994,78.828Zm0-9.5c0-.2-.167-.352-.351-.531A6.356,6.356,0,0,0,50.8,67.663c-2.813-1.241-7.358-2.018-12.481-2.018s-9.668.777-12.481,2.018a6.357,6.357,0,0,0-1.846,1.131c-.184.179-.351.332-.351.53a1.028,1.028,0,0,0,.414.711,6.278,6.278,0,0,0,1.972,1.128c2.979,1.183,7.637,1.748,12.291,1.748s9.312-.564,12.291-1.747a6.282,6.282,0,0,0,1.972-1.129,1.028,1.028,0,0,0,.415-.712ZM72.451,40.377H62.244a5,5,0,0,1-4.98-4.979V11.975A5,5,0,0,1,62.244,7H99.722a5,5,0,0,1,4.979,4.979V35.4a5,5,0,0,1-4.979,4.979h-10.2V42.64h3.608A4.244,4.244,0,0,1,97.6,46.532v2.321a1.574,1.574,0,0,1-1.574,1.574H65.939a1.574,1.574,0,0,1-1.574-1.574V46.532a4.244,4.244,0,0,1,4.478-3.891h3.608Zm13.921,0H75.6V42.64H86.371Zm-18.859,6.9H94.457v-.747a.557.557,0,0,0-.261-.407,1.717,1.717,0,0,0-1.069-.337H68.842a1.717,1.717,0,0,0-1.069.337.557.557,0,0,0-.261.407ZM62.244,10.144a1.838,1.838,0,0,0-1.832,1.832V35.4a1.838,1.838,0,0,0,1.832,1.832H99.722a1.838,1.838,0,0,0,1.832-1.832V11.975a1.838,1.838,0,0,0-1.832-1.832ZM82.557,63.885V83.533a1.574,1.574,0,0,1-1.574,1.574H60.993a1.574,1.574,0,1,1,0-3.148H79.41V63.885a5.936,5.936,0,1,1,3.148,0Zm-1.574-8.512a2.788,2.788,0,1,0,2.788,2.788,2.789,2.789,0,0,0-2.788-2.788Z" transform="translate(-7.21 -6.996)" fill="#114d74" fill-rule="evenodd"/></svg>