<svg xmlns="http://www.w3.org/2000/svg" width="56.102" height="55.449" viewBox="0 0 56.102 55.449"><path d="M63.421,38.541a6.583,6.583,0,0,0-1.38-7.825L58.9,27.768a4.615,4.615,0,0,1-1.394-2.415l-.983-4.194a6.582,6.582,0,0,0-6.087-5.107l-4.3-.239a4.616,4.616,0,0,1-2.62-.954l-3.449-2.582a6.582,6.582,0,0,0-7.946,0l-3.449,2.581a4.616,4.616,0,0,1-2.62.954l-4.3.239a6.583,6.583,0,0,0-6.087,5.107l-.983,4.195a4.616,4.616,0,0,1-1.394,2.415l-3.141,2.948a6.583,6.583,0,0,0-1.38,7.825l1.944,3.845a4.615,4.615,0,0,1,.484,2.746l-.511,4.278a6.583,6.583,0,0,0,3.973,6.881l3.96,1.7a4.617,4.617,0,0,1,2.136,1.792l2.358,3.606A6.582,6.582,0,0,0,30.575,66.1L34.7,64.856a4.615,4.615,0,0,1,2.788,0L41.611,66.1a6.716,6.716,0,0,0,1.946.29,6.578,6.578,0,0,0,5.52-3.007l2.358-3.606a4.616,4.616,0,0,1,2.136-1.792l3.96-1.7A6.583,6.583,0,0,0,61.5,49.41l-.511-4.278a4.615,4.615,0,0,1,.484-2.746Zm-3.559,3.028a6.433,6.433,0,0,0-.666,3.778l.511,4.278a4.727,4.727,0,0,1-2.888,5l-3.96,1.7a6.434,6.434,0,0,0-2.938,2.466l-2.358,3.606a4.727,4.727,0,0,1-5.428,1.975l-4.124-1.246a6.433,6.433,0,0,0-3.836,0L30.051,64.37a4.727,4.727,0,0,1-5.428-1.975l-2.358-3.606a6.434,6.434,0,0,0-2.939-2.466l-3.96-1.7a4.727,4.727,0,0,1-2.888-5l.511-4.278a6.433,6.433,0,0,0-.666-3.778l-1.944-3.845a4.727,4.727,0,0,1,1-5.688l3.141-2.948a6.433,6.433,0,0,0,1.918-3.322l.983-4.195a4.727,4.727,0,0,1,4.425-3.713l4.3-.239a6.434,6.434,0,0,0,3.6-1.312L33.2,13.726a4.727,4.727,0,0,1,5.776,0l3.449,2.582a6.435,6.435,0,0,0,3.6,1.312l4.3.239a4.727,4.727,0,0,1,4.425,3.713l.983,4.194a6.432,6.432,0,0,0,1.918,3.322L60.8,32.036a4.727,4.727,0,0,1,1,5.688ZM36.093,20.164a18.5,18.5,0,1,0,18.5,18.5A18.523,18.523,0,0,0,36.093,20.164Zm0,35.194A16.692,16.692,0,1,1,52.785,38.666,16.711,16.711,0,0,1,36.093,55.358ZM43.8,30.28h-.013a3.355,3.355,0,0,0-2.388,1L33.89,38.86l-3.1-3.1A3.39,3.39,0,0,0,26,40.554l5.5,5.5a3.394,3.394,0,0,0,4.794,0c2.087-2.087,4.193-4.223,6.23-6.289q1.836-1.862,3.674-3.721a3.385,3.385,0,0,0-2.4-5.77Zm1.117,4.5q-1.842,1.859-3.678,3.724c-2.034,2.063-4.138,4.2-6.221,6.28a1.581,1.581,0,0,1-2.234,0l-5.5-5.5a1.579,1.579,0,0,1,2.234-2.234l3.743,3.743a.905.905,0,0,0,.64.265h0a.9.9,0,0,0,.641-.268l8.145-8.226a1.558,1.558,0,0,1,1.109-.464H43.8a1.575,1.575,0,0,1,1.117,2.686Z" transform="translate(-8.042 -10.943)" fill="#114d74"/></svg>