<svg xmlns="http://www.w3.org/2000/svg" width="49.553" height="38.259" viewBox="0 0 49.553 38.259"><g transform="translate(0)"><path d="M26.85,68H9.628a.89.89,0,0,0-.85.627A10.488,10.488,0,0,0,18.79,82.233H26.85a.89.89,0,0,0,.89-.89V68.89A.89.89,0,0,0,26.85,68Zm-.89,12.454H18.79a8.7,8.7,0,0,1-8.7-8.709,8.825,8.825,0,0,1,.222-1.966H25.96Z" transform="translate(-8.304 -45.727)" fill="#036c49"/><path d="M57.184,26.916a13.028,13.028,0,0,0-25.108,1.228h-.743a10.439,10.439,0,0,0-10.012,7.344.89.89,0,0,0,.85,1.152H38.5V48.2a.89.89,0,0,0,.89.89h3.727a.89.89,0,0,0,.752-.418l13.2-21.008A.89.89,0,0,0,57.184,26.916Zm-14.558,20.4H40.282V35.75a.89.89,0,0,0-.89-.89H23.469A8.669,8.669,0,0,1,31.333,29.9a8.9,8.9,0,0,1,1.334.1.89.89,0,0,0,1.01-.743,11.249,11.249,0,0,1,21.665-2.175Z" transform="translate(-15.509 -17.924)" fill="#036c49"/><path d="M87.881,58.91a12.606,12.606,0,0,0,.085-1.468,13.028,13.028,0,0,0-.632-4.07.89.89,0,0,0-1.6-.2L72.514,74.189a.868.868,0,0,0,.756,1.334H84.835a8.509,8.509,0,0,0,5.271-1.806h0a8.6,8.6,0,0,0-2.224-14.834ZM89,72.338a6.743,6.743,0,0,1-4.181,1.432H74.88L86.089,55.93a10.758,10.758,0,0,1,.1,1.512,11.37,11.37,0,0,1-.164,1.924.89.89,0,0,0,.636,1.012,6.823,6.823,0,0,1,2.344,11.96Z" transform="translate(-43.88 -37.264)" fill="#036c49"/></g></svg>