<svg xmlns="http://www.w3.org/2000/svg" width="95" height="94.997" viewBox="0 0 95 94.997"><path d="M31,56h3.167v3.167H31Z" transform="translate(14.917 29.497)" fill="#114d74"/><path d="M0,0H3.167V3.167H0Z" transform="translate(73.235 75.488) rotate(-45)" fill="#114d74"/><path d="M56,31h3.167v3.167H56Z" transform="translate(29.5 14.914)" fill="#114d74"/><path d="M95.417,38.416H84.191a35.7,35.7,0,0,0-2.32-5.608l7.934-7.936a1.583,1.583,0,0,0,0-2.239l-6.718-6.716A47.5,47.5,0,1,0,15.911,83.088L22.629,89.8a1.583,1.583,0,0,0,2.239,0L32.8,81.87a35.719,35.719,0,0,0,5.613,2.318V95.416A1.583,1.583,0,0,0,40,97H59a1.583,1.583,0,0,0,1.583-1.583V84.19a35.718,35.718,0,0,0,5.608-2.318l7.936,7.934a1.583,1.583,0,0,0,2.239,0L89.8,76.371a1.583,1.583,0,0,0,0-2.239L81.867,66.2a35.72,35.72,0,0,0,2.323-5.614H95.417A1.583,1.583,0,0,0,97,59V40a1.583,1.583,0,0,0-1.583-1.583ZM18.15,18.149A44.316,44.316,0,0,1,79.7,17.057l-2.236,2.236A41.167,41.167,0,0,0,19.293,77.464L17.058,79.7A44.316,44.316,0,0,1,18.15,18.149ZM62.935,36.064a19,19,0,1,1-26.87,26.87,1.583,1.583,0,0,0-2.238,0L21.534,75.227A38,38,0,0,1,75.228,21.533L62.935,33.824a1.583,1.583,0,0,0,0,2.24Zm30.9,21.351H83.01a1.583,1.583,0,0,0-1.526,1.159A32.442,32.442,0,0,1,78.537,65.7a1.583,1.583,0,0,0,.263,1.9l7.646,7.648L75.252,86.441,67.6,78.8a1.583,1.583,0,0,0-1.9-.263,32.442,32.442,0,0,1-7.125,2.947,1.583,1.583,0,0,0-1.159,1.526V93.832H41.583V83.009a1.583,1.583,0,0,0-1.159-1.526A32.443,32.443,0,0,1,33.3,78.536a1.583,1.583,0,0,0-1.9.263l-7.648,7.646-4.478-4.478L34.989,66.254A22.167,22.167,0,0,0,66.255,34.985L81.968,19.27l4.478,4.478L78.8,31.4a1.583,1.583,0,0,0-.263,1.9,32.415,32.415,0,0,1,2.947,7.125,1.583,1.583,0,0,0,1.526,1.159H93.834Z" transform="translate(-2 -2.002)" fill="#114d74"/><path d="M40.583,35.225V17.583a1.583,1.583,0,0,0-3.167,0V35.225a6.333,6.333,0,0,0-4.525,4.525H21.583a1.583,1.583,0,1,0,0,3.167H32.892a6.321,6.321,0,1,0,7.692-7.692ZM39,44.5a3.167,3.167,0,1,1,3.167-3.167A3.167,3.167,0,0,1,39,44.5Z" transform="translate(8.5 6.164)" fill="#114d74"/><path d="M32.583,15.333A1.583,1.583,0,0,1,31,13.75V10.583a1.583,1.583,0,0,1,3.167,0V13.75A1.583,1.583,0,0,1,32.583,15.333Z" transform="translate(14.917 2.081)" fill="#114d74"/><path d="M42.583,17.858a1.583,1.583,0,0,1-1.37-2.375L42.8,12.739a1.583,1.583,0,1,1,2.742,1.583l-1.583,2.744a1.583,1.583,0,0,1-1.373.792Z" transform="translate(20.751 3.8)" fill="#114d74"/><path d="M23.167,17.858a1.583,1.583,0,0,1-1.373-.792l-1.583-2.744a1.583,1.583,0,1,1,2.742-1.583l1.583,2.744a1.583,1.583,0,0,1-1.37,2.375Z" transform="translate(8.499 3.8)" fill="#114d74"/><path d="M16.273,24.75a1.571,1.571,0,0,1-.792-.212l-2.744-1.583a1.583,1.583,0,1,1,1.583-2.742L17.065,21.8a1.583,1.583,0,0,1-.792,2.954Z" transform="translate(3.802 8.497)" fill="#114d74"/><path d="M13.75,34.167H10.583a1.583,1.583,0,1,1,0-3.167H13.75a1.583,1.583,0,1,1,0,3.167Z" transform="translate(2.083 14.914)" fill="#114d74"/><path d="M13.531,45.75A1.583,1.583,0,0,1,12.74,42.8l2.744-1.583a1.583,1.583,0,1,1,1.583,2.742l-2.744,1.583a1.571,1.571,0,0,1-.792.212Z" transform="translate(3.803 20.747)" fill="#114d74"/><path d="M36.293,52.139A15.7,15.7,0,0,1,25.1,47.493a1.583,1.583,0,1,1,2.242-2.236,12.658,12.658,0,1,0,17.9-17.9,1.583,1.583,0,1,1,2.235-2.241A15.833,15.833,0,0,1,36.293,52.139Z" transform="translate(11.207 11.192)" fill="#114d74"/></svg>