<svg xmlns="http://www.w3.org/2000/svg" width="111.664" height="103.162" viewBox="0 0 111.664 103.162"><g transform="translate(-7 -25.882)"><g transform="translate(8.798 27.683)"><g transform="translate(0.003 60.924)"><path d="M187.093,324.327l19.73,34.172H167.363Z" transform="translate(-133.062 -319.864)" fill="#685e68" fill-rule="evenodd"/><path d="M250,326.277l1.126-1.95,19.73,34.172H268.6Z" transform="translate(-197.095 -319.864)" fill="#544854" fill-rule="evenodd"/><path d="M123.062,307.794a3.291,3.291,0,0,0-3.291-3.291H18.291A3.291,3.291,0,0,0,15,307.794v2.345a3.291,3.291,0,0,0,3.291,3.291h101.48a3.291,3.291,0,0,0,3.291-3.291Z" transform="translate(-15 -304.503)" fill="#ecba78" fill-rule="evenodd"/><path d="M16.521,313.5a3.292,3.292,0,0,0,1.823.551h101.48a3.291,3.291,0,0,0,3.291-3.291v-2.345a3.292,3.292,0,0,0-.342-1.462,3.292,3.292,0,0,1,1.468,2.74v2.344a3.291,3.291,0,0,1-3.291,3.291H19.469a3.292,3.292,0,0,1-2.948-1.829Z" transform="translate(-16.179 -306.398)" fill="#e3a76f" fill-rule="evenodd"/></g><circle cx="12.616" cy="12.616" r="12.616" transform="translate(41.418 0)" fill="#ffe177"/><path d="M250,33.932q.556-.049,1.126-.05a12.616,12.616,0,0,1,0,25.231q-.569,0-1.126-.05a12.616,12.616,0,0,0,0-25.132Z" transform="translate(-197.092 -33.882)" fill="#ffd064" fill-rule="evenodd"/><g transform="translate(60.498 35.634)"><path d="M283.717,247.652a.426.426,0,0,0,.422.488h19.7a.427.427,0,0,0,.423-.489,10.4,10.4,0,0,0-20.545,0Z" transform="translate(-283.713 -228.351)" fill="#8ac9fe" fill-rule="evenodd"/><path d="M335.406,248.142a.427.427,0,0,0,.423-.489,10.4,10.4,0,0,0-9.574-8.764q.346-.023.7-.023a10.4,10.4,0,0,1,10.273,8.787.427.427,0,0,1-.423.489Z" transform="translate(-316.678 -228.351)" fill="#60b7ff" fill-rule="evenodd"/><path d="M311.276,202.678a5.257,5.257,0,1,0-5.254-5.257A5.266,5.266,0,0,0,311.276,202.678Z" transform="translate(-301 -192.164)" fill="#f6dccd" fill-rule="evenodd"/><path d="M327.808,202.666a5.257,5.257,0,0,0,0-10.491c.115-.007.232-.011.349-.011a5.257,5.257,0,0,1,0,10.514Q327.981,202.678,327.808,202.666Z" transform="translate(-317.881 -192.164)" fill="#f1cbbc" fill-rule="evenodd"/></g><g transform="translate(0 35.634)"><path d="M14.991,247.652a.426.426,0,0,0,.422.488h19.7a.427.427,0,0,0,.423-.489,10.4,10.4,0,0,0-20.545,0Z" transform="translate(-14.987 -228.351)" fill="#8ac9fe" fill-rule="evenodd"/><path d="M66.68,248.142a.427.427,0,0,0,.423-.489,10.4,10.4,0,0,0-9.574-8.764q.346-.023.7-.023A10.4,10.4,0,0,1,68.5,247.652a.427.427,0,0,1-.423.489Z" transform="translate(-47.952 -228.351)" fill="#60b7ff" fill-rule="evenodd"/><path d="M42.55,202.678a5.257,5.257,0,1,0-5.254-5.257A5.266,5.266,0,0,0,42.55,202.678Z" transform="translate(-32.274 -192.164)" fill="#f6dccd" fill-rule="evenodd"/><path d="M59.082,202.666a5.257,5.257,0,0,0,0-10.491c.115-.007.232-.011.349-.011a5.257,5.257,0,0,1,0,10.514Q59.255,202.678,59.082,202.666Z" transform="translate(-49.155 -192.164)" fill="#f1cbbc" fill-rule="evenodd"/></g><g transform="translate(27.015 35.634)"><path d="M134.991,247.652a.426.426,0,0,0,.422.488h19.7a.427.427,0,0,0,.423-.489,10.4,10.4,0,0,0-20.545,0Z" transform="translate(-134.987 -228.351)" fill="#8ac9fe" fill-rule="evenodd"/><path d="M186.68,248.142a.427.427,0,0,0,.423-.489,10.4,10.4,0,0,0-9.574-8.764q.346-.023.7-.023a10.4,10.4,0,0,1,10.273,8.787.427.427,0,0,1-.423.489Z" transform="translate(-167.952 -228.351)" fill="#60b7ff" fill-rule="evenodd"/><path d="M162.55,202.678a5.257,5.257,0,1,0-5.254-5.257A5.266,5.266,0,0,0,162.55,202.678Z" transform="translate(-152.274 -192.164)" fill="#f6dccd" fill-rule="evenodd"/><path d="M179.082,202.666a5.257,5.257,0,0,0,0-10.491c.115-.007.232-.011.349-.011a5.257,5.257,0,0,1,0,10.514Q179.255,202.678,179.082,202.666Z" transform="translate(-169.155 -192.164)" fill="#f1cbbc" fill-rule="evenodd"/></g><g transform="translate(13.115 10.403)"><path d="M73.248,135.577a.426.426,0,0,0,.422.488h19.7a.427.427,0,0,0,.423-.489,10.4,10.4,0,0,0-20.545,0Z" transform="translate(-73.244 -116.276)" fill="#8ac9fe" fill-rule="evenodd"/><path d="M124.936,136.067a.427.427,0,0,0,.423-.489,10.4,10.4,0,0,0-9.574-8.764q.346-.023.7-.023a10.4,10.4,0,0,1,10.273,8.787.427.427,0,0,1-.423.489h-1.4Z" transform="translate(-106.208 -116.276)" fill="#60b7ff" fill-rule="evenodd"/><path d="M100.806,90.6a5.257,5.257,0,1,0-5.254-5.257A5.266,5.266,0,0,0,100.806,90.6Z" transform="translate(-90.53 -80.089)" fill="#f6dccd" fill-rule="evenodd"/><path d="M117.338,90.591a5.257,5.257,0,0,0,0-10.49q.173-.011.349-.012a5.257,5.257,0,0,1,0,10.514Q117.511,90.6,117.338,90.591Z" transform="translate(-107.411 -80.089)" fill="#f1cbbc" fill-rule="evenodd"/></g><g transform="translate(87.513 35.634)"><path d="M403.717,247.652a.426.426,0,0,0,.422.488h19.7a.427.427,0,0,0,.423-.489,10.4,10.4,0,0,0-20.545,0Z" transform="translate(-403.713 -228.351)" fill="#8ac9fe" fill-rule="evenodd"/><path d="M455.406,248.142a.427.427,0,0,0,.423-.489,10.4,10.4,0,0,0-9.574-8.764q.346-.023.7-.023a10.4,10.4,0,0,1,10.273,8.787.427.427,0,0,1-.423.489Z" transform="translate(-436.678 -228.351)" fill="#60b7ff" fill-rule="evenodd"/><path d="M431.276,202.678a5.257,5.257,0,1,0-5.254-5.257A5.266,5.266,0,0,0,431.276,202.678Z" transform="translate(-421 -192.164)" fill="#f6dccd" fill-rule="evenodd"/><path d="M447.808,202.666a5.257,5.257,0,0,0,0-10.491c.116-.007.232-.011.349-.011a5.257,5.257,0,0,1,0,10.514Q447.981,202.678,447.808,202.666Z" transform="translate(-437.881 -192.164)" fill="#f1cbbc" fill-rule="evenodd"/></g></g><path d="M24.354,73.231a12.143,12.143,0,0,1,6.786,9.626,1.8,1.8,0,0,1-1.791,1.992H8.8A1.8,1.8,0,0,1,7.01,82.856,12.151,12.151,0,0,1,13.8,73.231a7.025,7.025,0,1,1,10.555,0Zm-5.279,2.4a8.537,8.537,0,0,0-8.022,5.619H27.1a8.535,8.535,0,0,0-8.023-5.619Zm0-3.6A3.424,3.424,0,1,0,15.654,68.6,3.43,3.43,0,0,0,19.075,72.026Zm65.777,1.205a12.143,12.143,0,0,1,6.786,9.626,1.8,1.8,0,0,1-1.791,1.992H69.3a1.8,1.8,0,0,1-1.791-1.993A12.151,12.151,0,0,1,74.3,73.231a7.025,7.025,0,1,1,10.555,0Zm-5.279,2.4a8.537,8.537,0,0,0-8.022,5.619H87.6A8.534,8.534,0,0,0,79.573,75.628Zm0-3.6A3.424,3.424,0,1,0,76.152,68.6,3.43,3.43,0,0,0,79.573,72.026Zm-28.2,1.205a12.143,12.143,0,0,1,6.786,9.626,1.8,1.8,0,0,1-1.791,1.992H35.816a1.8,1.8,0,0,1-1.791-1.993,12.151,12.151,0,0,1,6.788-9.625,7.025,7.025,0,1,1,10.555,0Zm-5.279,2.4a8.537,8.537,0,0,0-8.022,5.619H54.114A8.535,8.535,0,0,0,46.091,75.628Zm0-3.6A3.424,3.424,0,1,0,42.669,68.6,3.43,3.43,0,0,0,46.091,72.026Zm65.777,1.205a12.143,12.143,0,0,1,6.786,9.626,1.8,1.8,0,0,1-1.791,1.992H96.314a1.8,1.8,0,0,1-1.791-1.993,12.151,12.151,0,0,1,6.788-9.625,7.025,7.025,0,1,1,10.555,0Zm-5.279,2.4a8.537,8.537,0,0,0-8.022,5.619h16.045A8.534,8.534,0,0,0,106.589,75.628Zm0-3.6a3.424,3.424,0,1,0-3.422-3.424A3.43,3.43,0,0,0,106.589,72.026ZM37.469,48a12.143,12.143,0,0,1,6.786,9.626,1.8,1.8,0,0,1-1.791,1.992H21.916a1.8,1.8,0,0,1-1.791-1.993A12.152,12.152,0,0,1,26.914,48a7.025,7.025,0,1,1,10.555,0ZM32.19,50.4a8.536,8.536,0,0,0-8.022,5.619H40.213A8.535,8.535,0,0,0,32.19,50.4Zm0-3.6a3.424,3.424,0,1,0-3.421-3.424,3.43,3.43,0,0,0,3.421,3.424Zm24.945,52.54H12.092A5.092,5.092,0,0,1,7,94.243V91.9a5.091,5.091,0,0,1,5.092-5.092h101.48a5.091,5.091,0,0,1,5.092,5.092v2.344a5.092,5.092,0,0,1-5.092,5.092H68.528l15.593,27.008a1.8,1.8,0,0,1-1.56,2.7H43.1a1.8,1.8,0,0,1-1.56-2.7Zm7.233,0H61.295L46.222,125.442h33.22ZM115.062,91.9a1.49,1.49,0,0,0-1.49-1.49H12.092A1.49,1.49,0,0,0,10.6,91.9v2.344a1.49,1.49,0,0,0,1.49,1.49h101.48a1.49,1.49,0,0,0,1.49-1.49ZM62.832,25.882A14.417,14.417,0,1,1,48.415,40.3,14.423,14.423,0,0,1,62.832,25.882Zm0,3.6A10.815,10.815,0,1,0,73.646,40.3,10.82,10.82,0,0,0,62.832,29.484ZM58.751,44.956a1.8,1.8,0,0,1,0-3.6h8.162a1.8,1.8,0,1,1,0,3.6Zm0-5.714a1.8,1.8,0,0,1,0-3.6h8.162a1.8,1.8,0,1,1,0,3.6Z" transform="translate(0 0)" fill-rule="evenodd"/></g></svg>