<svg xmlns="http://www.w3.org/2000/svg" width="47.384" height="49.026" viewBox="0 0 47.384 49.026"><path d="M16.183,10.722A3.113,3.113,0,0,1,19.3,7.609H49.891Z" transform="translate(-15.454 -6.88)" fill="#424c59"/><path d="M53.006,10.72v4.889H16.184V10.72A3.113,3.113,0,0,1,19.3,7.607H49.891A3.114,3.114,0,0,1,53.006,10.72Z" transform="translate(-15.455 -6.879)" fill="#bcbcbc"/><ellipse cx="1.603" cy="1.603" rx="1.603" ry="1.603" transform="translate(4.085 3.047)" fill="#f9572b"/><ellipse cx="1.603" cy="1.603" rx="1.603" ry="1.603" transform="translate(9.484 3.047)" fill="#fcc63d"/><g transform="translate(14.882 3.047)"><ellipse cx="1.603" cy="1.603" rx="1.603" ry="1.603" fill="#45b8c4"/><ellipse cx="9.228" cy="9.228" rx="9.228" ry="9.228" transform="translate(13.317 3.183)" fill="#45b8c4"/></g><path d="M43.628,26.547a2.332,2.332,0,1,0,2.332-2.332A2.335,2.335,0,0,0,43.628,26.547Zm3.207,0a.875.875,0,1,1-.875-.875A.876.876,0,0,1,46.835,26.547Z" transform="translate(-40.271 -21.896)"/><path d="M100.007,26.547a2.332,2.332,0,1,0,2.332-2.332A2.335,2.335,0,0,0,100.007,26.547Zm3.207,0a.875.875,0,1,1-.875-.875A.876.876,0,0,1,103.214,26.547Z" transform="translate(-91.252 -21.896)"/><path d="M156.388,26.547a2.332,2.332,0,1,0,2.332-2.332A2.335,2.335,0,0,0,156.388,26.547Zm3.207,0a.875.875,0,1,1-.875-.875A.876.876,0,0,1,159.595,26.547Z" transform="translate(-142.234 -21.896)"/><path d="M313.539,61.651a.729.729,0,0,0-1.188.844,8.5,8.5,0,1,1-1.653-1.742.729.729,0,1,0,.906-1.142,9.853,9.853,0,0,0-6.184-2.153,9.955,9.955,0,1,0,8.119,4.192Z" transform="translate(-267.992 -51.957)"/><path d="M46.123,26.98a.729.729,0,0,0-.729.729V45.184a2.388,2.388,0,0,1-2.386,2.385H12.414a2.388,2.388,0,0,1-2.385-2.385V9.459H36.674a.729.729,0,1,0,0-1.457H10.029V3.842a2.388,2.388,0,0,1,2.385-2.385H43.008a2.388,2.388,0,0,1,2.386,2.385.729.729,0,0,0,1.457,0A3.847,3.847,0,0,0,43.008,0H12.414A3.846,3.846,0,0,0,8.572,3.842V45.184a3.846,3.846,0,0,0,3.842,3.842H43.008a3.847,3.847,0,0,0,3.843-3.842V27.708A.729.729,0,0,0,46.123,26.98Z" transform="translate(-8.572)"/><path d="M106.682,144.021a.729.729,0,0,0-.729-.729H89.781a.729.729,0,0,0,0,1.457h16.173A.729.729,0,0,0,106.682,144.021Z" transform="translate(-81.346 -129.571)"/><path d="M56.533,143.963a.728.728,0,1,0-.478.831A.734.734,0,0,0,56.533,143.963Z" transform="translate(-50.638 -129.656)"/><path d="M89.781,229.766h16.173a.729.729,0,1,0,0-1.457H89.781a.729.729,0,1,0,0,1.457Z" transform="translate(-81.346 -206.448)"/><path d="M56.307,228.6a.729.729,0,1,0,.07.949A.736.736,0,0,0,56.307,228.6Z" transform="translate(-50.61 -206.527)"/><path d="M284.777,271.548a.729.729,0,0,0-.729-.729h-4.565a.729.729,0,1,0,0,1.457h4.565A.729.729,0,0,0,284.777,271.548Z" transform="translate(-252.884 -244.887)"/><path d="M173.858,270.819h-8.5a.729.729,0,0,0,0,1.457h8.5a.729.729,0,1,0,0-1.457Z" transform="translate(-149.687 -244.887)"/><path d="M89.781,272.275h4.808a.729.729,0,1,0,0-1.457H89.781a.729.729,0,1,0,0,1.457Z" transform="translate(-81.346 -244.886)"/><path d="M56.309,271.09A.728.728,0,1,0,56.4,272,.735.735,0,0,0,56.309,271.09Z" transform="translate(-50.613 -244.944)"/><path d="M89.781,314.785h11.8a.729.729,0,0,0,0-1.457h-11.8a.729.729,0,0,0,0,1.457Z" transform="translate(-81.346 -283.326)"/><path d="M56.531,314a.728.728,0,1,0-.4.8A.734.734,0,0,0,56.531,314Z" transform="translate(-50.635 -283.411)"/><path d="M265.789,357.293h2.234a.729.729,0,0,0,0-1.457h-2.234a.729.729,0,1,0,0,1.457Z" transform="translate(-240.5 -321.763)"/><path d="M180.155,356.565a.729.729,0,0,0-.729-.729h-6.459a.729.729,0,1,0,0,1.457h6.459A.729.729,0,0,0,180.155,356.565Z" transform="translate(-156.566 -321.763)"/><path d="M89.781,357.293h5.537a.729.729,0,0,0,0-1.457H89.781a.729.729,0,0,0,0,1.457Z" transform="translate(-81.346 -321.763)"/><path d="M56.309,356.107a.728.728,0,1,0,.094.913A.735.735,0,0,0,56.309,356.107Z" transform="translate(-50.613 -321.821)"/><path d="M215.574,399.8h10.393a.729.729,0,1,0,0-1.457H215.574a.729.729,0,1,0,0,1.457Z" transform="translate(-195.094 -360.202)"/><path d="M100.126,399.074a.729.729,0,0,0-.729-.729H89.781a.729.729,0,1,0,0,1.457H99.4A.729.729,0,0,0,100.126,399.074Z" transform="translate(-81.346 -360.202)"/><path d="M56.539,399.009a.728.728,0,1,0-.5.839A.734.734,0,0,0,56.539,399.009Z" transform="translate(-50.644 -360.28)"/><path d="M89.781,440.855a.729.729,0,1,0,0,1.457h4.808a.729.729,0,1,0,0-1.457Z" transform="translate(-81.346 -398.642)"/><path d="M56.479,441.4a.728.728,0,1,0-.326.919A.734.734,0,0,0,56.479,441.4Z" transform="translate(-50.626 -398.734)"/><path d="M89.781,187.257h3.643a.729.729,0,0,0,0-1.457H89.781a.729.729,0,1,0,0,1.457Z" transform="translate(-81.346 -168.009)"/><path d="M155.212,185.8a.729.729,0,1,0,0,1.457h6.994a.729.729,0,1,0,0-1.457Z" transform="translate(-140.511 -168.01)"/><path d="M56.535,186.467a.728.728,0,1,0-.478.831A.734.734,0,0,0,56.535,186.467Z" transform="translate(-50.64 -168.09)"/><path d="M358.7,110.854l-3.9,7.411-2.8-2.914a.729.729,0,1,0-1.051,1.009l3.5,3.643a.728.728,0,0,0,.526.224.72.72,0,0,0,.1-.007.728.728,0,0,0,.543-.382l4.371-8.305a.729.729,0,1,0-1.289-.679Z" transform="translate(-317.988 -99.887)"/></svg>