<svg xmlns="http://www.w3.org/2000/svg" width="51.717" height="52.697" viewBox="0 0 51.717 52.697"><g transform="translate(0.772 0.772)"><path d="M45.84,106.21H19.281a7.021,7.021,0,0,1-7.021-7.021V67.534a7.021,7.021,0,0,1,7.021-7.021H45.84a7.021,7.021,0,0,1,7.021,7.021V99.188A7.021,7.021,0,0,1,45.84,106.21Z" transform="translate(-12.26 -55.056)" fill="#f4fbff"/><path d="M22.622,106.215H19.283a7.021,7.021,0,0,1-7.022-7.022V67.539a7.021,7.021,0,0,1,7.022-7.021h3.338A7.021,7.021,0,0,0,15.6,67.539V99.192A7.021,7.021,0,0,0,22.622,106.215Z" transform="translate(-12.261 -55.061)" fill="#e4f6ff"/><path d="M105.467,11.553a6.419,6.419,0,0,0-11.934,0H91.272a4.393,4.393,0,1,0,0,8.785h16.456a4.393,4.393,0,1,0,0-8.785Z" transform="translate(-79.199 -7.5)" fill="#ffe07d"/><path d="M101.591,7.848a6.432,6.432,0,0,0-3.875,3.7H95.454a4.393,4.393,0,0,0,0,8.786H91.27a4.393,4.393,0,1,1,0-8.786h2.26a6.421,6.421,0,0,1,8.061-3.7Z" transform="translate(-79.197 -7.497)" fill="#ffd064"/><ellipse cx="2.626" cy="2.626" rx="2.626" ry="2.626" transform="translate(17.674 3.793)" fill="#365e7d"/><g transform="translate(5.834 17.457)"><path d="M76.052,186.832h-4.5a2.61,2.61,0,0,1-2.61-2.61v-4.5a2.61,2.61,0,0,1,2.61-2.61h4.5a2.61,2.61,0,0,1,2.61,2.61v4.5A2.61,2.61,0,0,1,76.052,186.832Z" transform="translate(-68.938 -177.108)" fill="#b3e59f"/></g><g transform="translate(5.834 32.156)"><path d="M76.052,329.638h-4.5a2.61,2.61,0,0,1-2.61-2.61v-4.5a2.61,2.61,0,0,1,2.61-2.61h4.5a2.61,2.61,0,0,1,2.61,2.61v4.5A2.61,2.61,0,0,1,76.052,329.638Z" transform="translate(-68.938 -319.914)" fill="#b3e59f"/></g><g transform="translate(24.784 5.335)"><path d="M396.063,142.585a2.511,2.511,0,0,0,3.525-.425l5.354-6.824a2.511,2.511,0,0,0-3.951-3.1l-5.354,6.824A2.511,2.511,0,0,0,396.063,142.585Z" transform="translate(-380.482 -123.87)" fill="#80b4fb"/><path d="M259.389,301.519l-.893,1.139a3.043,3.043,0,0,1-4.788-3.757l.894-1.139,4.773-.414Z" transform="translate(-253.057 -272.85)" fill="#ffe07d"/><path d="M254.955,302.62a3.066,3.066,0,0,0,.353,1.1A3.044,3.044,0,0,1,253.7,298.9l.893-1.138,4.773-.414.006,1.639-2.9.25-.893,1.138A3.038,3.038,0,0,0,254.955,302.62Z" transform="translate(-253.053 -272.85)" fill="#ffd064"/><path d="M285.663,146.524l-12.829,16.351-4.788-3.757L280.851,142.8" transform="translate(-266.503 -134.206)" fill="#e27f83"/><path d="M282.756,144.243l-12.829,16.351-1.881-1.476L280.851,142.8" transform="translate(-266.503 -134.206)" fill="#c8646d"/><path d="M414.317,69.5l4.647-7.091a1.988,1.988,0,0,0-3.117-2.446l-5.781,6.2" transform="translate(-393.904 -59.333)" fill="#9dc6fb"/><path d="M418.535,59.753c-.076-.06-.269.041-.522.256a7.424,7.424,0,0,0-.894.946l-5.32,6.561-1.727-1.355,5.78-6.2a1.988,1.988,0,0,1,2.682-.209Z" transform="translate(-393.912 -59.329)" fill="#80b4fb"/><path d="M392.655,126.2l-4.252-3.336a1.537,1.537,0,0,0-1.9,2.418l4.252,3.336a1.537,1.537,0,0,0,1.9-2.418Z" transform="translate(-372.242 -116.029)" fill="#9dc6fb"/><path d="M388.038,125.909a1.532,1.532,0,0,0,.578,1.025l-2.115-1.659a1.537,1.537,0,0,1,1.9-2.418l2.115,1.659a1.538,1.538,0,0,0-2.475,1.394Z" transform="translate(-372.237 -116.024)" fill="#80b4fb"/></g></g><g transform="translate(0)"><path d="M179.877,36.848a3.4,3.4,0,1,0,3.4,3.4A3.4,3.4,0,0,0,179.877,36.848Zm0,5.253a1.855,1.855,0,1,1,1.855-1.855A1.857,1.857,0,0,1,179.877,42.1Z" transform="translate(-158.805 -33.055)"/><path d="M64.82,180.876h4.5a3.386,3.386,0,0,0,3.382-3.382v-4.5a3.386,3.386,0,0,0-3.382-3.382h-4.5a3.386,3.386,0,0,0-3.382,3.382v4.5A3.386,3.386,0,0,0,64.82,180.876Zm-1.838-7.886a1.84,1.84,0,0,1,1.838-1.838h4.5a1.84,1.84,0,0,1,1.838,1.838v4.5a1.84,1.84,0,0,1-1.838,1.838h-4.5a1.84,1.84,0,0,1-1.838-1.838Z" transform="translate(-55.605 -152.151)"/><path d="M88.244,202.973a.772.772,0,0,0,.6.281l.049,0a.772.772,0,0,0,.6-.36l2.692-4.281a.772.772,0,0,0-1.307-.822l-2.123,3.376-1.119-1.358a.772.772,0,0,0-1.192.982Z" transform="translate(-77.88 -177.108)"/><path d="M190.185,199.429H202.21a.772.772,0,1,0,0-1.544H190.185a.772.772,0,1,0,0,1.544Z" transform="translate(-170.408 -177.518)"/><path d="M190.185,237.353H196.2a.772.772,0,1,0,0-1.544h-6.013a.772.772,0,1,0,0,1.544Z" transform="translate(-170.408 -211.538)"/><path d="M61.438,320.3a3.386,3.386,0,0,0,3.382,3.382h4.5a3.386,3.386,0,0,0,3.382-3.382v-4.5a3.386,3.386,0,0,0-3.382-3.382h-4.5a3.386,3.386,0,0,0-3.382,3.382Zm1.544-4.5a1.84,1.84,0,0,1,1.838-1.838h4.5a1.84,1.84,0,0,1,1.838,1.838v4.5a1.84,1.84,0,0,1-1.838,1.838h-4.5a1.84,1.84,0,0,1-1.838-1.838Z" transform="translate(-55.605 -280.259)"/><path d="M88.244,345.779a.772.772,0,0,0,.6.281l.049,0a.772.772,0,0,0,.6-.359l2.692-4.281a.772.772,0,0,0-1.307-.822l-2.123,3.376-1.119-1.358a.772.772,0,1,0-1.192.982Z" transform="translate(-77.88 -305.216)"/><path d="M196.2,380.159a.772.772,0,1,0,0-1.544h-6.013a.772.772,0,1,0,0,1.544Z" transform="translate(-170.408 -339.646)"/><path d="M54.829,13.44a3.283,3.283,0,0,0-.971-.527l2.165-3.3a2.745,2.745,0,0,0-.6-3.685,2.759,2.759,0,0,0-3.723.289l-.832.891a.772.772,0,1,0,1.129,1.053l.832-.891a1.217,1.217,0,0,1,1.908,1.5L50.546,15.15l-2.93-2.3,2.272-2.437a.772.772,0,0,0-1.129-1.053l-2.04,2.187a7.827,7.827,0,0,0-7.6-6.092H37.6a5.145,5.145,0,0,0-3.534-1.4H32.3a7.191,7.191,0,0,0-12.941,0H17.607a5.144,5.144,0,0,0-3.534,1.4H12.556a7.8,7.8,0,0,0-7.794,7.792V44.9A7.8,7.8,0,0,0,12.556,52.7h1.8a.772.772,0,1,0,0-1.544h-1.8a6.257,6.257,0,0,1-6.25-6.25V13.249A6.256,6.256,0,0,1,12.556,7h.387a5.163,5.163,0,0,0,4.664,7.381H34.063A5.163,5.163,0,0,0,38.726,7h.388a6.276,6.276,0,0,1,6.093,4.865,2.305,2.305,0,0,0-1.8,3.188L30.36,31.68a3.79,3.79,0,0,0-.786,2.812,3.872,3.872,0,0,0,.114.574H24.539a.772.772,0,1,0,0,1.544H30.36l-.47.6a.772.772,0,1,0,1.215.953l.557-.709a3.774,3.774,0,0,0,1.692.4,3.865,3.865,0,0,0,.465-.028,3.79,3.79,0,0,0,2.544-1.433l8.787-11.2c.068.066.139.129.213.19V44.9a6.256,6.256,0,0,1-6.249,6.25H17.438a.772.772,0,1,0,0,1.544H39.115A7.8,7.8,0,0,0,46.907,44.9V26.083a3.29,3.29,0,0,0,3.125-1.211l5.354-6.824a3.283,3.283,0,0,0-.556-4.609Zm-20.766-.6H17.607a3.621,3.621,0,1,1,0-7.241h2.261a.772.772,0,0,0,.717-.487,5.647,5.647,0,0,1,10.5,0A.772.772,0,0,0,31.8,5.6h2.261a3.621,3.621,0,1,1,0,7.241Zm10.865.838A.764.764,0,0,1,46,13.547l4.252,3.336h0a.765.765,0,1,1-.944,1.2L45.057,14.75a.765.765,0,0,1-.129-1.074Zm-8.41,20.015-1.179-.925L43.785,22a.772.772,0,0,0-1.215-.953L34.124,31.813l-1.179-.925,11.5-14.656,3.573,2.8Zm-2.884,2.6a2.271,2.271,0,0,1-2.059-3.657l.417-.531,3.574,2.8-.417.531A2.256,2.256,0,0,1,33.633,36.291ZM54.171,17.1,48.817,23.92a1.733,1.733,0,0,1-2.7.04l3.293-4.2A2.307,2.307,0,0,0,51.7,16.2l1.254-1.913A1.74,1.74,0,0,1,54.171,17.1Z" transform="translate(-4.762)"/></g></svg>