<svg xmlns="http://www.w3.org/2000/svg" width="90" height="90" viewBox="0 0 90 90"><g transform="translate(-284.835 -1615.182)"><circle cx="45" cy="45" r="45" transform="translate(284.835 1615.182)" fill="#41c0f0"/><g transform="translate(303.835 1604.351)"><g transform="translate(0 29.809)"><path d="M59.456,126.5a1.15,1.15,0,0,0-1.627.04l-3.27,3.436a1.151,1.151,0,0,0,0,1.586L57.83,135a1.15,1.15,0,1,0,1.667-1.586l-2.515-2.643,2.515-2.643A1.15,1.15,0,0,0,59.456,126.5Z" transform="translate(-48.002 -115.092)" fill="#114d74"/><path d="M195.36,135.035a1.162,1.162,0,0,0,1.626-.04l3.27-3.436a1.151,1.151,0,0,0,0-1.586l-3.27-3.436a1.15,1.15,0,0,0-1.667,1.586l2.515,2.643-2.515,2.643a1.15,1.15,0,0,0,.04,1.626Z" transform="translate(-172.568 -115.092)" fill="#114d74"/><path d="M121.569,135.18a1.161,1.161,0,0,0,1.583-.376l4.234-6.873a1.15,1.15,0,1,0-1.959-1.207l-4.234,6.873A1.151,1.151,0,0,0,121.569,135.18Z" transform="translate(-107.098 -115.09)" fill="#114d74"/><path d="M75.072,231.017H55.392a1.15,1.15,0,1,0,0,2.3h19.68a1.15,1.15,0,1,0,0-2.3Z" transform="translate(-48.002 -207.869)" fill="#114d74"/><path d="M55.392,281.762a1.15,1.15,0,0,0,0,2.3H69.468a1.15,1.15,0,0,0,0-2.3Z" transform="translate(-48.002 -252.776)" fill="#114d74"/><path d="M230.243,282.912a1.15,1.15,0,0,0,1.15,1.15h9.828a1.15,1.15,0,1,0,0-2.3h-9.828A1.15,1.15,0,0,0,230.243,282.912Z" transform="translate(-203.755 -252.776)" fill="#114d74"/><path d="M166.159,83.516a1.15,1.15,0,1,0,.509-1.449A1.158,1.158,0,0,0,166.159,83.516Z" transform="translate(-146.968 -75.933)" fill="#114d74"/><path d="M270.321,232.846a1.15,1.15,0,1,0,.318-1.594A1.163,1.163,0,0,0,270.321,232.846Z" transform="translate(-239.054 -207.91)" fill="#114d74"/><path d="M57.539,43.487l-.972-.562a.581.581,0,0,1,0-.933l.972-.562a2.73,2.73,0,0,0,1-3.725l-1.814-3.143a2.756,2.756,0,0,0-3.725-1l-.974.562a.566.566,0,0,1-.808-.466V32.536a2.73,2.73,0,0,0-2.727-2.727H44.862a2.73,2.73,0,0,0-2.727,2.727V33.66a.566.566,0,0,1-.808.466l-.973-.561a2.756,2.756,0,0,0-3.725,1L35.913,35.8H25.4a1.15,1.15,0,0,0,0,2.3h9.22a2.755,2.755,0,0,0,1.188,3.328l.973.562a.581.581,0,0,1,0,.933l-.975.562a2.731,2.731,0,0,0-1,3.725l1.814,3.141a2.756,2.756,0,0,0,3.726,1l.973-.562a.566.566,0,0,1,.808.466V52.38a2.751,2.751,0,0,0,2.687,2.727l.808.05v9.509H2.3V39.182a.992.992,0,0,1,.962-1.08H15.074a1.15,1.15,0,0,0,0-2.3H3.263A3.288,3.288,0,0,0,0,39.182V69.676H0a3.249,3.249,0,0,0,3.263,3.145H18.651l-.561,4.812a2.157,2.157,0,0,1-2.145,1.914h0a.41.41,0,0,0-.047,0l-1.315,0a1.15,1.15,0,0,0,0,2.3H34.524a1.15,1.15,0,1,0,0-2.3l-1.315,0h-.05a2.157,2.157,0,0,1-2.145-1.914v0l-.56-4.81H44.667a3.249,3.249,0,0,0,3.264-3.145V55.107h.559a2.73,2.73,0,0,0,2.727-2.727V51.256a.566.566,0,0,1,.807-.466l.974.563a2.756,2.756,0,0,0,3.725-1l1.815-3.142a2.73,2.73,0,0,0-1-3.725ZM45.63,66.967v2.709a.944.944,0,0,1-.962.845H3.263a.944.944,0,0,1-.962-.845V66.967ZM28.729,77.9a4.455,4.455,0,0,0,.529,1.656h-9.41a4.443,4.443,0,0,0,.528-1.654l.591-5.076h7.17ZM56.545,46.061,54.731,49.2a.428.428,0,0,1-.581.157l-.974-.563a2.882,2.882,0,0,0-4.259,2.459V52.38a.427.427,0,0,1-.426.426H44.862a.43.43,0,0,1-.426-.426V51.256a2.883,2.883,0,0,0-4.26-2.459l-.974.563a.43.43,0,0,1-.581-.156l-1.814-3.142a.427.427,0,0,1,.155-.582l.974-.562a2.9,2.9,0,0,0,0-4.918l-.973-.562a.434.434,0,0,1-.157-.582l1.814-3.142a.428.428,0,0,1,.582-.156l.973.562a2.882,2.882,0,0,0,4.259-2.459V32.536a.427.427,0,0,1,.426-.426H48.49a.427.427,0,0,1,.426.426V33.66a2.882,2.882,0,0,0,4.259,2.459l.974-.562a.428.428,0,0,1,.582.156l1.814,3.143a.427.427,0,0,1-.157.582L55.417,40a2.9,2.9,0,0,0,0,4.919l.973.562a.427.427,0,0,1,.157.582Z" transform="translate(0 -29.809)" fill="#114d74"/><path d="M368.856,98.108a4.792,4.792,0,1,0,4.793,4.792A4.8,4.8,0,0,0,368.856,98.108Zm0,7.282a2.491,2.491,0,1,1,0-4.981,2.523,2.523,0,0,1,2.492,2.491A2.494,2.494,0,0,1,368.856,105.39Z" transform="translate(-322.18 -90.251)" fill="#114d74"/></g></g></g></svg>