<svg xmlns="http://www.w3.org/2000/svg" width="94.667" height="94.667" viewBox="0 0 94.667 94.667"><g transform="translate(-1 -1)"><path d="M17.673,28.545a6.108,6.108,0,1,0-10.09,0A7.586,7.586,0,0,0,5,34.271v4.581a1.527,1.527,0,0,0,1.527,1.527H18.742a1.527,1.527,0,0,0,1.527-1.527V34.271a7.586,7.586,0,0,0-2.6-5.726Zm-5.039-6.489A3.054,3.054,0,1,1,9.581,25.11,3.054,3.054,0,0,1,12.634,22.056Zm4.581,15.269H8.054V34.271a4.55,4.55,0,0,1,1.893-3.7,5.877,5.877,0,0,0,5.375,0,4.55,4.55,0,0,1,1.893,3.7Z" transform="translate(2.108 9.481)" fill="#114d74"/><path d="M76.075,17H16.527a1.527,1.527,0,0,0-1.222,2.443l4.275,5.7V79.6a1.527,1.527,0,0,0,1.527,1.527H76.075A1.527,1.527,0,0,0,77.6,79.6V18.527A1.527,1.527,0,0,0,76.075,17ZM74.548,78.075H22.634V24.634a1.527,1.527,0,0,0-.305-.916l-2.748-3.665H74.548Z" transform="translate(7.376 8.43)" fill="#114d74"/><rect width="24" height="3" transform="translate(44 32)" fill="#114d74"/><path d="M42.921,70.75a1.536,1.536,0,0,0,.8,0A24.374,24.374,0,0,0,61.645,47.29V32.632A1.527,1.527,0,0,0,60.118,31.1a23.613,23.613,0,0,1-13.131-3.97l-2.809-1.873a1.527,1.527,0,0,0-1.695,0l-2.825,1.873A23.613,23.613,0,0,1,26.527,31.1,1.527,1.527,0,0,0,25,32.632V47.29A24.374,24.374,0,0,0,42.921,70.75ZM28.054,34.116a26.675,26.675,0,0,0,13.307-4.448l1.962-1.312,1.962,1.309a26.675,26.675,0,0,0,13.307,4.451V47.29a21.315,21.315,0,0,1-15.269,20.4,21.315,21.315,0,0,1-15.269-20.4Z" transform="translate(12.645 12.648)" fill="#114d74"/><path d="M89.559,1H7.108A6.108,6.108,0,0,0,1,7.108V89.559a6.108,6.108,0,0,0,6.108,6.108H89.559a6.108,6.108,0,0,0,6.108-6.108V7.108A6.108,6.108,0,0,0,89.559,1Zm3.054,6.108H89.559V4.054A3.054,3.054,0,0,1,92.613,7.108Zm-9.161,0V4.054h3.054V7.108Zm-3.054,0H77.344V4.054H80.4Zm12.215,3.054v9.161H29.427L26.8,14.059a1.527,1.527,0,0,0-1.374-.844H4.054V10.161ZM7.108,4.054H74.29V7.108H4.054A3.054,3.054,0,0,1,7.108,4.054ZM89.559,92.613H7.108a3.054,3.054,0,0,1-3.054-3.054V16.269H24.486l2.631,5.263a1.527,1.527,0,0,0,1.367.844H92.613V89.559A3.054,3.054,0,0,1,89.559,92.613Z" fill="#114d74"/><path d="M38.161,53.849A1.527,1.527,0,0,0,39.24,53.4L52.983,39.66a1.527,1.527,0,0,0,0-2.159l-3.054-3.054a1.527,1.527,0,0,0-2.159,0l-9.609,9.609-3.5-3.5a1.527,1.527,0,0,0-2.159,0l-3.054,3.054a1.527,1.527,0,0,0,0,2.159L37.082,53.4A1.527,1.527,0,0,0,38.161,53.849ZM33.581,43.793l3.5,3.5a1.527,1.527,0,0,0,2.159,0l9.609-9.609.895.895L38.161,50.163l-5.475-5.475Z" transform="translate(14.753 17.387)" fill="#114d74"/></g></svg>