<svg xmlns="http://www.w3.org/2000/svg" width="81.84" height="78.778" viewBox="0 0 81.84 78.778"><g transform="translate(1.201 0.942)"><g transform="translate(0 3.565)"><path d="M86.956,71.343a9.275,9.275,0,0,0-10.479-9.21A12.926,12.926,0,0,0,63.662,47.42a12.883,12.883,0,0,0-8.116,2.864,19.656,19.656,0,0,0-37.39,11.869A9.289,9.289,0,1,0,16.8,80.632H77.667a9.289,9.289,0,0,0,9.289-9.289" transform="translate(-7.516 -37.775)" fill="#eaf9fa"/></g><g transform="translate(26.98 3.565)"><g transform="translate(0)"><path d="M308.552,114.4a2.12,2.12,0,0,0,.3-.231C308.75,114.247,308.651,114.325,308.552,114.4Z" transform="translate(-287.414 -101.961)" fill="#dcf5f8"/><path d="M192.6,50.29l4.662.037.075-.109a19.667,19.667,0,0,0-21.024-12.253,19.672,19.672,0,0,1,15.33,11.687A1.052,1.052,0,0,0,192.6,50.29Z" transform="translate(-176.309 -37.775)" fill="#dcf5f8"/><path d="M358.427,112.752a9.37,9.37,0,0,0-1.19.078,12.941,12.941,0,0,0-15.547-14.422A12.943,12.943,0,0,1,351.9,111.058q0,.3-.014.6a1.055,1.055,0,0,0,1.069,1.1h.012a9.289,9.289,0,1,1,0,18.577h5.322a9.289,9.289,0,1,0,.138-18.577Z" transform="translate(-315.255 -88.473)" fill="#dcf5f8"/></g></g><ellipse cx="12.997" cy="12.997" rx="12.997" ry="12.997" transform="translate(47.551 0)" fill="#bbec6c"/><path d="M371.968,15.473a13.042,13.042,0,0,0-2.73.29,13,13,0,0,1,0,25.414,13,13,0,1,0,2.73-25.7Z" transform="translate(-311.421 -15.473)" fill="#a2e62e"/><path d="M168.607,200.928h-4.155a.754.754,0,0,1-.7-.472l-1.892-4.692a2.538,2.538,0,0,0-2.354-1.589H140.849a2.538,2.538,0,0,0-2.354,1.589l-1.892,4.692a.754.754,0,0,1-.7.472h-4.155a1.707,1.707,0,0,0-1.707,1.707l.018,10.219c0,14.44,2.75,18.373,18.421,28.873a3.065,3.065,0,0,0,3.411,0c15.671-10.5,18.421-14.433,18.421-28.873V202.634A1.706,1.706,0,0,0,168.607,200.928Z" transform="translate(-110.458 -165.611)" fill="#d9b1ee"/><path d="M246.947,237.19v10.22c0,14.44-2.749,18.373-18.42,28.873a3.07,3.07,0,0,1-3.413,0q-2.076-1.391-3.859-2.641c17.229-11.831,19.342-13.385,19.342-27.609V235.306a.754.754,0,0,0,.488.179h4.156A1.706,1.706,0,0,1,246.947,237.19Z" transform="translate(-187.092 -200.168)" fill="#cb97e7"/><path d="M187.425,236.38c0,11.873-2.321,14.883-15.762,23.8a.664.664,0,0,1-.737,0q-.758-.5-1.467-.981c-12.145-8.179-14.293-11.4-14.293-22.823v-8.655a.34.34,0,0,1,.339-.34h3.484a1.858,1.858,0,0,0,1.725-1.164l1.9-4.717a.523.523,0,0,1,.486-.328h16.369a.523.523,0,0,1,.486.328l1.9,4.717a1.857,1.857,0,0,0,1.723,1.164h3.486a.341.341,0,0,1,.34.339Z" transform="translate(-131.566 -188.297)" fill="#61a1f8"/><path d="M262.552,269.012c0,11.873-2.321,14.883-15.762,23.8a.665.665,0,0,1-.737,0q-.758-.5-1.467-.981c13.813-9.579,15.613-11.916,15.613-25.04v-6.779h2a.341.341,0,0,1,.34.339Z" transform="translate(-206.693 -220.928)" fill="#548ff8"/><g transform="translate(31.65 40.984)"><path d="M219.449,291.307h-11.7a2.219,2.219,0,0,1-2.219-2.219V274.1a2.219,2.219,0,0,1,2.219-2.219h9.328l4.593,6.21v11A2.219,2.219,0,0,1,219.449,291.307Z" transform="translate(-205.527 -271.881)" fill="#dcf5f8"/></g><path d="M255.87,271.881H251.7l4.119,5.569a2.418,2.418,0,0,1,.474,1.438v10.2a2.219,2.219,0,0,1-2.219,2.219h4.166a2.219,2.219,0,0,0,2.219-2.219v-11Z" transform="translate(-212.673 -230.897)" fill="#d4f2f6"/></g><g transform="translate(0 0)"><path d="M71.477,37.167a14.985,14.985,0,0,0-.233-3.106A14.19,14.19,0,0,0,64.571,9.6a1.2,1.2,0,1,0-.474,2.35,11.8,11.8,0,1,1-5.09.087,1.2,1.2,0,1,0-.555-2.332A14.187,14.187,0,0,0,47.719,21.383,20.855,20.855,0,0,0,10.352,37.167,10.487,10.487,0,0,0,10.49,58.14h9.116c.022,6.666.643,11.722,3.524,16.187,2.137,3.312,5.347,6.551,15.427,13.3a4.249,4.249,0,0,0,4.746,0c7.633-5.115,12.6-8.931,15.427-13.3C60.877,71,62.217,67.112,62.254,58.14h9.1a10.487,10.487,0,0,0,.123-20.973Zm-11.618,20.6c0,13.812-2.341,17.459-17.889,27.877a1.86,1.86,0,0,1-2.077,0C24.343,75.222,22,71.574,22,57.761l-.018-10.217a.508.508,0,0,1,.508-.508h4.155a1.944,1.944,0,0,0,1.811-1.222l1.892-4.692a1.334,1.334,0,0,1,1.242-.839H50.25a1.334,1.334,0,0,1,1.242.839l1.892,4.692A1.944,1.944,0,0,0,55.2,47.036H59.35a.508.508,0,0,1,.508.508V57.763Zm11.495-2.02h-9.1v-8.2a2.909,2.909,0,0,0-2.905-2.905H55.5l-1.78-4.413a3.721,3.721,0,0,0-3.466-2.34H31.592a3.721,3.721,0,0,0-3.466,2.34l-1.779,4.413H22.493a2.909,2.909,0,0,0-2.905,2.907l.014,8.2H10.49A8.089,8.089,0,1,1,17.8,44.176a1.2,1.2,0,0,0,2.164-1.032,10.553,10.553,0,0,0-7.119-5.706A18.453,18.453,0,0,1,47.771,26.217a12.226,12.226,0,0,0-3.035,5.3,1.2,1.2,0,1,0,2.313.631,10.016,10.016,0,0,1,1.568-3.243,14.187,14.187,0,0,0,20.43,6.781,12.5,12.5,0,0,1-.072,2.591c-.1,1.221,1.085,1.5,2.378,1.284a8.09,8.09,0,0,1,0,16.179Z" transform="translate(0 -9.578)"/><path d="M343.31,67.586a1.2,1.2,0,1,0-1.78,1.606l3.476,3.852a1.2,1.2,0,0,0,.859.4h.031a1.2,1.2,0,0,0,.848-.351l8.427-8.427a1.2,1.2,0,1,0-1.7-1.7L345.941,70.5Z" transform="translate(-286.681 -54.139)"/><path d="M216.564,282.787v-11a1.2,1.2,0,0,0-.235-.713l-4.593-6.21a1.2,1.2,0,0,0-.964-.486h-9.328a3.422,3.422,0,0,0-3.418,3.418v14.988a3.422,3.422,0,0,0,3.418,3.418h11.7A3.422,3.422,0,0,0,216.564,282.787Zm-16.141,0V267.8a1.021,1.021,0,0,1,1.02-1.02h8.724l4,5.406v10.6a1.021,1.021,0,0,1-1.02,1.02h-11.7A1.021,1.021,0,0,1,200.424,282.787Z" transform="translate(-166.374 -223.654)"/><path d="M233.733,358.914h-7.509a1.2,1.2,0,1,0,0,2.4h7.509a1.2,1.2,0,1,0,0-2.4Z" transform="translate(-189.057 -303.077)"/><path d="M233.733,331.737h-7.509a1.2,1.2,0,1,0,0,2.4h7.509a1.2,1.2,0,1,0,0-2.4Z" transform="translate(-189.057 -280.243)"/><path d="M180.763,219.885h-3.486a.658.658,0,0,1-.613-.414l-1.9-4.717a1.714,1.714,0,0,0-1.6-1.078H156.8a1.714,1.714,0,0,0-1.6,1.078l-1.9,4.717a.658.658,0,0,1-.613.414H149.2a1.54,1.54,0,0,0-1.538,1.538v8.656c0,4.87.407,7.921,1.406,10.531,1.084,2.833,2.875,5.173,5.987,7.825a1.2,1.2,0,1,0,1.555-1.825c-5.561-4.737-6.55-8.449-6.55-16.531v-7.8h2.626a3.045,3.045,0,0,0,2.836-1.915l1.732-4.294H172.71l1.732,4.294a3.045,3.045,0,0,0,2.836,1.915h2.628l.014,7.8c0,11.074-1.822,13.885-14.931,22.61-1.638-1.09-2.945-1.983-4.1-2.8a1.2,1.2,0,0,0-1.386,1.956c1.239.878,2.653,1.843,4.451,3.036a1.86,1.86,0,0,0,2.061,0c6.752-4.482,10.864-7.582,13.252-11.125,2.547-3.777,3.045-7.875,3.045-13.681l-.016-8.656A1.54,1.54,0,0,0,180.763,219.885Z" transform="translate(-124.059 -181.053)"/><ellipse cx="1.199" cy="1.199" rx="1.199" ry="1.199" transform="translate(35.968 44.966)"/></g></svg>