<svg xmlns="http://www.w3.org/2000/svg" width="90" height="90" viewBox="0 0 90 90"><g transform="translate(-285.092 -1897.984)"><circle cx="45" cy="45" r="45" transform="translate(285.092 1897.984)" fill="#41c0f0"/><g transform="translate(301.835 1913.811)"><path d="M14.275,17.55a7.275,7.275,0,1,1,7.275-7.275A7.275,7.275,0,0,1,14.275,17.55Zm0-12.731a5.456,5.456,0,1,0,5.456,5.456A5.456,5.456,0,0,0,14.275,4.819Z" transform="translate(-0.453 0)" fill="#114d74"/><path d="M7.909,59.187A.909.909,0,0,1,7,58.278V41.909a.909.909,0,1,1,1.819,0V58.278A.909.909,0,0,1,7.909,59.187Z" transform="translate(-0.453 -3.444)" fill="#114d74"/><path d="M14.909,59.64A.909.909,0,0,1,14,58.731V46.909a.909.909,0,1,1,1.819,0V58.731A.909.909,0,0,1,14.909,59.64Z" transform="translate(-1.088 -3.897)" fill="#114d74"/><path d="M21.909,59.187A.909.909,0,0,1,21,58.278V41.909a.909.909,0,1,1,1.819,0V58.278A.909.909,0,0,1,21.909,59.187Z" transform="translate(-1.722 -3.444)" fill="#114d74"/><path d="M12,40.915H8.366A6.373,6.373,0,0,1,2,34.55v-10C2,21.561,7.947,20,13.822,20s11.822,1.561,11.822,4.547a.909.909,0,1,1-1.819,0c0-.926-3.531-2.728-10-2.728s-10,1.8-10,2.728v10A4.552,4.552,0,0,0,8.366,39.1H12a.909.909,0,1,1,0,1.819Z" transform="translate(0 -1.541)" fill="#114d74"/><path d="M13.366,37.094H11.547A4.552,4.552,0,0,1,7,32.547V28.909a.909.909,0,0,1,1.819,0v3.637a2.728,2.728,0,0,0,2.728,2.728h1.819a.909.909,0,0,1,0,1.819Z" transform="translate(-0.453 -2.266)" fill="#114d74"/><path d="M21.592,42.819H18.409a.909.909,0,1,1,0-1.819h3.183a.909.909,0,0,1,0,1.819Z" transform="translate(-1.405 -3.444)" fill="#114d74"/><path d="M26.822,41.55H15.909a.909.909,0,0,1-.9-1.038L16.828,27.78a.909.909,0,0,1,.9-.78H28.64a.909.909,0,0,1,.9,1.038l-.39,2.728a.909.909,0,1,1-1.8-.258l.241-1.69H18.517L16.958,39.731h9.075l.278-1.948a.909.909,0,1,1,1.8.258l-.389,2.728A.909.909,0,0,1,26.822,41.55Z" transform="translate(-1.178 -2.175)" fill="#114d74"/><path d="M30.547,37.456H28.728a2.728,2.728,0,0,1,0-5.456h1.819a.909.909,0,0,1,.909.909v3.637A.909.909,0,0,1,30.547,37.456Zm-1.819-3.637a.909.909,0,0,0,0,1.819h.909V33.819Z" transform="translate(-2.175 -2.628)" fill="#114d74"/><path d="M27.909,49.456a.909.909,0,0,1-.643-1.552L30.9,44.266a.909.909,0,1,1,1.286,1.286L28.552,49.19A.909.909,0,0,1,27.909,49.456Z" transform="translate(-2.266 -3.716)" fill="#114d74"/><path d="M31.909,59.459A.909.909,0,0,1,31,58.55V44.909a.909.909,0,1,1,1.819,0V58.55A.909.909,0,0,1,31.909,59.459Z" transform="translate(-2.628 -3.716)" fill="#114d74"/><path d="M35.547,49.456a.909.909,0,0,1-.643-.266l-3.638-3.638a.909.909,0,1,1,1.286-1.286L36.19,47.9a.909.909,0,0,1-.643,1.552Z" transform="translate(-2.628 -3.716)" fill="#114d74"/><path d="M48.547,37.456a.909.909,0,0,1-.643-.266l-3.638-3.638a.909.909,0,1,1,1.286-1.286L49.19,35.9a.909.909,0,0,1-.643,1.552Z" transform="translate(-3.807 -2.628)" fill="#114d74"/><path d="M40.909,37.456a.909.909,0,0,1-.643-1.552L43.9,32.266a.909.909,0,1,1,1.286,1.286L41.552,37.19A.909.909,0,0,1,40.909,37.456Z" transform="translate(-3.444 -2.628)" fill="#114d74"/><path d="M44.909,58.372A.909.909,0,0,1,44,57.462V32.909a.909.909,0,1,1,1.819,0V57.462A.909.909,0,0,1,44.909,58.372Z" transform="translate(-3.807 -2.628)" fill="#114d74"/><path d="M60.547,21.456a.909.909,0,0,1-.643-.266l-3.638-3.638a.909.909,0,1,1,1.286-1.286L61.19,19.9a.909.909,0,0,1-.643,1.552Z" transform="translate(-4.894 -1.178)" fill="#114d74"/><path d="M52.909,21.456a.909.909,0,0,1-.643-1.552L55.9,16.266a.909.909,0,1,1,1.286,1.286L53.552,21.19a.909.909,0,0,1-.643.266Z" transform="translate(-4.532 -1.178)" fill="#114d74"/><path d="M56.909,56.921A.909.909,0,0,1,56,56.012v-39.1a.909.909,0,1,1,1.819,0v39.1A.909.909,0,0,1,56.909,56.921Z" transform="translate(-4.894 -1.178)" fill="#114d74"/></g></g></svg>