<svg xmlns="http://www.w3.org/2000/svg" width="78.717" height="63.958" viewBox="0 0 78.717 63.958"><g transform="translate(0 -48)"><path d="M291.9,100.5a2.306,2.306,0,0,1,2.306,2.306v46.277a6.15,6.15,0,0,1-6.15,6.15H259.075A3.075,3.075,0,0,1,256,152.158V100.5Z" transform="translate(-216.641 -44.428)" fill="#ccad76"/><path d="M445.262,102.806v46.277a6.15,6.15,0,0,1-6.15,6.15H434.5a6.15,6.15,0,0,0,6.15-6.15V102.806a2.307,2.307,0,0,0-2.306-2.306h4.612A2.307,2.307,0,0,1,445.262,102.806Z" transform="translate(-367.698 -44.428)" fill="#b5884d"/><path d="M9.806,100.5A2.306,2.306,0,0,0,7.5,102.806v46.277a6.15,6.15,0,0,0,6.15,6.15H42.631a3.075,3.075,0,0,0,3.075-3.075V100.5Z" transform="translate(-6.347 -44.428)" fill="#ccad76"/><path d="M68.787,125.244H39.806a2.306,2.306,0,0,1-2.306-2.306V72.806A2.306,2.306,0,0,1,39.806,70.5H68.787a2.306,2.306,0,0,1,2.306,2.306v50.132A2.306,2.306,0,0,1,68.787,125.244Z" transform="translate(-31.735 -19.041)" fill="#f2f2f2"/><path d="M287.287,125.242H258.306A2.306,2.306,0,0,1,256,122.936V72.8a2.306,2.306,0,0,1,2.306-2.306h28.981a2.306,2.306,0,0,1,2.306,2.306v50.132A2.306,2.306,0,0,1,287.287,125.242Z" transform="translate(-216.641 -19.039)" fill="#fff"/><path d="M429.5,125.242h4.612a2.306,2.306,0,0,0,2.306-2.306V72.8a2.307,2.307,0,0,0-2.306-2.306H429.5a2.307,2.307,0,0,1,2.306,2.306v50.132A2.306,2.306,0,0,1,429.5,125.242Z" transform="translate(-363.467 -19.039)" fill="#e8e8e8"/><path d="M89.681,68.84,87.232,66.7a.769.769,0,0,0-1.011,0L83.773,68.84a.769.769,0,0,1-1.274-.579V56.269a.769.769,0,0,1,.769-.769h6.919a.769.769,0,0,1,.769.769V68.261A.769.769,0,0,1,89.681,68.84Z" transform="translate(-69.815 -6.347)" fill="#f7aa74"/><path d="M333.876,177.087l1.739-1.739a2.306,2.306,0,0,0-3.261-3.261l-1.74,1.739a1.537,1.537,0,0,1-2.174,0l-1.848-1.848a2.306,2.306,0,0,0-3.261,3.261l1.848,1.848a1.538,1.538,0,0,1,0,2.174l-1.848,1.848a2.306,2.306,0,0,0,3.261,3.261l1.848-1.848a1.537,1.537,0,0,1,2.174,0l1.74,1.739A2.306,2.306,0,0,0,335.616,181l-1.739-1.739A1.538,1.538,0,0,1,333.876,177.087Z" transform="translate(-273.049 -104.345)" fill="#f49595"/><path d="M90.682,176.189l2.5,2.5a.769.769,0,0,0,1.087,0l7.066-7.066a2.306,2.306,0,1,1,3.261,3.261l-9.241,9.241a2.306,2.306,0,0,1-3.261,0L87.42,179.45a2.306,2.306,0,1,1,3.262-3.261Z" transform="translate(-73.408 -104.045)" fill="#90d399"/><path d="M77.564,97.352A1.153,1.153,0,0,0,78.717,96.2V58.378a3.463,3.463,0,0,0-3.459-3.459H74.1V53.765a3.463,3.463,0,0,0-3.459-3.459H41.665a3.446,3.446,0,0,0-2.306.884,3.446,3.446,0,0,0-2.306-.884H26.521a1.153,1.153,0,1,0,0,2.306H37.052a1.154,1.154,0,0,1,1.153,1.153v3h-.538a1.153,1.153,0,0,0,0,2.306h.538v6h-.692a1.153,1.153,0,1,0,0,2.306h.692v6.15h-.692a1.153,1.153,0,1,0,0,2.306h.692v6.15h-.692a1.153,1.153,0,1,0,0,2.306h.692v6.15h-.692a1.153,1.153,0,1,0,0,2.306h.692v6.15h-.692a1.153,1.153,0,0,0,0,2.306h.692v2.7a1.154,1.154,0,0,1-1.153,1.153H8.072A1.154,1.154,0,0,1,6.919,103.9V53.765a1.154,1.154,0,0,1,1.153-1.153h3.459v9.3a1.9,1.9,0,0,0,1.127,1.75,1.934,1.934,0,0,0,.8.176,1.906,1.906,0,0,0,1.257-.477l2.2-1.916,2.2,1.916a1.922,1.922,0,0,0,3.186-1.448V49.922A1.924,1.924,0,0,0,20.371,48H13.453a1.924,1.924,0,0,0-1.922,1.922v.384H8.072a3.463,3.463,0,0,0-3.459,3.459v1.153H3.459A3.463,3.463,0,0,0,0,58.378v46.277a7.311,7.311,0,0,0,7.3,7.3H36.284a4.215,4.215,0,0,0,3.075-1.331,4.216,4.216,0,0,0,3.075,1.331H71.414a7.311,7.311,0,0,0,7.3-7.3V101.58a1.153,1.153,0,0,0-2.306,0v3.075a5,5,0,0,1-5,5H42.434a1.924,1.924,0,0,1-1.922-1.922v-.572a3.441,3.441,0,0,0,1.153.2H70.646A3.463,3.463,0,0,0,74.1,103.9V57.225h1.153a1.154,1.154,0,0,1,1.153,1.153V96.2a1.153,1.153,0,0,0,1.153,1.153ZM13.837,50.306h6.15V61.068l-1.811-1.581a1.929,1.929,0,0,0-2.527,0l-1.811,1.581Zm22.447,59.345H7.3a5,5,0,0,1-5-5V58.378a1.154,1.154,0,0,1,1.153-1.153H4.612V103.9a3.463,3.463,0,0,0,3.459,3.459H37.052a3.445,3.445,0,0,0,1.153-.2v.572A1.924,1.924,0,0,1,36.284,109.652ZM71.8,103.9a1.154,1.154,0,0,1-1.153,1.153H41.665a1.154,1.154,0,0,1-1.153-1.153v-2.7h.538a1.153,1.153,0,0,0,0-2.306h-.538V92.74h.538a1.153,1.153,0,1,0,0-2.306h-.538v-6.15h.538a1.153,1.153,0,1,0,0-2.306h-.538v-6.15h.538a1.153,1.153,0,1,0,0-2.306h-.538v-6.15h.538a1.153,1.153,0,1,0,0-2.306h-.538v-6H41.2a1.153,1.153,0,0,0,0-2.306h-.692v-3a1.154,1.154,0,0,1,1.153-1.153H70.646A1.154,1.154,0,0,1,71.8,53.765Z"/><path d="M316.177,173.957a3.459,3.459,0,0,0,4.892,4.892L322.917,177a.385.385,0,0,1,.544,0l1.739,1.739a3.459,3.459,0,0,0,4.892-4.892l-1.739-1.739a.385.385,0,0,1,0-.544l1.739-1.739a3.459,3.459,0,0,0-4.892-4.892l-1.739,1.739a.385.385,0,0,1-.544,0l-1.848-1.848a3.459,3.459,0,0,0-4.892,4.892l1.848,1.848a.385.385,0,0,1,0,.544Zm3.479-4.023-1.848-1.848a1.153,1.153,0,0,1,1.631-1.631l1.848,1.848a2.694,2.694,0,0,0,3.805,0l1.739-1.739a1.153,1.153,0,0,1,1.631,1.631l-1.739,1.739a2.694,2.694,0,0,0,0,3.805l1.739,1.739a1.153,1.153,0,1,1-1.631,1.631l-1.739-1.739a2.694,2.694,0,0,0-3.805,0l-1.848,1.848a1.153,1.153,0,1,1-1.631-1.631l1.848-1.848A2.693,2.693,0,0,0,319.656,169.934Z" transform="translate(-266.71 -98.008)"/><path d="M99.075,164.47a3.463,3.463,0,0,0-4.892,0l-6.795,6.795-2.229-2.229a3.459,3.459,0,0,0-4.892,4.892l4.675,4.675a3.463,3.463,0,0,0,4.892,0l9.241-9.241A3.463,3.463,0,0,0,99.075,164.47Zm-1.631,3.261L88.2,176.973a1.153,1.153,0,0,1-1.631,0L81.9,172.3a1.153,1.153,0,1,1,1.631-1.631l2.5,2.5a1.922,1.922,0,0,0,2.718,0l7.066-7.066a1.153,1.153,0,1,1,1.631,1.631Z" transform="translate(-67.071 -97.708)"/><path d="M107.181,295.153A1.153,1.153,0,0,0,106.028,294H90.653a1.153,1.153,0,1,0,0,2.306h15.374A1.153,1.153,0,0,0,107.181,295.153Z" transform="translate(-75.74 -208.179)"/><path d="M110.653,324a1.153,1.153,0,0,0,0,2.306h9.225a1.153,1.153,0,1,0,0-2.306Z" transform="translate(-92.665 -233.566)"/><path d="M326.028,294H310.653a1.153,1.153,0,0,0,0,2.306h15.374a1.153,1.153,0,0,0,0-2.306Z" transform="translate(-261.916 -208.179)"/><path d="M339.878,324h-9.225a1.153,1.153,0,0,0,0,2.306h9.225a1.153,1.153,0,0,0,0-2.306Z" transform="translate(-278.841 -233.566)"/></g></svg>