<svg xmlns="http://www.w3.org/2000/svg" xmlns:xlink="http://www.w3.org/1999/xlink" width="136" height="136" viewBox="0 0 136 136"><defs><filter id="a" x="0" y="0" width="136" height="136" filterUnits="userSpaceOnUse"><feOffset dy="3" input="SourceAlpha"/><feGaussianBlur stdDeviation="3" result="b"/><feFlood flood-opacity="0.161"/><feComposite operator="in" in2="b"/><feComposite in="SourceGraphic"/></filter></defs><g transform="translate(-8948.023 10764.383)"><g transform="translate(8167.023 -16336.046)"><g transform="matrix(1, 0, 0, 1, 781, 5571.66)" filter="url(#a)"><circle cx="59" cy="59" r="59" transform="translate(9 6)" fill="#fff"/></g></g><g transform="translate(8986.834 -10729.496)"><path d="M28.5,37.615V12.692c0-1.093-.726-2.649-4.186-3.848a1.039,1.039,0,1,0-.681,1.963c2.2.763,2.791,1.543,2.791,1.884,0,1.057-4.032,3.115-11.423,3.115S3.577,13.749,3.577,12.692,7.609,9.577,15,9.577c.249,0,.487,0,.732.018a1.059,1.059,0,0,0,1.114-.959,1.041,1.041,0,0,0-.959-1.113C15.592,7.5,15.3,7.5,15,7.5,8.291,7.5,1.5,9.283,1.5,12.692V37.615c0,3.409,6.791,5.192,13.5,5.192s13.5-1.783,13.5-5.192ZM3.577,23.89c2.52,1.516,6.983,2.3,11.423,2.3s8.9-.785,11.423-2.3v5.417c0,1.057-4.032,3.115-11.423,3.115S3.577,30.364,3.577,29.307ZM15,17.884c4.44,0,8.9-.785,11.423-2.3V21c0,1.057-4.032,3.115-11.423,3.115S3.577,22.056,3.577,21V15.583C6.1,17.1,10.56,17.884,15,17.884ZM3.577,37.615V32.2C6.1,33.714,10.56,34.5,15,34.5s8.9-.785,11.423-2.3v5.417c0,1.057-4.032,3.115-11.423,3.115S3.577,38.672,3.577,37.615Z" transform="translate(-1.5 4.961)" fill="#114d74"/><path d="M17.5,12.652V37.574c0,3.409,6.791,5.192,13.5,5.192s13.5-1.783,13.5-5.192V12.652C44.5,5.833,17.5,5.833,17.5,12.652ZM42.423,29.267c0,1.057-4.032,3.115-11.423,3.115s-11.423-2.059-11.423-3.115V23.85c2.52,1.516,6.983,2.3,11.423,2.3s8.9-.785,11.423-2.3Zm0-8.308c0,1.057-4.032,3.115-11.423,3.115s-11.423-2.059-11.423-3.115V15.542c2.52,1.516,6.983,2.3,11.423,2.3s8.9-.785,11.423-2.3ZM31,9.536c7.391,0,11.423,2.059,11.423,3.115S38.391,15.767,31,15.767s-11.423-2.059-11.423-3.115S23.609,9.536,31,9.536ZM31,40.69c-7.391,0-11.423-2.059-11.423-3.115V32.157c2.52,1.516,6.983,2.3,11.423,2.3s8.9-.785,11.423-2.3v5.417C42.423,38.631,38.391,40.69,31,40.69Z" transform="translate(15.731 5.002)" fill="#114d74"/><path d="M46.557,25.8A27.831,27.831,0,0,1,26.95,33.808,28.073,28.073,0,0,1,9.624,27.774l.207,0a1.038,1.038,0,0,0,1.014-1.063,1.022,1.022,0,0,0-1.063-1.014l-2.937.069a1.039,1.039,0,0,0-1.01,1.128l.274,3.142a1.038,1.038,0,0,0,1.032.949c.03,0,.061,0,.091,0a1.037,1.037,0,0,0,.945-1.124l-.054-.614A30.148,30.148,0,0,0,26.95,35.885a29.894,29.894,0,0,0,21.063-8.606A1.038,1.038,0,0,0,46.557,25.8Z" transform="translate(3.165 24.345)" fill="#114d74"/><path d="M6.747,11.884a1.039,1.039,0,0,0,.728-.3A27.957,27.957,0,0,1,44.667,9.816l-.26.006a1.039,1.039,0,0,0,.024,2.077h.024l2.937-.069a1.038,1.038,0,0,0,1.014-1.063L48.338,7.83a1.039,1.039,0,0,0-2.077.049l.013.553A30.058,30.058,0,0,0,6.019,10.106a1.038,1.038,0,0,0,.728,1.779Z" transform="translate(3.033 -1.5)" fill="#114d74"/><ellipse cx="1.038" cy="1.038" rx="1.038" ry="1.038" transform="translate(17.394 12.792)" fill="#114d74"/></g></g></svg>