<svg xmlns="http://www.w3.org/2000/svg" xmlns:xlink="http://www.w3.org/1999/xlink" width="136" height="136" viewBox="0 0 136 136"><defs><filter id="a" x="0" y="0" width="136" height="136" filterUnits="userSpaceOnUse"><feOffset dy="3" input="SourceAlpha"/><feGaussianBlur stdDeviation="3" result="b"/><feFlood flood-opacity="0.161"/><feComposite operator="in" in2="b"/><feComposite in="SourceGraphic"/></filter></defs><g transform="translate(-1081.785 -987.58)"><g transform="translate(300.785 -4584.083)"><g transform="matrix(1, 0, 0, 1, 781, 5571.66)" filter="url(#a)"><circle cx="59" cy="59" r="59" transform="translate(9 6)" fill="#fff"/></g></g><g transform="translate(1116.738 1023.242)"><path d="M26.921,61.655a1.032,1.032,0,0,0,.773,0A33.876,33.876,0,0,0,43.244,49.1a33.766,33.766,0,0,0,5.872-19.088V10.846a1.037,1.037,0,0,0-.653-.963L44,8.1a1.038,1.038,0,1,0-.771,1.927l3.812,1.527V30.017A31.706,31.706,0,0,1,41.525,47.94,31.81,31.81,0,0,1,27.308,59.57,31.858,31.858,0,0,1,7.577,30.017V11.55L27.309,3.656l8.213,3.276A1.039,1.039,0,0,0,36.291,5l-8.6-3.428a1.031,1.031,0,0,0-.77,0L6.153,9.883a1.037,1.037,0,0,0-.653.963V30.017A33.927,33.927,0,0,0,26.921,61.655Z" transform="translate(2.808 -1.5)" fill="#114d74"/><path d="M9.5,11.652V36.574c0,3.409,6.792,5.192,13.5,5.192s13.5-1.783,13.5-5.192V11.652C36.5,4.833,9.5,4.833,9.5,11.652ZM34.423,28.267c0,1.057-4.032,3.115-11.423,3.115s-11.423-2.059-11.423-3.115V22.849c2.52,1.516,6.983,2.3,11.423,2.3s8.9-.786,11.423-2.3Zm0-8.308c0,1.057-4.032,3.115-11.423,3.115s-11.423-2.059-11.423-3.115V14.542c2.52,1.516,6.983,2.3,11.423,2.3s8.9-.786,11.423-2.3ZM23,8.536c7.391,0,11.423,2.059,11.423,3.115S30.391,14.767,23,14.767s-11.423-2.059-11.423-3.115S15.609,8.536,23,8.536ZM23,39.69c-7.391,0-11.423-2.059-11.423-3.115V31.157c2.52,1.516,6.983,2.3,11.423,2.3s8.9-.786,11.423-2.3v5.417C34.423,37.631,30.391,39.69,23,39.69Z" transform="translate(7.115 3.925)" fill="#114d74"/><path d="M2.538,16.577H6.692a1.038,1.038,0,1,0,0-2.077H2.538a1.038,1.038,0,1,0,0,2.077Z" transform="translate(-1.5 12.5)" fill="#114d74"/><path d="M3.881,14.35a1.038,1.038,0,0,0,.734.3H6.692a1.038,1.038,0,1,0,0-2.077H5.045L3.273,10.8A1.038,1.038,0,1,0,1.8,12.273Z" transform="translate(-1.5 8.192)" fill="#114d74"/><path d="M2.538,21.654a1.035,1.035,0,0,0,.734-.3l1.773-1.773H6.692a1.038,1.038,0,1,0,0-2.077H4.615a1.038,1.038,0,0,0-.734.3L1.8,19.881a1.038,1.038,0,0,0,.734,1.773Z" transform="translate(-1.5 15.731)" fill="#114d74"/><path d="M32.692,14.5H28.538a1.038,1.038,0,1,0,0,2.077h4.154a1.038,1.038,0,1,0,0-2.077Z" transform="translate(26.5 12.5)" fill="#114d74"/><path d="M31.958,10.8l-1.773,1.773H28.538a1.038,1.038,0,1,0,0,2.077h2.077a1.038,1.038,0,0,0,.734-.3l2.077-2.077A1.038,1.038,0,0,0,31.958,10.8Z" transform="translate(26.5 8.192)" fill="#114d74"/><path d="M31.35,17.8a1.038,1.038,0,0,0-.734-.3H28.538a1.038,1.038,0,1,0,0,2.077h1.647l1.773,1.773a1.038,1.038,0,1,0,1.468-1.468Z" transform="translate(26.5 15.731)" fill="#114d74"/><ellipse cx="1.038" cy="1.038" rx="1.038" ry="1.038" transform="translate(41.524 4.981)" fill="#114d74"/></g></g></svg>