<svg xmlns="http://www.w3.org/2000/svg" xmlns:xlink="http://www.w3.org/1999/xlink" width="400" height="170" viewBox="0 0 400 170"><defs><clipPath id="a"><rect width="400" height="170" rx="12" transform="translate(1020.051 752)" fill="#eaf8fd"/></clipPath><clipPath id="b"><rect width="470.118" height="263.333" fill="none"/></clipPath><clipPath id="c"><rect width="470.118" height="263.332" fill="none"/></clipPath><clipPath id="d"><rect width="2.909" height="3.938" fill="none"/></clipPath><clipPath id="e"><rect width="36.235" height="36.235" fill="none"/></clipPath><clipPath id="f"><rect width="35.987" height="35.987" fill="none"/></clipPath></defs><g transform="translate(-1020.051 -855)"><rect width="400" height="170" rx="12" transform="translate(1020.051 855)" fill="#eaf8fd"/><g transform="translate(0 103)" clip-path="url(#a)"><g transform="translate(983.882 681.667)"><g clip-path="url(#b)"><g transform="translate(0 0.001)"><g clip-path="url(#c)"><path d="M58.375,67.405H51.036a1.7,1.7,0,0,1-1.695-1.695V63.82a.792.792,0,0,0-.607-.782,26.383,26.383,0,0,1-8.055-3.317.854.854,0,0,0-.452-.132.78.78,0,0,0-.559.231l-1.333,1.333a1.7,1.7,0,0,1-2.4,0l-5.191-5.191a1.7,1.7,0,0,1,0-2.4l1.332-1.328a.826.826,0,0,0,.1-1.018,26.385,26.385,0,0,1-3.32-8.054.792.792,0,0,0-.782-.607H26.189a1.7,1.7,0,0,1-1.695-1.695V33.525a1.7,1.7,0,0,1,1.695-1.695h1.887a.8.8,0,0,0,.782-.611,26.3,26.3,0,0,1,3.317-8.055.817.817,0,0,0-.1-1.017l-1.327-1.323a1.7,1.7,0,0,1,0-2.4l5.191-5.191a1.7,1.7,0,0,1,2.4,0l1.327,1.323a.782.782,0,0,0,.561.233.853.853,0,0,0,.452-.132,26.4,26.4,0,0,1,8.06-3.321.792.792,0,0,0,.607-.782V8.674a1.7,1.7,0,0,1,1.695-1.695h7.339a1.7,1.7,0,0,1,1.7,1.695v1.883a.792.792,0,0,0,.607.782,26.3,26.3,0,0,1,8.055,3.325.858.858,0,0,0,.449.128.8.8,0,0,0,.567-.234l1.328-1.324a1.7,1.7,0,0,1,2.4,0l5.188,5.192a1.7,1.7,0,0,1,0,2.4l-1.329,1.329a.814.814,0,0,0-.1,1.012,26.413,26.413,0,0,1,3.321,8.056.8.8,0,0,0,.778.611h1.891a1.7,1.7,0,0,1,1.695,1.695v7.339a1.7,1.7,0,0,1-1.695,1.695H81.335a.8.8,0,0,0-.782.607,26.276,26.276,0,0,1-3.317,8.055.817.817,0,0,0,.1,1.017l1.328,1.328a1.7,1.7,0,0,1,0,2.4l-5.187,5.191a1.7,1.7,0,0,1-2.4,0l-1.332-1.332a.791.791,0,0,0-.563-.233.84.84,0,0,0-.448.131,26.411,26.411,0,0,1-8.057,3.318.8.8,0,0,0-.607.782v1.891A1.7,1.7,0,0,1,58.375,67.405ZM40.226,58.8a1.642,1.642,0,0,1,.871.252,25.594,25.594,0,0,0,7.814,3.217,1.579,1.579,0,0,1,1.22,1.552v1.891a.906.906,0,0,0,.9.9h7.339a.908.908,0,0,0,.909-.9V63.82a1.591,1.591,0,0,1,1.222-1.552,25.617,25.617,0,0,0,7.812-3.217,1.627,1.627,0,0,1,.867-.251,1.576,1.576,0,0,1,1.122.464l1.332,1.332a.9.9,0,0,0,.639.265.907.907,0,0,0,.643-.266L78.106,55.4a.907.907,0,0,0,0-1.28L76.778,52.8a1.6,1.6,0,0,1-.213-1.994,25.489,25.489,0,0,0,3.217-7.814,1.6,1.6,0,0,1,1.552-1.22h1.891a.906.906,0,0,0,.9-.9V33.525a.906.906,0,0,0-.9-.9H81.335a1.591,1.591,0,0,1-1.548-1.226,25.621,25.621,0,0,0-3.221-7.812,1.6,1.6,0,0,1,.213-1.989l1.328-1.328a.909.909,0,0,0,0-1.28l-5.187-5.191a.906.906,0,0,0-.642-.264.9.9,0,0,0-.639.265l-1.328,1.324a1.58,1.58,0,0,1-1.125.465,1.65,1.65,0,0,1-.866-.247A25.513,25.513,0,0,0,60.5,12.109a1.579,1.579,0,0,1-1.22-1.552V8.674a.908.908,0,0,0-.909-.9H51.036a.906.906,0,0,0-.9.9v1.883a1.579,1.579,0,0,1-1.219,1.552,25.612,25.612,0,0,0-7.819,3.222,1.641,1.641,0,0,1-.87.251,1.565,1.565,0,0,1-1.12-.466l-1.326-1.322a.907.907,0,0,0-1.281,0L31.3,18.984a.91.91,0,0,0,0,1.281l1.326,1.322a1.6,1.6,0,0,1,.213,1.994A25.513,25.513,0,0,0,29.628,31.4a1.6,1.6,0,0,1-1.552,1.224H26.189a.906.906,0,0,0-.9.9v7.339a.906.906,0,0,0,.9.9h1.887a1.579,1.579,0,0,1,1.552,1.219A25.6,25.6,0,0,0,32.849,50.8a1.615,1.615,0,0,1-.211,1.992L31.3,54.124a.906.906,0,0,0,0,1.28L36.5,60.595a.907.907,0,0,0,1.28,0l1.332-1.332A1.563,1.563,0,0,1,40.226,58.8Zm14.479-.515a21,21,0,1,1,8.208-1.658A20.938,20.938,0,0,1,54.705,58.284Zm0-41.385a20.218,20.218,0,1,0,7.9,1.6A20.158,20.158,0,0,0,54.705,16.9Z" transform="translate(75.259 22.297)" fill="#dee3fc"/><path d="M78.639,39.023v-5a.883.883,0,0,0-.885-.885H76.466a.814.814,0,0,1-.793-.624A17.748,17.748,0,0,0,73.444,27.1a.82.82,0,0,1,.109-1.022l.905-.909a.884.884,0,0,0,0-1.251l-3.537-3.537a.889.889,0,0,0-1.255,0l-.9.905a.832.832,0,0,1-1.026.109,17.657,17.657,0,0,0-5.408-2.233.814.814,0,0,1-.624-.793V17.089a.889.889,0,0,0-.885-.889h-5a.886.886,0,0,0-.885.889v1.284a.814.814,0,0,1-.624.793A17.771,17.771,0,0,0,48.9,21.395a.82.82,0,0,1-1.022-.1l-.905-.905a.884.884,0,0,0-1.251,0l-3.537,3.537a.884.884,0,0,0,0,1.251l.9.905a.826.826,0,0,1,.109,1.026,17.749,17.749,0,0,0-2.229,5.408.814.814,0,0,1-.793.624H38.884a.885.885,0,0,0-.885.885v5a.885.885,0,0,0,.885.885h1.288a.81.81,0,0,1,.793.624,17.748,17.748,0,0,0,2.229,5.408.826.826,0,0,1-.1,1.026l-.905.905a.884.884,0,0,0,0,1.251l3.537,3.537a.884.884,0,0,0,1.251,0l.905-.905a.826.826,0,0,1,1.026-.109,17.748,17.748,0,0,0,5.408,2.229.807.807,0,0,1,.624.793v1.292a.885.885,0,0,0,.885.885h5a.888.888,0,0,0,.885-.885V54.667a.815.815,0,0,1,.624-.8,17.641,17.641,0,0,0,5.408-2.225.821.821,0,0,1,1.022.109l.905.905a.889.889,0,0,0,1.255,0l3.537-3.537a.884.884,0,0,0,0-1.251l-.905-.905a.826.826,0,0,1-.109-1.026,17.748,17.748,0,0,0,2.229-5.408.81.81,0,0,1,.793-.624h1.288a.883.883,0,0,0,.885-.885M58.319,49.831a13.307,13.307,0,1,1,13.3-13.311,13.3,13.3,0,0,1-13.3,13.311" transform="translate(114.901 48.984)" fill="#dee3fc"/><path d="M28.937,56.008a2.424,2.424,0,1,1-2.426-2.426,2.426,2.426,0,0,1,2.426,2.426" transform="translate(72.837 162.019)" fill="#a4afff"/><path d="M109.67,39.542a2.424,2.424,0,1,1-2.426-2.426,2.426,2.426,0,0,1,2.426,2.426" transform="translate(316.956 112.23)" fill="#a4afff"/><path d="M108.465,18.023a2.424,2.424,0,1,1-2.426-2.426,2.426,2.426,0,0,1,2.426,2.426" transform="translate(313.312 47.161)" fill="#a4afff"/><path d="M85.215,10.029a1.521,1.521,0,1,1-1.521-1.521,1.517,1.517,0,0,1,1.521,1.521" transform="translate(248.473 25.726)" fill="#a4afff"/><path d="M29.335,4.994a1.521,1.521,0,1,1-1.521-1.521,1.52,1.52,0,0,1,1.521,1.521" transform="translate(79.504 10.501)" fill="#a4afff"/><path d="M37.7,28.272a1.521,1.521,0,1,1-1.521-1.521A1.52,1.52,0,0,1,37.7,28.272" transform="translate(104.804 80.888)" fill="#a4afff"/><path d="M23.834,55.93a1.521,1.521,0,1,1-1.521-1.521,1.52,1.52,0,0,1,1.521,1.521" transform="translate(62.87 164.52)" fill="#a4afff"/><path d="M100.83,56.364A2.424,2.424,0,1,1,98.4,53.938a2.426,2.426,0,0,1,2.426,2.426" transform="translate(290.225 163.096)" fill="#a4afff"/><path d="M113.644,56.364a2.424,2.424,0,1,1-2.426-2.426,2.426,2.426,0,0,1,2.426,2.426" transform="translate(328.972 163.096)" fill="#a4afff"/><path d="M41.686,4.031a2.424,2.424,0,1,1-2.426-2.426,2.426,2.426,0,0,1,2.426,2.426" transform="translate(111.387 4.852)" fill="#a4afff"/><path d="M83.9,32.063a3.245,3.245,0,1,1-3.243-3.243A3.244,3.244,0,0,1,83.9,32.063" transform="translate(234.056 87.145)" fill="#a4afff"/><path d="M24.422,22.092a3.245,3.245,0,1,1-3.243-3.243,3.244,3.244,0,0,1,3.243,3.243" transform="translate(54.222 56.994)" fill="#a4afff"/><path d="M18.66,11.4h0a2.515,2.515,0,1,1,2.515-2.515A2.516,2.516,0,0,1,18.66,11.4" transform="translate(48.819 19.258)" fill="#fff"/><path d="M20.332,11.4h0a2.515,2.515,0,1,1,2.515-2.515A2.516,2.516,0,0,1,20.332,11.4" transform="translate(53.875 19.258)" fill="#fff"/><path d="M22,11.4h0A2.515,2.515,0,1,1,24.52,8.884,2.516,2.516,0,0,1,22,11.4" transform="translate(58.933 19.258)" fill="#fff"/><path d="M103.833,55.31h0a2.515,2.515,0,1,1,2.515-2.515,2.516,2.516,0,0,1-2.515,2.515" transform="translate(306.363 152.035)" fill="#dee3fc"/><path d="M105.506,55.31h0a2.515,2.515,0,1,1,2.515-2.515,2.516,2.516,0,0,1-2.515,2.515" transform="translate(311.422 152.035)" fill="#dee3fc"/><path d="M107.178,55.31h0a2.515,2.515,0,1,1,2.515-2.515,2.516,2.516,0,0,1-2.515,2.515" transform="translate(316.478 152.035)" fill="#dee3fc"/><path d="M26.511,54.625h0a2.515,2.515,0,1,1,2.515-2.515,2.513,2.513,0,0,1-2.515,2.515" transform="translate(72.559 149.964)" fill="#dee3fc"/><path d="M28.183,54.625h0A2.515,2.515,0,1,1,30.7,52.11a2.513,2.513,0,0,1-2.515,2.515" transform="translate(77.614 149.964)" fill="#dee3fc"/><path d="M29.856,54.625h0a2.515,2.515,0,1,1,2.515-2.515,2.516,2.516,0,0,1-2.515,2.515" transform="translate(82.673 149.964)" fill="#dee3fc"/><path d="M106.311,246.638h0a63.733,63.733,0,0,1-63.733-63.733V64.128a63.733,63.733,0,1,1,127.465,0V182.906a63.733,63.733,0,0,1-63.733,63.733" transform="translate(128.746 1.194)" fill="#3945ba"/><path d="M104.518,241.52h0a61.347,61.347,0,0,1-61.347-61.347V62.281a61.347,61.347,0,1,1,122.693,0V180.173a61.347,61.347,0,0,1-61.347,61.347" transform="translate(130.54 2.811)" fill="#fff"/><path d="M156.46,10.97V224.528a9.069,9.069,0,0,1-9.07,9.07H53.576a9.069,9.069,0,0,1-9.07-9.07V10.97a9.069,9.069,0,0,1,9.07-9.07H69.22a2.3,2.3,0,0,1,2.052,1.267L72.93,6.483a4.492,4.492,0,0,0,4.02,2.491h47.066a4.488,4.488,0,0,0,4.02-2.491l1.658-3.316A2.3,2.3,0,0,1,131.746,1.9H147.39a9.069,9.069,0,0,1,9.07,9.07" transform="translate(134.576 5.744)" fill="#dee3fc"/><path d="M93.01,5.092H55.1a1.6,1.6,0,0,1,0-3.191H93.01a1.6,1.6,0,1,1,0,3.191" transform="translate(161.799 5.747)" fill="#dee3fc"/><path d="M121.635,89.542H118.8a.5.5,0,1,1,0-1h2.837c.689,0,1.383-.035,2.065-.1a.5.5,0,1,1,.1.995C123.085,89.506,122.357,89.542,121.635,89.542Zm-5.674,0h-2.837a.5.5,0,0,1,0-1h2.837a.5.5,0,0,1,0,1Zm-5.674,0H107.45a.5.5,0,0,1,0-1h2.837a.5.5,0,0,1,0,1Zm-5.674,0h-2.837a.5.5,0,1,1,0-1h2.837a.5.5,0,0,1,0,1Zm-5.674,0H96.1a.5.5,0,0,1,0-1h2.837a.5.5,0,0,1,0,1Zm-5.674,0H90.428a.5.5,0,0,1,0-1h2.837a.5.5,0,0,1,0,1Zm-5.674,0H84.754a.5.5,0,0,1,0-1h2.837a.5.5,0,0,1,0,1Zm-5.674,0H79.08a.5.5,0,0,1,0-1h2.837a.5.5,0,0,1,0,1Zm-5.674,0H73.406a.5.5,0,0,1,0-1h2.837a.5.5,0,0,1,0,1Zm-5.674,0H67.732a.5.5,0,0,1,0-1h2.837a.5.5,0,0,1,0,1Zm-5.67-.111-.052,0a21.413,21.413,0,0,1-2.861-.493.5.5,0,0,1,.237-.972,20.408,20.408,0,0,0,2.727.47.5.5,0,0,1-.051,1Zm61.645-.469a.5.5,0,0,1-.117-.986,20.3,20.3,0,0,0,2.639-.83.5.5,0,0,1,.365.931,21.307,21.307,0,0,1-2.769.871A.5.5,0,0,1,126.544,88.962ZM59.4,88.091a.5.5,0,0,1-.183-.035A21.38,21.38,0,0,1,56.6,86.809a.5.5,0,0,1,.49-.872,20.374,20.374,0,0,0,2.5,1.188.5.5,0,0,1-.184.965ZM131.812,86.9a.5.5,0,0,1-.244-.937,20.487,20.487,0,0,0,2.318-1.511.5.5,0,0,1,.6.8,21.492,21.492,0,0,1-2.432,1.585A.5.5,0,0,1,131.812,86.9ZM54.471,85.32a.5.5,0,0,1-.3-.1,21.588,21.588,0,0,1-2.191-1.9.5.5,0,0,1,.705-.709,20.584,20.584,0,0,0,2.089,1.815.5.5,0,0,1-.3.9Zm81.86-1.821a.5.5,0,0,1-.352-.855,20.582,20.582,0,0,0,1.831-2.075.5.5,0,1,1,.793.609,21.584,21.584,0,0,1-1.92,2.176A.5.5,0,0,1,136.332,83.5ZM50.462,81.33a.5.5,0,0,1-.4-.2,21.5,21.5,0,0,1-1.6-2.419.5.5,0,1,1,.869-.495,20.5,20.5,0,0,0,1.529,2.306.5.5,0,0,1-.4.8Zm89.317-2.317a.5.5,0,0,1-.433-.748,20.376,20.376,0,0,0,1.208-2.489.5.5,0,1,1,.927.374,21.382,21.382,0,0,1-1.267,2.612A.5.5,0,0,1,139.779,79.014Zm-92.115-2.6A.5.5,0,0,1,47.2,76.1a21.3,21.3,0,0,1-.893-2.763.5.5,0,0,1,.97-.242,20.3,20.3,0,0,0,.851,2.632.5.5,0,0,1-.464.686ZM141.9,73.768a.5.5,0,0,1-.485-.622,20.39,20.39,0,0,0,.491-2.723.5.5,0,0,1,.994.11,21.4,21.4,0,0,1-.515,2.857A.5.5,0,0,1,141.9,73.768Zm-95.6-2.842a.5.5,0,0,1-.5-.446,21.7,21.7,0,0,1-.125-2.329c0-.19,0-.382.007-.571a.5.5,0,1,1,1,.026c0,.18-.007.364-.007.545a20.7,20.7,0,0,0,.12,2.221.5.5,0,0,1-.443.551Zm96.225-2.78a.5.5,0,0,1-.5-.488,20.6,20.6,0,0,0-.251-2.756.5.5,0,1,1,.987-.158,21.6,21.6,0,0,1,.264,2.891.5.5,0,0,1-.488.512ZM46.446,65.27a.5.5,0,0,1-.494-.58,21.34,21.34,0,0,1,.66-2.827.5.5,0,1,1,.956.293,20.337,20.337,0,0,0-.629,2.694A.5.5,0,0,1,46.446,65.27Zm95.18-2.71a.5.5,0,0,1-.478-.355,20.326,20.326,0,0,0-.984-2.586.5.5,0,0,1,.908-.419,21.329,21.329,0,0,1,1.032,2.713.5.5,0,0,1-.479.646Zm-93.52-2.7a.5.5,0,0,1-.453-.711,21.429,21.429,0,0,1,1.4-2.544.5.5,0,0,1,.842.54,20.427,20.427,0,0,0-1.333,2.425A.5.5,0,0,1,48.1,59.863Zm91.154-2.44a.5.5,0,0,1-.422-.231,20.537,20.537,0,0,0-1.643-2.227.5.5,0,0,1,.763-.647,21.543,21.543,0,0,1,1.723,2.336.5.5,0,0,1-.421.769ZM51.16,55.1a.5.5,0,0,1-.38-.824A21.6,21.6,0,0,1,52.807,52.2a.5.5,0,1,1,.667.745,20.6,20.6,0,0,0-1.933,1.98A.5.5,0,0,1,51.16,55.1Zm84.44-1.994a.5.5,0,0,1-.334-.128,20.552,20.552,0,0,0-2.178-1.707.5.5,0,1,1,.562-.827,21.555,21.555,0,0,1,2.284,1.791.5.5,0,0,1-.335.872ZM55.376,51.33a.5.5,0,0,1-.281-.914,21.451,21.451,0,0,1,2.509-1.46.5.5,0,0,1,.443.9,20.447,20.447,0,0,0-2.392,1.391A.5.5,0,0,1,55.376,51.33Zm75.545-1.4a.5.5,0,0,1-.222-.052,20.328,20.328,0,0,0-2.556-1.06.5.5,0,0,1,.319-.948,21.332,21.332,0,0,1,2.682,1.112.5.5,0,0,1-.223.948Zm-70.474-1.1a.5.5,0,0,1-.158-.974,21.323,21.323,0,0,1,2.81-.729.5.5,0,0,1,.184.983,20.319,20.319,0,0,0-2.678.695A.5.5,0,0,1,60.448,48.826Zm65.114-.7a.5.5,0,0,1-.094-.009,20.507,20.507,0,0,0-2.747-.331.5.5,0,1,1,.052-1,21.508,21.508,0,0,1,2.882.347.5.5,0,0,1-.093.991Zm-59.555-.342a.5.5,0,0,1-.025-1c.36-.018.725-.027,1.086-.027h1.775a.5.5,0,0,1,0,1H67.068c-.345,0-.693.009-1.036.026Zm53.9-.026h-2.837a.5.5,0,0,1,0-1h2.837a.5.5,0,0,1,0,1Zm-5.674,0H111.4a.5.5,0,0,1,0-1h2.837a.5.5,0,0,1,0,1Zm-5.674,0h-2.837a.5.5,0,0,1,0-1h2.837a.5.5,0,0,1,0,1Zm-5.674,0h-2.837a.5.5,0,0,1,0-1h2.837a.5.5,0,0,1,0,1Zm-5.674,0H94.377a.5.5,0,0,1,0-1h2.837a.5.5,0,0,1,0,1Zm-5.674,0H88.7a.5.5,0,0,1,0-1H91.54a.5.5,0,0,1,0,1Zm-5.674,0H83.029a.5.5,0,0,1,0-1h2.837a.5.5,0,0,1,0,1Zm-5.674,0H77.355a.5.5,0,0,1,0-1h2.837a.5.5,0,0,1,0,1Zm-5.674,0H71.681a.5.5,0,0,1,0-1h2.837a.5.5,0,0,1,0,1Z" transform="translate(139.617 142.888)" fill="#698bd1"/><path d="M91.922,54.7H89.085a.5.5,0,0,1,0-1h2.837a.5.5,0,0,1,0,1Zm-5.674,0H83.411a.5.5,0,0,1,0-1h2.837a.5.5,0,0,1,0,1Zm-5.674,0H77.737a.5.5,0,0,1,0-1h2.837a.5.5,0,0,1,0,1Zm-5.674,0H72.063a.5.5,0,0,1,0-1H74.9a.5.5,0,0,1,0,1Zm18.188-.046a.5.5,0,0,1-.039-1,14.163,14.163,0,0,0,2.694-.477.5.5,0,1,1,.269.963,15.164,15.164,0,0,1-2.884.511Zm-23.859-.033-.052,0a15.137,15.137,0,0,1-2.871-.582.5.5,0,1,1,.293-.956,14.134,14.134,0,0,0,2.681.544.5.5,0,0,1-.051,1Zm29.29-1.485a.5.5,0,0,1-.226-.947,14.215,14.215,0,0,0,2.313-1.462.5.5,0,1,1,.613.79,15.217,15.217,0,0,1-2.476,1.565A.5.5,0,0,1,98.519,53.14Zm-34.681-.168a.5.5,0,0,1-.236-.059,15.223,15.223,0,0,1-2.436-1.627.5.5,0,1,1,.633-.774,14.222,14.222,0,0,0,2.275,1.52.5.5,0,0,1-.237.941Zm39.135-3.29a.5.5,0,0,1-.376-.829,14.247,14.247,0,0,0,1.594-2.224.5.5,0,1,1,.865.5,15.248,15.248,0,0,1-1.706,2.38A.5.5,0,0,1,102.972,49.682Zm-43.5-.278a.5.5,0,0,1-.385-.181A15.232,15.232,0,0,1,57.44,46.8a.5.5,0,0,1,.877-.48,14.23,14.23,0,0,0,1.538,2.263.5.5,0,0,1-.384.82ZM105.8,44.8a.5.5,0,0,1-.473-.663,14.115,14.115,0,0,0,.633-2.661.5.5,0,1,1,.991.136,15.118,15.118,0,0,1-.678,2.85A.5.5,0,0,1,105.8,44.8Zm-49.032-.348a.5.5,0,0,1-.477-.35,15.141,15.141,0,0,1-.606-2.866.5.5,0,1,1,.994-.111,14.137,14.137,0,0,0,.566,2.676.5.5,0,0,1-.477.651Zm49.8-5.239a.5.5,0,0,1-.5-.473,14.181,14.181,0,0,0-.413-2.7.5.5,0,1,1,.969-.246,15.184,15.184,0,0,1,.442,2.9.5.5,0,0,1-.472.527Zm-50.432-.365-.04,0a.5.5,0,0,1-.459-.538,15.16,15.16,0,0,1,.514-2.884.5.5,0,0,1,.963.27,14.158,14.158,0,0,0-.48,2.693A.5.5,0,0,1,56.137,38.851Zm49.045-5.1a.5.5,0,0,1-.452-.286,14.194,14.194,0,0,0-1.407-2.346.5.5,0,1,1,.8-.595,15.2,15.2,0,0,1,1.507,2.512.5.5,0,0,1-.451.715ZM57.66,33.423a.5.5,0,0,1-.446-.726,15.213,15.213,0,0,1,1.568-2.474.5.5,0,0,1,.789.614,14.21,14.21,0,0,0-1.465,2.311A.5.5,0,0,1,57.66,33.423Zm44.17-4.205a.5.5,0,0,1-.338-.131,14.261,14.261,0,0,0-2.186-1.646.5.5,0,1,1,.522-.853,15.263,15.263,0,0,1,2.34,1.762.5.5,0,0,1-.338.869Zm-40.706-.245A.5.5,0,0,1,60.8,28.1a15.244,15.244,0,0,1,2.383-1.7.5.5,0,1,1,.5.866,14.242,14.242,0,0,0-2.226,1.591A.5.5,0,0,1,61.124,28.973Zm35.9-2.7a.5.5,0,0,1-.174-.031,14.106,14.106,0,0,0-2.645-.7.5.5,0,1,1,.16-.987,15.108,15.108,0,0,1,2.833.746.5.5,0,0,1-.174.969Zm-31.013-.124a.5.5,0,0,1-.162-.973A15.115,15.115,0,0,1,68.7,24.5a.5.5,0,1,1,.135.991,14.113,14.113,0,0,0-2.662.63A.5.5,0,0,1,66.007,26.153Zm25.447-.787H88.616a.5.5,0,0,1,0-1h2.837a.5.5,0,0,1,0,1Zm-5.674,0H82.942a.5.5,0,0,1,0-1h2.837a.5.5,0,0,1,0,1Zm-5.674,0H77.268a.5.5,0,0,1,0-1h2.837a.5.5,0,0,1,0,1Zm-5.674,0H71.594a.5.5,0,0,1,0-1h2.837a.5.5,0,0,1,0,1Z" transform="translate(169.604 75.188)" fill="#698bd1"/><path d="M120.4,80.67H70.427a23.382,23.382,0,0,1,0-46.764H120.4a23.382,23.382,0,0,1,0,46.764" transform="translate(142.254 102.523)" fill="#4b5a9b"/><path d="M142.526,38.115V74.587a5.143,5.143,0,0,1-5.15,5.142H51.323a5.143,5.143,0,0,1-5.15-5.142V38.115a5.15,5.15,0,0,1,5.15-5.15h86.053a5.15,5.15,0,0,1,5.15,5.15" transform="translate(139.617 99.678)" fill="#7f95f4"/><path d="M63.435,67.926h0A16.157,16.157,0,1,1,79.591,51.771,16.155,16.155,0,0,1,63.435,67.926" transform="translate(142.964 107.679)" fill="#fff"/><path d="M79.517,38.279H57.19a1.1,1.1,0,1,1,0-2.2H79.517a1.1,1.1,0,0,1,0,2.2" transform="translate(169.607 109.103)" fill="#b2c1f9"/><path d="M69.344,39.37H57.193a1.1,1.1,0,1,1,0-2.2H69.344a1.1,1.1,0,1,1,0,2.2" transform="translate(169.604 112.402)" fill="#b2c1f9"/><path d="M94.207,39.37H61.32a1.1,1.1,0,0,1,0-2.2H94.207a1.1,1.1,0,0,1,0,2.2" transform="translate(182.098 112.402)" fill="#b2c1f9"/><path d="M75.993,40.46H57.19a1.1,1.1,0,0,1,0-2.2h18.8a1.1,1.1,0,1,1,0,2.2" transform="translate(169.607 115.698)" fill="#b2c1f9"/><path d="M74.712,40.46H62.891a1.1,1.1,0,1,1,0-2.2H74.712a1.1,1.1,0,1,1,0,2.2" transform="translate(186.845 115.698)" fill="#b2c1f9"/><path d="M77.676,40.46H66.792a1.1,1.1,0,1,1,0-2.2H77.676a1.1,1.1,0,0,1,0,2.2" transform="translate(198.629 115.698)" fill="#b2c1f9"/><path d="M106.7,41.551H57.188a1.1,1.1,0,0,1,0-2.2H106.7a1.1,1.1,0,0,1,0,2.2" transform="translate(169.604 118.997)" fill="#b2c1f9"/><path d="M84.439,42.642H57.19a1.1,1.1,0,0,1,0-2.2H84.439a1.1,1.1,0,0,1,0,2.2" transform="translate(169.607 122.296)" fill="#b2c1f9"/><path d="M82.922,42.642H65.053a1.1,1.1,0,0,1,0-2.2h17.87a1.1,1.1,0,0,1,0,2.2" transform="translate(193.383 122.296)" fill="#b2c1f9"/><path d="M73.2,43.733H57.188a1.1,1.1,0,0,1,0-2.2H73.2a1.1,1.1,0,0,1,0,2.2" transform="translate(169.604 125.595)" fill="#b2c1f9"/><path d="M78.255,43.733H62.244a1.1,1.1,0,0,1,0-2.2H78.255a1.1,1.1,0,0,1,0,2.2" transform="translate(184.892 125.595)" fill="#b2c1f9"/><path d="M76.475,43.733H67.185a1.1,1.1,0,0,1,0-2.2h9.291a1.1,1.1,0,0,1,0,2.2" transform="translate(199.829 125.595)" fill="#b2c1f9"/><path d="M79.517,44.824H57.19a1.1,1.1,0,0,1,0-2.2H79.517a1.1,1.1,0,0,1,0,2.2" transform="translate(169.607 128.894)" fill="#b2c1f9"/><path d="M86.272,38.279H63.945a1.1,1.1,0,0,1,0-2.2H86.272a1.1,1.1,0,1,1,0,2.2" transform="translate(190.032 109.103)" fill="#b2c1f9"/><path d="M142.526,38.115v1.533H46.173V38.115a5.15,5.15,0,0,1,5.15-5.15h86.053a5.15,5.15,0,0,1,5.15,5.15" transform="translate(139.617 99.678)" fill="#3052ce"/><path d="M67.4,34.724a1.193,1.193,0,1,1-1.2-1.2,1.2,1.2,0,0,1,1.2,1.2" transform="translate(196.582 101.383)" fill="#dee3fc"/><path d="M68.916,34.724a1.193,1.193,0,1,1-1.2-1.2,1.2,1.2,0,0,1,1.2,1.2" transform="translate(201.172 101.383)" fill="#dee3fc"/><path d="M70.434,34.724a1.193,1.193,0,1,1-1.2-1.2,1.2,1.2,0,0,1,1.2,1.2" transform="translate(205.762 101.383)" fill="#dee3fc"/><path d="M62.23,54.63a15.1,15.1,0,1,1,10.68-4.424A15,15,0,0,1,62.23,54.63Zm0-29.309a14.2,14.2,0,1,0,10.046,4.16A14.114,14.114,0,0,0,62.23,25.321Z" transform="translate(143.856 75.21)" fill="#495ad6"/><path d="M53.288,36.775a.833.833,0,0,1-.591-.245L48.44,32.277a.836.836,0,0,1,0-1.183l4.225-4.225a.836.836,0,1,1,1.182,1.182l-3.634,3.634,3.665,3.662a.836.836,0,0,1-.591,1.427Z" transform="translate(148.259 83.035)" fill="#495ad6"/><path d="M52.345,36.775a.836.836,0,0,1-.591-1.427l3.662-3.662-3.63-3.634a.836.836,0,0,1,1.183-1.182L57.19,31.1a.836.836,0,0,1,0,1.182L52.937,36.53A.833.833,0,0,1,52.345,36.775Z" transform="translate(158.281 83.035)" fill="#495ad6"/><path d="M0,9.314a.833.833,0,0,1-.353-.079.836.836,0,0,1-.4-1.111L3.2-.353a.836.836,0,0,1,1.111-.4.836.836,0,0,1,.4,1.111L.758,8.832A.836.836,0,0,1,0,9.314Z" transform="translate(204.108 110.496)" fill="#495ad6"/><path d="M142.526,11.495V71.127a5.853,5.853,0,0,1-5.859,5.855H52.032a5.858,5.858,0,0,1-5.859-5.855V11.495a5.862,5.862,0,0,1,5.859-5.859h84.636a5.857,5.857,0,0,1,5.859,5.859" transform="translate(139.617 17.041)" fill="#b2c1f9"/><path d="M89.728,20.811A13.965,13.965,0,1,1,75.766,6.848,13.96,13.96,0,0,1,89.728,20.811" transform="translate(186.867 20.706)" fill="#f0f4ff"/><path d="M102.812,64.883H52.032a5.859,5.859,0,0,1-5.859-5.859V49.637L68.4,11.146a3.018,3.018,0,0,1,5.227,0L90.4,40.206,102.86,61.789a2.957,2.957,0,0,1-.048,3.094" transform="translate(139.617 29.139)" fill="#fff"/><path d="M102.182,52.926H53.623L67.871,28.248l7.677-13.3a2.719,2.719,0,0,1,4.708,0Z" transform="translate(162.144 41.097)" fill="#f0f4ff"/><rect width="37.437" height="56.26" transform="translate(323.206 204.83)" fill="#3b47bc"/><rect width="14.333" height="56.26" transform="translate(360.643 204.83)" fill="#495ad6"/><rect width="10.522" height="1.795" transform="translate(362.699 206.991)" fill="#b2c1f9"/><rect width="10.522" height="1.795" transform="translate(362.699 210.85)" fill="#b2c1f9"/><rect width="10.522" height="1.795" transform="translate(362.699 214.705)" fill="#b2c1f9"/><rect width="10.522" height="1.795" transform="translate(362.699 218.564)" fill="#b2c1f9"/><rect width="10.522" height="1.795" transform="translate(362.699 222.418)" fill="#b2c1f9"/><rect width="10.522" height="1.795" transform="translate(362.699 226.277)" fill="#b2c1f9"/><rect width="10.522" height="1.795" transform="translate(362.699 230.136)" fill="#b2c1f9"/><rect width="10.522" height="1.795" transform="translate(362.699 233.991)" fill="#b2c1f9"/><rect width="10.522" height="1.795" transform="translate(362.699 237.85)" fill="#b2c1f9"/><rect width="10.522" height="1.795" transform="translate(362.699 241.704)" fill="#b2c1f9"/><rect width="10.522" height="1.795" transform="translate(362.699 245.563)" fill="#b2c1f9"/><rect width="10.522" height="1.795" transform="translate(362.699 249.422)" fill="#b2c1f9"/><rect width="10.522" height="1.795" transform="translate(362.699 253.277)" fill="#b2c1f9"/><rect width="10.522" height="1.795" transform="translate(362.699 257.136)" fill="#b2c1f9"/><path d="M78.832,70.587H97.856A10.365,10.365,0,0,0,96.617,63s-1.533,1.227-6.12.4a20.272,20.272,0,0,1-3.235,2.261c-1.328.64-8.941,2.137-8.43,4.925" transform="translate(238.295 190.503)" fill="#281616"/><path d="M79.47,54.451c1.227,7.331,6.9,32.138,9.335,46.8a22.384,22.384,0,0,0,7.73-.394c-.221-5.11-.66-17.334-.608-22.694.084-9.062.507-21.008-3.481-27.563L79.035,51.65c.084.708.157,1.284.221,1.694.064.394.141.76.213,1.107" transform="translate(238.984 152.99)" fill="#002c54"/><path d="M70.279,70.587H89.3A10.365,10.365,0,0,0,88.064,63s-1.533,1.227-6.12.4a20.272,20.272,0,0,1-3.235,2.261c-1.328.64-8.941,2.137-8.43,4.925" transform="translate(212.432 190.503)" fill="#281616"/><path d="M73.023,104.131a21.784,21.784,0,0,0,7.516.672c1.01-5.891,2.607-18.851,4.048-24.927,2.229-9.444,4.414-22.429,2.9-27.064L74.295,49.5c-.044.418-1.119,40.161-1.271,54.631" transform="translate(220.805 149.676)" fill="#052635"/><path d="M124.594,49.53h0c-.266-2.607-.571-4.511-.571-4.511l-14.735,3.605L96.766,51.477c-4.639,1.034-10.249,2.281-15.19,3.4-5.545,1.259-9.227,5.472-8.015,11.029l1.392,6.736c7.758-.1,44.229-3.6,47.352-5.179,3.525-1.779,4.583-8.072,2.29-17.93" transform="translate(221.733 136.127)" fill="#052635"/><path d="M130.062,50.2h0a20.36,20.36,0,0,0-1.537-5.4l-13.769,4.5-12.522,2.853c-4.639,1.034-10.249,2.281-15.19,3.4C81.5,56.8,77.817,61.017,79.029,66.574l1.392,6.736c7.758-.1,40.181-1.235,47.352-5.179,3.46-1.9,4.583-8.072,2.29-17.93" transform="translate(238.267 135.455)" fill="#002c54"/><path d="M97.566,41.875s6.547-2.953,8.349.008c.986,1.626.3,4.639-1.931,5.911S89.136,54.389,77.23,57.366a29.652,29.652,0,0,0-1.328-3.4,62.93,62.93,0,0,0,10.651-5.943,68.084,68.084,0,0,1,11.013-6.152" transform="translate(229.511 122.657)" fill="#e5918f"/><path d="M85.908,35.81,80.3,58.218s.579,5.665,6.3,2.885S96.112,40.47,96.112,40.47Z" transform="translate(242.806 108.281)" fill="#e5918f"/><path d="M93.126,58.038c-.7-.169-1.356-.35-2-.543s-1.276-.39-1.867-.6a31.5,31.5,0,0,1-8.213-4.02,58.909,58.909,0,0,1,5.492-15.4,1.75,1.75,0,0,0,.133-.241c.048-.076.1-.157.145-.237a14,14,0,0,1,3.9-4.064c.161-.109.31-.213.471-.326l.664,11.7.109,1.2Z" transform="translate(245.08 98.586)" fill="#fff"/><path d="M86.955,49.427c-.7-.169-1.356-.35-2-.543s-1.276-.39-1.867-.6c1.119-7.879,2.133-12.832,2.133-12.832L85.8,36.9Z" transform="translate(251.252 107.198)" fill="#c7e5f2"/><path d="M119.986,41.122c-.137,3.464-.74,9.025-1.267,14.61-.169,1.774-.33,3.553-.463,5.267-.1,1.07-1.71,6.776-1.774,7.8-.286,4.885-2.68,8.538-.414,15.978a11.7,11.7,0,0,1,.68,3.432c0,.507-.664,1.042-.925,1.187a15.644,15.644,0,0,1-5.086,1.215h-.008a132.549,132.549,0,0,1-14.107.644c-4.877,0-12.2-.773-13.122-2-.845-1.123-.064-2.76.338-5.018,1.795-10.192,1.155-15.508,1.042-22.863,0-.185-.008-.37-.008-.559-.181-11.347-.934-21.06-.406-24.565.161-.113.314-.213.471-.326q1.165-.791,2.269-1.412c.06-.032.141-.08.221-.129.225-.129.455-.245.672-.366a2.494,2.494,0,0,1,.253-.129A56.141,56.141,0,0,1,93.8,31.738c.173-.056.334-.113.471-.153,1.3-.08,2.712-.1,4.237-.056,1.324.04,3.352.217,5.553.5h.008a57.078,57.078,0,0,1,7.376,1.38l.04.016a15.23,15.23,0,0,1,5.8,4.064,19.567,19.567,0,0,1,2.7,3.629" transform="translate(251.34 95.272)" fill="#fff"/><path d="M96.108,71.93a11.7,11.7,0,0,1,.68,3.432c0,.511-.664,1.046-.925,1.187a15.7,15.7,0,0,1-5.086,1.215,3.605,3.605,0,0,0,2.547-2.929c0-.938-1.215-7.255-.877-11.331s1-10.55-.266-15.737-2.459-12.011-2.459-12.011l7.11,4.293s.921,1.284,1.923,2.841c-.165,1.77-.326,3.549-.463,5.267-.093,1.066-4.45,16.337-2.185,23.772" transform="translate(271.3 108.117)" fill="#c7e5f2"/><path d="M83.535,26.443s.616,7.44,3.082,7.935,1.859-2.66,1.859-2.66l-.346-3.529Z" transform="translate(252.591 79.957)" fill="#002c54"/><path d="M88.8,47.145c-4.829-.575-3.026-5.267-2.362-6.345.177-.056,1.006-.31,1.07-.35l.016-.008a1.353,1.353,0,0,0,.374-.559,11.431,11.431,0,0,0,.237-3.863v-.455c.08-.294.161-.575.225-.837l2.539-2,5.368-4.221s-1.428,7.062-.278,11.516A1.685,1.685,0,0,0,96.7,41.1h.008a1.358,1.358,0,0,0,.535.189c1.32.624-.519,6.8-8.442,5.859" transform="translate(258.694 86.21)" fill="#e5918f"/><path d="M91.3,29.626a8.011,8.011,0,0,1-5.163,6.881,11.31,11.31,0,0,0,.241-3.855l2.145-1.682Z" transform="translate(260.453 89.582)" fill="#cc6362"/><path d="M83.828,32.252S84.943,47.687,89.111,49a10.846,10.846,0,0,0,9.118-4.631c1.1-1.477,2.487-1.811,2.941-3.593.732-2.9,1.775-8.237.447-11.464-1.887-4.583-17.612-8.225-17.789,2.941" transform="translate(253.477 75.207)" fill="#e5918f"/><path d="M105.078,28.8c-.068-2.8-2.905-3.851-2.905-3.851-2.825-1.32-8.7-.752-14.747.6-1.416.314-3.2-.555-4.189.133-1.2.829,0,4.627,0,4.627,2.334,7.066,10.925,4.768,13.5,3.9.616,1.823.535,4.35,2.064,5.657.873.744,2.39.765,3.931.507.189.362.9.68,1.046,1.175a25.035,25.035,0,0,1,.4,6.229l.728-.358c.1-.539,7.629-18.385.173-18.614" transform="translate(250.081 73.175)" fill="#002c54"/><path d="M85.679,27.242a2.489,2.489,0,0,1,2.206,2.241,2.964,2.964,0,0,1-.277,1.891A1.889,1.889,0,0,1,86.267,32.4a1.7,1.7,0,0,1-.284.024,2.5,2.5,0,0,1-2.206-2.24,2.391,2.391,0,0,1,1.617-2.917A1.705,1.705,0,0,1,85.679,27.242Zm.3,4.68a1.2,1.2,0,0,0,.2-.017,1.4,1.4,0,0,0,.983-.769,2.462,2.462,0,0,0,.224-1.57,1.994,1.994,0,0,0-1.712-1.824,1.2,1.2,0,0,0-.2.017A1.9,1.9,0,0,0,84.271,30.1,2,2,0,0,0,85.983,31.923Z" transform="translate(253.941 83.132)" fill="#fff"/><path d="M86.93,27.008a2.489,2.489,0,0,1,2.206,2.241,2.964,2.964,0,0,1-.277,1.891,1.889,1.889,0,0,1-1.341,1.026,1.7,1.7,0,0,1-.284.024,2.5,2.5,0,0,1-2.206-2.24,2.391,2.391,0,0,1,1.617-2.917A1.7,1.7,0,0,1,86.93,27.008Zm.3,4.68a1.2,1.2,0,0,0,.2-.017,1.4,1.4,0,0,0,.983-.769,2.462,2.462,0,0,0,.224-1.57,1.994,1.994,0,0,0-1.712-1.824,1.2,1.2,0,0,0-.2.017,1.9,1.9,0,0,0-1.207,2.339A2,2,0,0,0,87.234,31.689Z" transform="translate(257.724 82.424)" fill="#fff"/><path transform="translate(256.689 84.452)" fill="#fff"/><path d="M.04.935-.04.441,4.266-.247l.079.495Z" transform="translate(346.655 111.336)" fill="#fff"/><path d="M88.225,33.909c2.966,1.135,3.891-6.16,1.074-6.482-2.133-.245-2.221,2.732-2.221,2.732s-.547,3.1,1.147,3.75" transform="translate(263.051 82.888)" fill="#e5918f"/><g transform="translate(349.812 111.249)" opacity="0.5"><g clip-path="url(#d)"><path d="M89.378,27.814c.113,1.352.515,1.5.463,1.879a4.9,4.9,0,0,1-1.09,1.891,1.962,1.962,0,0,1-1.811-2.157,1.782,1.782,0,0,1,2.438-1.614" transform="translate(-86.936 -27.649)" fill="#cc6362"/><path d="M89.772,28.262a.939.939,0,0,0-.068,1.561l-2.744-.982a2.177,2.177,0,0,1,2.813-.579h0" transform="translate(-86.867 -26.709)" fill="#cc6362"/></g></g><path d="M105.766,59.371v.008c-1.3,1.509-6.245,2.611-8.623.523a13.822,13.822,0,0,1-2.422-4.6,142.3,142.3,0,0,1-4.1-13.894l11.061-5.653s1.424,6.382,2.652,12.446c0,0,.008.06.032.169.4,1.943.769,3.851,1.062,5.492a.71.71,0,0,1,.02.129,23.229,23.229,0,0,1,.322,5.38" transform="translate(274.003 108.114)" fill="#e5918f"/><path d="M89.578,44.137A133.325,133.325,0,0,0,94,57a17.528,17.528,0,0,0,8.116-.982,14.974,14.974,0,0,0,5.171-3.36S105.066,46.4,103.07,41.9c-1.795-4.036-2.873-5.541-3.65-6.341a17.638,17.638,0,0,0-4.39-3.267Z" transform="translate(270.864 97.64)" fill="#fff"/><path d="M101.776,47.963l-6.49-2.8L90.171,31.985s.938.286,2.169.785h.008c.024.012.076.028.165.064l.1.04c1.1.515,5.38,3.038,8.341,12.2l.072.229c.314,1.058.543,1.907.668,2.346l.036.129c.02.06.032.125.048.185" transform="translate(272.657 96.715)" fill="#fff"/><path d="M119.944,50.142v.008c-.1.809-.318,1.392-.72,1.6-.064.04-.97.583-1.034.624a55.621,55.621,0,0,1-6.857,3.545,248.457,248.457,0,0,1-23.941,8.6,28.079,28.079,0,0,0-1.465-3.344A62.943,62.943,0,0,0,96.32,54.8c5.158-3.939,12.578-8.724,12.578-8.724l1.875-2.205s6.663-6.132,7.734-4.9c0,0,.008.06.032.169.157.64.688,2.99,1.062,5.492a.71.71,0,0,1,.02.129,23.23,23.23,0,0,1,.322,5.38" transform="translate(259.824 117.343)" fill="#e5918f"/><path d="M92.323,44.961a4.128,4.128,0,0,1-2.628.507c-.736-.157-1.034-.455-1.573-.551a12.358,12.358,0,0,1-2.708-.624c-.712-.354-.994-.39-.97.326s1.44,1.34,1.823,1.541a3.6,3.6,0,0,1,.913.917c.052.076-2.354,1.336-3,1.082a1.891,1.891,0,0,0-.08.9c.109.326.6.439.644.6s-.117.495-.008.752.547.258.728.68-.02.422.113.861.688.515.793.74.048.491.286.644a10.854,10.854,0,0,0,3.187-.877c.789-.338,2.9-3.376,5.235-4.41Z" transform="translate(254.193 133.187)" fill="#e5918f"/><path d="M101.51,48.881H84.683V47.235H101.51a.823.823,0,1,1,0,1.646" transform="translate(256.063 142.827)" fill="#375f84"/><path d="M125.588,72.617H83.455a1.129,1.129,0,0,1-1.082-.821L73.75,40.753a1.08,1.08,0,0,1,1.042-1.368h40.741a2.115,2.115,0,0,1,2.036,1.549l8.591,30.931a.593.593,0,0,1-.571.752" transform="translate(222.883 119.091)" fill="#375f84"/><path d="M125.209,72.617H83.076a1.129,1.129,0,0,1-1.082-.821L73.371,40.753a1.08,1.08,0,0,1,1.042-1.368h40.741a2.115,2.115,0,0,1,2.036,1.549l8.591,30.931a.593.593,0,0,1-.571.752" transform="translate(221.737 119.091)" fill="#467cdb"/><path d="M44.725,52.523l4.881-5.006a13.083,13.083,0,0,1,.435-2.7,12.349,12.349,0,0,1,1.3-2.4,1.744,1.744,0,0,1,1.026,0,4.646,4.646,0,0,1,.982-.229,2.91,2.91,0,0,1,.873.278s.728-.048,1.03-.048a.651.651,0,0,1,.4.085A22.385,22.385,0,0,1,57.4,40.689c.571-.455,1.445-1.3,1.7-1.292.241,0,.35.431.173.889a5.083,5.083,0,0,1-.95,1.191L56.1,44.845a4.921,4.921,0,0,0,.583-.278c.205-.129,1.561-1.392,1.642-1.445s.692-.455,1.046-.052-2.33,3.621-2.76,4.052a23.448,23.448,0,0,1-2.9,1.678s-2.6,4.684-2.857,4.989-6.128-1.267-6.128-1.267" transform="translate(135.239 119.127)" fill="#e49191"/><path d="M59.491,43.126S56.767,58.919,54.2,59.285c0,0-10.245.41-12.526-12.015-1.98-10.776,5.959-13.073,9.669-12.252s8.945,1.36,8.148,8.108" transform="translate(125.068 105.427)" fill="#e49191"/><path d="M51.237,46.754S49.8,48.689,49.3,53.373a15.21,15.21,0,0,1-8.2-1.412,58.079,58.079,0,0,0,2.382-13.785" transform="translate(124.268 115.432)" fill="#e49191"/><path d="M49.147,34.391c-5.6,1.235-5.15,4.724-5.15,4.724-2.619.648-3.183,1.73-3.163,6.567S42.6,56.329,43.57,56.8s6.438.495,6.9.33,2.37-4.6,1.927-5.388.02-3.851,1.3-3.967,1.026,1.863,1.026,1.863l1.046-.233.809-1.984c7.4.443,9.307-7.987,9.307-7.987-1.774-1.159-11.134-6.281-16.731-5.046" transform="translate(123.47 103.414)" fill="#002c54"/><path d="M29.827,60.87l5.661.817L33.613,68.3l-6.132-1.545a3.986,3.986,0,0,1,1.272-5.883,2.056,2.056,0,0,1,1.074,0" transform="translate(80.646 183.839)" fill="#e5918f"/><path d="M68.071,75.881,59.73,50.62s-2.531-.9-3.827,0c0,0-8.691,4.676-7.762,18a218.625,218.625,0,0,0,3.678,25.314l-22.256-.825a7.578,7.578,0,0,0-.97,7.512s27.965,7.52,31.909,8.217c3.2.567,6.7,1,8.4-.447,2.982-2.555-.829-32.508-.829-32.508" transform="translate(84.651 151.852)"/><path d="M36.377,60.87l5.661.817L40.163,68.3l-6.132-1.545A3.986,3.986,0,0,1,35.3,60.87a2.056,2.056,0,0,1,1.074,0" transform="translate(100.452 183.839)" fill="#e5918f"/><path d="M40.954,65.61c-.125,1.3,1.01,2.475.8,2.8s-4.016,6.708-4.016,6.708,2.873,1.251,2.41,3.058H32.879A6.028,6.028,0,0,1,31.028,74a20.986,20.986,0,0,1,1.791-5.327c1.3-2.5,4.245-8.152,4.245-8.152a4.113,4.113,0,0,1,2.426.048,14.582,14.582,0,0,1,3.517,1.573s-1.738.249-2.052,3.464" transform="translate(93.818 182.564)" fill="#467cdb"/><path d="M89.079,102.781c-1.795-6.7-18.694-35.313-24.412-43.034-11.741-5.1-24.255-9.428-24.255-9.428-5.175,1.239-7.726,11.665-4.788,18.618,2.012,4.772,14.787,16.775,22.614,23.841l-21.712-.024s-2.555,3.823-.237,7.452c0,0,36.105,8.213,39.272,8.675s10.277,0,10.277,0,4.756-.459,3.243-6.1" transform="translate(103.966 152.153)" fill="#002c54"/><path d="M34.405,65.61c-.125,1.3,1.01,2.475.8,2.8s-4.016,6.708-4.016,6.708,2.873,1.251,2.41,3.058H26.33A6.028,6.028,0,0,1,24.479,74a20.986,20.986,0,0,1,1.791-5.327c1.3-2.5,4.245-8.152,4.245-8.152a4.113,4.113,0,0,1,2.426.048,14.581,14.581,0,0,1,3.517,1.573s-1.738.249-2.052,3.464" transform="translate(74.015 182.564)" fill="#467cdb"/><path d="M74.937,41.451,63.292,61.936l-8.341-8.313L48.05,63.9l2,.962-.72.6s16.1,7.838,18.023,6.112S78.269,43.781,78.269,43.781Z" transform="translate(145.293 125.338)" fill="#e49191"/><path d="M97.856,57.737s-2.2,9.275-6.595,13.669L80.01,67.125S74.791,75.9,69.685,82.637c-1.964,2.6-2.615,6.261-4.921,6.74a4.226,4.226,0,0,0-.423-.129c-6.253-1.879-15.475.113-23.088-2.716-8.406-3.126-6.772-4.889-6.772-4.889a108.726,108.726,0,0,0,7.991-18.92,116.807,116.807,0,0,0,2.776-11.407A13.132,13.132,0,0,1,56.306,40.737c.064-.008.121-.02.185-.028,6.374-.809,23.06,1.159,26.3,2.547S97.856,57.737,97.856,57.737" transform="translate(103.876 122.523)" fill="#467cdb"/><path d="M57.157,48.251s-5.219,8.78-10.325,15.512c-1.964,2.6-2.615,6.257-4.921,6.74,1.01-.358,2.684-5.674,3.279-6.869s1.553-2.386,3.617-6.559,4.845-10.313,4.845-10.313Z" transform="translate(126.73 141.397)" fill="#5996ef"/><path d="M40.311,62.284A7.392,7.392,0,0,1,51.533,63.9c-4.462,1.69-7.436,1.3-11.222-1.614" transform="translate(121.892 182.647)"/><path d="M63.943,42.331a10.861,10.861,0,0,0-1.96,1.412l.664-1.272a12.478,12.478,0,0,0,1.2-1.312c.318-.467.149-.934-.1-.958a9.962,9.962,0,0,0-1.831,1.312l.133-.258a12.507,12.507,0,0,0,1.2-1.312c.314-.467.149-.93-.1-.958a15.817,15.817,0,0,0-2.269,1.674l-.986,1.316.744-1.441a6.164,6.164,0,0,0,.648-1c.262-.519.072-.68-.072-.853s-1.5.837-1.851,1.243a21.771,21.771,0,0,0-1.533,2.277l-1.135,2.354c-.072-.684-.189-1.847-.27-2.591-.113-1.07-1.082-1.324-1.119-.8a27.653,27.653,0,0,0-.451,4.47c.125,1.388.354,2.3.443,3.082a6.111,6.111,0,0,1-.724,2.342s3.243,2.012,3.778,1.412a25.734,25.734,0,0,0,2.225-2.841,15.189,15.189,0,0,0,1.267-2.865L62.849,44.6a12.952,12.952,0,0,0,1.2-1.312c.314-.467.149-.934-.1-.958" transform="translate(164.989 116.917)" fill="#e49191"/><path d="M96.992,22.92h38a4.864,4.864,0,0,1,4.858,4.858v8.977a4.864,4.864,0,0,1-4.858,4.858H101.913a.2.2,0,0,0-.156.081l-3.869,5.413a.73.73,0,0,1-.6.309.745.745,0,0,1-.745-.742V41.761a.186.186,0,0,0-.164-.187,4.863,4.863,0,0,1-4.247-4.818V27.778A4.864,4.864,0,0,1,96.992,22.92Zm38,17.8a3.967,3.967,0,0,0,3.962-3.962V27.778a3.967,3.967,0,0,0-3.962-3.962h-38a3.967,3.967,0,0,0-3.962,3.962v8.977a3.966,3.966,0,0,0,3.463,3.929,1.086,1.086,0,0,1,.947,1.076v4.432l3.592-5.026a1.1,1.1,0,0,1,.881-.449Z" transform="translate(279.948 70.659)" fill="#fff"/><path d="M1.453-.448a1.9,1.9,0,1,1-1.9,1.9A1.9,1.9,0,0,1,1.453-.448Zm0,2.905a1,1,0,1,0-1-1A1.006,1.006,0,0,0,1.453,2.457Z" transform="translate(379.867 101.46)" fill="#fff"/><path d="M1.453-.448a1.9,1.9,0,1,1-1.9,1.9A1.9,1.9,0,0,1,1.453-.448Zm0,2.905a1,1,0,1,0-1-1A1.006,1.006,0,0,0,1.453,2.457Z" transform="translate(387.178 101.46)" fill="#fff"/><path d="M1.453-.448a1.9,1.9,0,1,1-1.9,1.9A1.9,1.9,0,0,1,1.453-.448Zm0,2.905a1,1,0,1,0-1-1A1.006,1.006,0,0,0,1.453,2.457Z" transform="translate(394.489 101.46)" fill="#fff"/><path d="M1.453-.448a1.9,1.9,0,1,1-1.9,1.9A1.9,1.9,0,0,1,1.453-.448Zm0,2.905a1,1,0,1,0-1-1A1.006,1.006,0,0,0,1.453,2.457Z" transform="translate(401.8 101.46)" fill="#fff"/><path d="M1.453-.448a1.9,1.9,0,1,1-1.9,1.9A1.9,1.9,0,0,1,1.453-.448Zm0,2.905a1,1,0,1,0-1-1A1.006,1.006,0,0,0,1.453,2.457Z" transform="translate(409.111 101.46)" fill="#fff"/><path d="M31.813,32.7h38a4.864,4.864,0,0,1,4.858,4.858v8.977a4.863,4.863,0,0,1-4.247,4.818.186.186,0,0,0-.163.187v4.913a.745.745,0,0,1-.745.742.729.729,0,0,1-.6-.308l-3.872-5.417a.2.2,0,0,0-.155-.078H31.813a4.864,4.864,0,0,1-4.858-4.858V37.559A4.864,4.864,0,0,1,31.813,32.7ZM69.366,55.974V51.542a1.086,1.086,0,0,1,.947-1.076,3.966,3.966,0,0,0,3.463-3.929V37.559A3.967,3.967,0,0,0,69.814,33.6h-38a3.967,3.967,0,0,0-3.962,3.962v8.977A3.967,3.967,0,0,0,31.813,50.5H64.893a1.1,1.1,0,0,1,.881.449Z" transform="translate(82.861 100.234)" fill="#fff"/><path d="M1.453-.448a1.9,1.9,0,1,1-1.9,1.9A1.9,1.9,0,0,1,1.453-.448Zm0,2.905a1,1,0,1,0-1-1A1.006,1.006,0,0,0,1.453,2.457Z" transform="translate(146.844 140.815)" fill="#fff"/><path d="M1.453-.448a1.9,1.9,0,1,1-1.9,1.9A1.9,1.9,0,0,1,1.453-.448Zm0,2.905a1,1,0,1,0-1-1A1.006,1.006,0,0,0,1.453,2.457Z" transform="translate(139.533 140.815)" fill="#fff"/><path d="M1.453-.448a1.9,1.9,0,1,1-1.9,1.9A1.9,1.9,0,0,1,1.453-.448Zm0,2.905a1,1,0,1,0-1-1A1.006,1.006,0,0,0,1.453,2.457Z" transform="translate(132.221 140.815)" fill="#fff"/><path d="M1.453-.448a1.9,1.9,0,1,1-1.9,1.9A1.9,1.9,0,0,1,1.453-.448Zm0,2.905a1,1,0,1,0-1-1A1.006,1.006,0,0,0,1.453,2.457Z" transform="translate(124.91 140.815)" fill="#fff"/><path d="M1.453-.448a1.9,1.9,0,1,1-1.9,1.9A1.9,1.9,0,0,1,1.453-.448Zm0,2.905a1,1,0,1,0-1-1A1.006,1.006,0,0,0,1.453,2.457Z" transform="translate(117.599 140.815)" fill="#fff"/><path d="M142.779,28.617H73.518a6.917,6.917,0,0,1,0-13.834h69.261a6.917,6.917,0,1,1,0,13.834" transform="translate(201.387 44.7)" fill="#fff"/><path d="M142.779,29.065H73.518a7.365,7.365,0,0,1,0-14.73h69.261a7.365,7.365,0,1,1,0,14.73ZM73.518,15.231a6.469,6.469,0,0,0,0,12.938h69.261a6.469,6.469,0,1,0,0-12.938Z" transform="translate(201.387 44.7)" fill="#495ad6"/><path d="M3.678-.836A4.514,4.514,0,1,1-.836,3.678,4.519,4.519,0,0,1,3.678-.836Zm0,7.355A2.842,2.842,0,1,0,.836,3.678,2.845,2.845,0,0,0,3.678,6.519Z" transform="translate(335.795 62.247)" fill="#495ad6"/><path d="M2.032,2.868a.833.833,0,0,1-.591-.245L-.591.591a.836.836,0,0,1,0-1.182.836.836,0,0,1,1.182,0L2.623,1.441a.836.836,0,0,1-.591,1.427Z" transform="translate(342.073 68.525)" fill="#495ad6"/><path d="M67.989,86.36h0A14.232,14.232,0,1,1,82.221,72.128,14.234,14.234,0,0,1,67.989,86.36" transform="translate(162.549 175.064)" fill="#193091"/><path d="M66.7,86.36h0A14.232,14.232,0,1,1,80.935,72.128,14.235,14.235,0,0,1,66.7,86.36" transform="translate(158.649 175.064)" fill="#495ad6"/><path d="M56.022,60.175l8.172,4.716a.759.759,0,0,1,0,1.312l-8.172,4.716a.756.756,0,0,1-1.135-.656V60.83a.757.757,0,0,1,1.135-.656" transform="translate(165.966 181.646)" fill="#fff"/><path d="M115.4,92.931h0a18.6,18.6,0,1,1,18.606-18.606A18.6,18.6,0,0,1,115.4,92.931" transform="translate(292.693 168.493)" fill="#193091"/><path d="M113.718,92.931h0a18.6,18.6,0,1,1,18.606-18.606,18.6,18.6,0,0,1-18.606,18.606" transform="translate(287.598 168.493)" fill="#495ad6"/><path d="M107.566,61.35a4.47,4.47,0,1,1-4.47-4.47,4.468,4.468,0,0,1,4.47,4.47" transform="translate(298.22 171.992)" fill="#fff"/><path d="M116.058,68.756v6.6a1.078,1.078,0,0,1-1.078,1.078H98.5a1.078,1.078,0,0,1-1.078-1.078v-6.6a9.319,9.319,0,0,1,18.638,0" transform="translate(294.577 179.724)" fill="#fff"/><path d="M90.876,21.852H76.245a1.1,1.1,0,0,1,0-2.2h14.63a1.1,1.1,0,1,1,0,2.2" transform="translate(227.228 59.432)" fill="#f0f4ff"/><path d="M91.474,21.852H80.887a1.1,1.1,0,0,1,0-2.2H91.474a1.1,1.1,0,0,1,0,2.2" transform="translate(241.264 59.432)" fill="#f0f4ff"/><path d="M82.462,23.054H76.245a1.1,1.1,0,0,1,0-2.2h6.217a1.1,1.1,0,1,1,0,2.2" transform="translate(227.228 63.066)" fill="#f0f4ff"/><path d="M98.066,23.054H78.708a1.1,1.1,0,0,1,0-2.2H98.066a1.1,1.1,0,0,1,0,2.2" transform="translate(234.672 63.066)" fill="#f0f4ff"/><path d="M95.531,24.255H76.25a1.1,1.1,0,1,1,0-2.2H95.531a1.1,1.1,0,1,1,0,2.2" transform="translate(227.228 66.698)" fill="#f0f4ff"/><path d="M88.19,24.255H81.974a1.1,1.1,0,0,1,0-2.2H88.19a1.1,1.1,0,0,1,0,2.2" transform="translate(244.548 66.698)" fill="#f0f4ff"/><path d="M60.808,71.595H35.024A15.384,15.384,0,0,1,19.645,56.212v-.491A15.384,15.384,0,0,1,35.024,40.338H60.808A15.381,15.381,0,0,1,76.187,55.721v.491A15.381,15.381,0,0,1,60.808,71.595" transform="translate(59.402 121.972)" fill="#193091"/><path d="M51.738.448H0A.448.448,0,0,1-.448,0,.448.448,0,0,1,0-.448H51.738A.448.448,0,0,1,52.186,0,.448.448,0,0,1,51.738.448Z" transform="translate(81.449 166.534)" fill="#fff"/><path d="M33.857,41.326a.626.626,0,1,1-.628-.628.629.629,0,0,1,.628.628" transform="translate(98.593 123.061)" fill="#fff"/><path d="M33.045,41.326a.626.626,0,1,1-.628-.628.629.629,0,0,1,.628.628" transform="translate(96.138 123.061)" fill="#fff"/><path d="M32.233,41.326a.626.626,0,1,1-.628-.628.629.629,0,0,1,.628.628" transform="translate(93.683 123.061)" fill="#fff"/><path d="M29.887,43.733h-8.78a.865.865,0,0,1,0-1.73h8.78a.865.865,0,0,1,0,1.73" transform="translate(61.207 127.007)" fill="#6589d1"/><path d="M29.887,44.727h-8.78a.865.865,0,1,1,0-1.73h8.78a.865.865,0,1,1,0,1.73" transform="translate(61.207 130.013)" fill="#6589d1"/><path d="M29.887,45.72h-8.78a.865.865,0,1,1,0-1.73h8.78a.865.865,0,1,1,0,1.73" transform="translate(61.207 133.015)" fill="#6589d1"/><path d="M29.887,46.714h-8.78a.865.865,0,1,1,0-1.73h8.78a.865.865,0,1,1,0,1.73" transform="translate(61.207 136.021)" fill="#6589d1"/><path d="M29.887,47.708h-8.78a.865.865,0,0,1,0-1.73h8.78a.865.865,0,0,1,0,1.73" transform="translate(61.207 139.027)" fill="#6589d1"/><path d="M29.887,48.7h-8.78a.865.865,0,0,1,0-1.73h8.78a.865.865,0,0,1,0,1.73" transform="translate(61.207 142.032)" fill="#6589d1"/><path d="M61.968,43.733H24.132a.865.865,0,1,1,0-1.73H61.968a.865.865,0,0,1,0,1.73" transform="translate(70.354 127.007)" fill="#3b5fb7"/><path d="M61.968,44.727H24.132a.865.865,0,1,1,0-1.73H61.968a.865.865,0,1,1,0,1.73" transform="translate(70.354 130.013)" fill="#3b5fb7"/><path d="M61.968,45.72H24.132a.865.865,0,1,1,0-1.73H61.968a.865.865,0,1,1,0,1.73" transform="translate(70.354 133.015)" fill="#3b5fb7"/><path d="M61.968,46.714H24.132a.865.865,0,1,1,0-1.73H61.968a.865.865,0,1,1,0,1.73" transform="translate(70.354 136.021)" fill="#3b5fb7"/><path d="M61.968,47.708H24.132a.865.865,0,1,1,0-1.73H61.968a.865.865,0,0,1,0,1.73" transform="translate(70.354 139.027)" fill="#3b5fb7"/><path d="M61.968,48.7H24.132a.865.865,0,1,1,0-1.73H61.968a.865.865,0,0,1,0,1.73" transform="translate(70.354 142.032)" fill="#3b5fb7"/><path d="M23.278-.4A23.679,23.679,0,0,1,32.492,45.09,23.679,23.679,0,0,1,14.063,1.465,23.525,23.525,0,0,1,23.278-.4Zm0,46.555A22.889,22.889,0,0,0,32.184,2.193,22.889,22.889,0,0,0,14.371,44.362,22.739,22.739,0,0,0,23.278,46.16Z" transform="translate(352.044 1.588)" fill="#dee3fc"/><path d="M128.721,21.387A20.238,20.238,0,1,1,108.486,1.151a20.235,20.235,0,0,1,20.236,20.236" transform="translate(266.836 3.48)" fill="#3945ba"/><path d="M96.5,7.565a1.843,1.843,0,1,1-1.843-1.843A1.843,1.843,0,0,1,96.5,7.565" transform="translate(280.661 17.301)" fill="#fff"/><path d="M98.341,14.969h0a.581.581,0,0,1-.785-.225L91.606,4.008a.577.577,0,0,1,1.01-.559l5.951,10.735a.58.58,0,0,1-.225.785" transform="translate(276.779 9.535)" fill="#fff"/><path d="M93.476,6.379h0a.573.573,0,0,1,.813,0l5.15,5.154a.575.575,0,0,1-.813.813L93.476,7.2a.578.578,0,0,1,0-.817" transform="translate(282.14 18.777)" fill="#fff"/><path d="M0,3.326a1,1,0,0,1-1-1V0A1,1,0,0,1,0-1,1,1,0,0,1,1,0V2.326A1,1,0,0,1,0,3.326Z" transform="translate(375.446 6.341)" fill="#fff"/><path d="M2.326,1H0A1,1,0,0,1-1,0,1,1,0,0,1,0-1H2.326a1,1,0,0,1,1,1A1,1,0,0,1,2.326,1Z" transform="translate(391.52 24.989)" fill="#fff"/><path d="M0,3.326a1,1,0,0,1-1-1V0A1,1,0,0,1,0-1,1,1,0,0,1,1,0V2.326A1,1,0,0,1,0,3.326Z" transform="translate(375.198 41.063)" fill="#fff"/><path d="M2.326,1H0A1,1,0,0,1-1,0,1,1,0,0,1,0-1H2.326a1,1,0,0,1,1,1A1,1,0,0,1,2.326,1Z" transform="translate(356.798 24.741)" fill="#fff"/><g transform="translate(357.204 6.747)" opacity="0.5"><g clip-path="url(#e)"><path d="M1.163,2.516a.5.5,0,0,1-.434-.25L-.433.25A.5.5,0,0,1-.25-.433.5.5,0,0,1,.433-.25L1.6,1.766a.5.5,0,0,1-.433.75Z" transform="translate(8.963 2.011)" fill="#dee3fc"/><path d="M0,1.663a.5.5,0,0,1-.434-.25A.5.5,0,0,1-.25.73L1.766-.433a.5.5,0,0,1,.683.183.5.5,0,0,1-.183.683L.25,1.6A.5.5,0,0,1,0,1.663Z" transform="translate(32.208 8.963)" fill="#dee3fc"/><path d="M1.163,2.516a.5.5,0,0,1-.434-.25L-.433.25A.5.5,0,0,1-.25-.433.5.5,0,0,1,.433-.25L1.6,1.766a.5.5,0,0,1-.433.75Z" transform="translate(26.109 32.208)" fill="#dee3fc"/><path d="M0,1.663a.5.5,0,0,1-.434-.25A.5.5,0,0,1-.25.73L1.766-.433a.5.5,0,0,1,.683.183.5.5,0,0,1-.183.683L.25,1.6A.5.5,0,0,1,0,1.663Z" transform="translate(2.011 26.109)" fill="#dee3fc"/></g></g><g transform="translate(357.328 6.871)" opacity="0.5"><g clip-path="url(#f)"><path d="M2.015,1.663A.5.5,0,0,1,1.766,1.6L-.25.433A.5.5,0,0,1-.433-.25.5.5,0,0,1,.25-.433L2.266.73a.5.5,0,0,1-.25.933Z" transform="translate(2.011 8.625)" fill="#dee3fc"/><path d="M0,2.516A.5.5,0,0,1-.25,2.449a.5.5,0,0,1-.183-.683L.73-.25a.5.5,0,0,1,.683-.183A.5.5,0,0,1,1.6.25L.433,2.266A.5.5,0,0,1,0,2.516Z" transform="translate(26.2 2.011)" fill="#dee3fc"/><path d="M2.015,1.663A.5.5,0,0,1,1.766,1.6L-.25.433A.5.5,0,0,1-.433-.25.5.5,0,0,1,.25-.433L2.266.73a.5.5,0,0,1-.25.933Z" transform="translate(31.96 26.2)" fill="#dee3fc"/><path d="M0,2.516A.5.5,0,0,1-.25,2.449a.5.5,0,0,1-.183-.683L.73-.25a.5.5,0,0,1,.683-.183A.5.5,0,0,1,1.6.25L.433,2.266A.5.5,0,0,1,0,2.516Z" transform="translate(8.624 31.96)" fill="#dee3fc"/></g></g><path d="M36.119,64.8h0A19.634,19.634,0,1,1,55.751,45.17,19.633,19.633,0,0,1,36.119,64.8" transform="translate(49.853 77.208)" fill="#193091"/><path d="M35.362,63.956h0A19.634,19.634,0,1,1,54.994,44.328,19.629,19.629,0,0,1,35.362,63.956" transform="translate(47.564 74.65)" fill="#7e89fd"/><path d="M35.362,64.456A20.072,20.072,0,1,1,43.2,62.874,20.012,20.012,0,0,1,35.362,64.456Zm0-39.268a19.066,19.066,0,1,0,7.447,1.5A19,19,0,0,0,35.362,25.188Z" transform="translate(47.564 74.65)" fill="#dee3fc"/><path d="M33.959,35.173h-.205V32.924a6.694,6.694,0,1,0-13.387,0v2.249h-.048a1.878,1.878,0,0,0-1.875,1.879V45.53a1.88,1.88,0,0,0,1.875,1.879H33.959a1.881,1.881,0,0,0,1.879-1.879V37.052a1.879,1.879,0,0,0-1.879-1.879m-11.9-2.249a5,5,0,0,1,10,0v2.249h-10Z" transform="translate(55.768 79.307)" fill="#dee3fc"/><path d="M24.434,31.176a2.184,2.184,0,1,0-3.287,1.883.4.4,0,0,1,.2.439l-.382,1.4a1.313,1.313,0,1,0,2.535,0l-.378-1.388a.392.392,0,0,1,.205-.443,2.177,2.177,0,0,0,1.107-1.9" transform="translate(60.677 87.662)" fill="#7e89fd"/><path d="M35.033,33.44H19.248a.8.8,0,0,1,0-1.61H35.033a.8.8,0,1,1,0,1.61" transform="translate(55.768 96.246)" fill="#dee3fc"/><path d="M35.033,34.119H19.248a.8.8,0,0,1,0-1.61H35.033a.8.8,0,1,1,0,1.61" transform="translate(55.768 98.299)" fill="#dee3fc"/><path d="M108.228,64.136h0a11.558,11.558,0,1,1,11.56-11.56,11.561,11.561,0,0,1-11.56,11.56" transform="translate(292.303 124.032)" fill="#193091"/><path d="M107.782,63.638h0a11.558,11.558,0,1,1,11.56-11.56,11.561,11.561,0,0,1-11.56,11.56" transform="translate(290.954 122.526)" fill="#7e89fd"/><path d="M107.782,64.138a12.061,12.061,0,1,1,8.527-3.532A11.982,11.982,0,0,1,107.782,64.138Zm0-23.117a11.058,11.058,0,1,0,11.06,11.056A11.071,11.071,0,0,0,107.782,41.021Z" transform="translate(290.954 122.526)" fill="#dee3fc"/><path d="M98.473,55.486a.641.641,0,0,1-.193-.028.711.711,0,0,1-.495-.881L101.277,42.2a.717.717,0,1,1,1.38.39l-3.5,12.373a.712.712,0,0,1-.688.523" transform="translate(295.596 126.022)" fill="#fff"/><path d="M99.925,55.486a.642.642,0,0,1-.193-.028.711.711,0,0,1-.495-.881l3.5-12.377a.715.715,0,1,1,1.376.39l-3.5,12.373a.716.716,0,0,1-.688.523" transform="translate(299.987 126.022)" fill="#fff"/><path d="M110.472,43.951H98.1a.716.716,0,1,1,0-1.432h12.377a.716.716,0,1,1,0,1.432" transform="translate(294.453 128.567)" fill="#fff"/><path d="M110.472,45.356H98.1a.716.716,0,1,1,0-1.432h12.377a.716.716,0,1,1,0,1.432" transform="translate(294.453 132.816)" fill="#fff"/><path d="M39.518,29.987H30.569a.98.98,0,1,1,0-1.96h8.949a.98.98,0,1,1,0,1.96" transform="translate(89.465 84.747)" fill="#f0f4ff"/><path d="M48.535,31.073H30.569a.982.982,0,1,1,0-1.964H48.535a.982.982,0,0,1,0,1.964" transform="translate(89.465 88.018)" fill="#f0f4ff"/><path d="M32.689,32.156H30.569a.982.982,0,1,1,0-1.964h2.121a.982.982,0,1,1,0,1.964" transform="translate(89.465 91.293)" fill="#f0f4ff"/><path d="M44.435,32.156H31.925a.982.982,0,0,1,0-1.964h12.51a.982.982,0,0,1,0,1.964" transform="translate(93.565 91.293)" fill="#f0f4ff"/><path d="M39.11,29.987H33.686a.98.98,0,1,1,0-1.96H39.11a.98.98,0,1,1,0,1.96" transform="translate(98.89 84.747)" fill="#f0f4ff"/><path d="M38.7,65.586a6.222,6.222,0,0,0-3.191.877,6.693,6.693,0,0,0-13.343.752,6.233,6.233,0,0,0,.04.732,5.24,5.24,0,0,0-.95-.089,5.112,5.112,0,0,0,0,10.224H38.7a6.249,6.249,0,1,0,0-12.5" transform="translate(48.825 183.01)" fill="#fff"/><path d="M23.6,83.4a6.632,6.632,0,0,1,.089-2.813,27.847,27.847,0,0,0-.314-15.137c-3.344-10.442-16.9-19.692-16.9-19.692s3.682,15.411,6.708,21.974A82.446,82.446,0,0,0,21.42,80.885a6.416,6.416,0,0,1,1.183,2.7,112.406,112.406,0,0,1,1.867,21.664l1.018.04A113.488,113.488,0,0,0,23.6,83.4" transform="translate(19.57 138.358)" fill="#dee3fc"/><path d="M20.5,66.609a122.275,122.275,0,0,0,3.947-18.546S12.293,58.094,11.3,65.856a26.026,26.026,0,0,0,.829,10.808A7.333,7.333,0,0,1,12.41,79.6a102.7,102.7,0,0,0-.249,20.308l.913-.1a101.568,101.568,0,0,1,.145-19.065,7.6,7.6,0,0,1,1.674-4.028,31.767,31.767,0,0,0,5.609-10.1" transform="translate(33.477 145.331)" fill="#b4c1ef"/><path d="M31.46,47.964s-13.1,4.861-16.526,15.556a28.518,28.518,0,0,0-.282,15.644,5.427,5.427,0,0,1,0,2.664,119.855,119.855,0,0,0-3.114,25.217h1.042a119.291,119.291,0,0,1,3.01-24.674,9.219,9.219,0,0,1,1.553-3.316,83.626,83.626,0,0,0,8.237-13.2c3.1-6.72,6.084-17.89,6.084-17.89" transform="translate(34.876 145.032)" fill="#dee3fc"/><path d="M27.086,87.5a36.3,36.3,0,0,0-3.026-11.89,4.1,4.1,0,0,1-.306-2.149,19.506,19.506,0,0,0-.306-6.394c-1.062-5.247-8.027-16.586-18.111-17.25a73.513,73.513,0,0,1,5.271,10.277c2.265,5.919,5.5,12.116,10.86,14.49a4.025,4.025,0,0,1,2.072,2.157,34.9,34.9,0,0,1,2.624,10.828Z" transform="translate(16.138 150.626)" fill="#b4c1ef"/><path d="M12.312,86.389H28.955l4.318-26.384a1.92,1.92,0,0,0-1.9-2.229H9.89a1.916,1.916,0,0,0-1.9,2.229Z" transform="translate(24.095 174.701)" fill="#dee3fc"/><path d="M465.636.557H0A.557.557,0,0,1-.557,0,.557.557,0,0,1,0-.557H465.636a.557.557,0,0,1,.557.557A.557.557,0,0,1,465.636.557Z" transform="translate(2.242 261.09)" fill="#fff"/></g></g></g></g></g></g></svg>